<svg id="icons" xmlns="http://www.w3.org/2000/svg" viewBox="0 0 101.93 88"><defs><style>.cls-1{fill:#FFF;}</style></defs><title>product-logo_</title><path class="cls-1" d="M16.36,30.58h0C20.81,27,23,22,22.25,16.91,21.26,9.79,15,3.53,6,.57A9.1,9.1,0,0,0,3.23,0C1.59,0,.53.93,0.07,2.78-0.59,5.44,1.21,6.27,3.69,7.43c5.88,2.75,9.25,6.5,9.47,10.54,0.17,3.13-1.47,5.94-4.95,8.32a4.87,4.87,0,0,0-2.27,4.29h0a4.87,4.87,0,0,0,2.27,4.29c3.47,2.38,5.12,5.19,4.95,8.32-0.22,4-3.58,7.79-9.47,10.54-2.49,1.16-4.29,2-3.62,4.65,0.46,1.85,1.53,2.78,3.16,2.78A9.09,9.09,0,0,0,6,60.6c9-3,15.25-9.22,16.25-16.35C23,39.19,20.81,34.21,16.36,30.58Z"/><path class="cls-1" d="M45.43,53.75C41.12,50,39,46.27,39,42.27V6.82c0-3.32-.62-5.47-4.5-5.47h0C30.67,1.35,30,3.5,30,6.82V41.6c0,6.8,4.42,13.48,11.27,18.12a6.42,6.42,0,0,0,3.48,1.45,3.36,3.36,0,0,0,2.84-1.95C49,56.86,47.5,55.55,45.43,53.75Z"/><path class="cls-1" d="M85.44,30.58h0C81,27,78.84,22,79.54,16.91c1-7.12,7.22-13.39,16.25-16.35A9.1,9.1,0,0,1,98.56,0c1.64,0,2.71.93,3.16,2.78,0.66,2.65-1.14,3.49-3.62,4.65-5.88,2.75-9.25,6.5-9.47,10.54-0.17,3.13,1.47,5.94,4.95,8.32a4.87,4.87,0,0,1,2.27,4.29h0a4.87,4.87,0,0,1-2.27,4.29c-3.47,2.38-5.12,5.19-4.95,8.32,0.22,4,3.58,7.79,9.47,10.54,2.49,1.16,4.29,2,3.62,4.65-0.46,1.85-1.52,2.78-3.16,2.78a9.09,9.09,0,0,1-2.77-.57c-9-3-15.25-9.22-16.25-16.35C78.84,39.19,81,34.21,85.44,30.58Z"/><path class="cls-1" d="M56.36,53.75c4.31-3.75,6.39-7.48,6.39-11.49V6.82c0-3.32.62-5.47,4.5-5.47h0c3.88,0,4.5,2.16,4.5,5.47V41.6c0,6.8-4.42,13.48-11.27,18.12A6.43,6.43,0,0,1,57,61.17a3.36,3.36,0,0,1-2.84-1.95C52.79,56.86,54.29,55.55,56.36,53.75Z"/><path class="cls-1" d="M16.68,87.64a0.52,0.52,0,0,1-.12-0.41V76H12.7a0.36,0.36,0,0,1-.31-0.09,0.44,0.44,0,0,1-.09-0.31,2.4,2.4,0,0,1,.16-1A0.57,0.57,0,0,1,13,74.47H22.2a0.4,0.4,0,0,1,.32.08,0.47,0.47,0,0,1,.08.32,2.48,2.48,0,0,1-.15.95,0.57,0.57,0,0,1-.55.2H18.38V87.23a0.52,0.52,0,0,1-.12.41,1.33,1.33,0,0,1-.81.15A1.31,1.31,0,0,1,16.68,87.64Z"/><path class="cls-1" d="M24.12,83.57V75a0.6,0.6,0,0,1,.11-0.41,1.39,1.39,0,0,1,.83-0.15,1.27,1.27,0,0,1,.76.15,0.6,0.6,0,0,1,.11.41v8.82c0,1.41,1,2.66,3.12,2.66s3.13-1.25,3.13-2.66V75c0-.5.14-0.53,0.91-0.57,1,0,.85.21,0.89,0.57v8.61C34,86.14,32.63,88,29,88S24.12,86.14,24.12,83.57Z"/><path class="cls-1" d="M36.94,87.23V75a1,1,0,0,1,0-.36,1.09,1.09,0,0,1,.82-0.21,1.4,1.4,0,0,1,.81.15,0.6,0.6,0,0,1,.1.41V87.23a0.6,0.6,0,0,1-.1.41,1.4,1.4,0,0,1-.81.15C36.84,87.78,37,87.59,36.94,87.23Z"/><path class="cls-1" d="M47.31,87.72a1,1,0,0,1-.75-0.15,0.63,0.63,0,0,1-.12-0.41V75a0.6,0.6,0,0,1,.14-0.43,1.23,1.23,0,0,1,.73-0.14H50.9a5.62,5.62,0,0,1,2.42.46,2.59,2.59,0,0,1,1.32,1.18A3.33,3.33,0,0,1,55,77.57a3.66,3.66,0,0,1-.32,1.58,2.4,2.4,0,0,1-.71.95,5.48,5.48,0,0,1-.68.43,3.56,3.56,0,0,1,1.24.66,3.49,3.49,0,0,1,1.16,2.74c0,2.25-1.76,3.8-4.45,3.8H47.31Zm0.89-7.85h2.19c2.52,0,2.77-1,2.77-2.09a1.73,1.73,0,0,0-.31-1A2.78,2.78,0,0,0,50.63,76H48.2v3.9h0Zm0,6.34h2.72c2,0,2.87-1.14,2.87-2.41a2.57,2.57,0,0,0-.34-1.35c-0.43-.73-1.51-1.07-2.86-1.07H48.2v4.84h0Z"/><path class="cls-1" d="M58.88,87.72a1,1,0,0,1-.75-0.15A0.63,0.63,0,0,1,58,87.15V75c0-.5.15-0.53,0.89-0.57,1,0,.87.21,0.91,0.57V86.17h5.72a0.4,0.4,0,0,1,.32.08,0.47,0.47,0,0,1,.08.32,2.39,2.39,0,0,1-.16,1,0.57,0.57,0,0,1-.55.19H58.88Z"/><path class="cls-1" d="M67,83.57V75a0.6,0.6,0,0,1,.11-0.41,1.39,1.39,0,0,1,.83-0.15,1.27,1.27,0,0,1,.76.15,0.6,0.6,0,0,1,.11.41v8.82c0,1.41,1,2.66,3.12,2.66S75,85.19,75,83.78V75c0-.5.14-0.53,0.91-0.57,1,0,.85.21,0.89,0.57v8.61c0,2.57-1.34,4.43-4.93,4.43S67,86.14,67,83.57Z"/><path class="cls-1" d="M80.56,87.72a1,1,0,0,1-.75-0.15,0.63,0.63,0,0,1-.12-0.41V75a0.6,0.6,0,0,1,.14-0.43,1.23,1.23,0,0,1,.73-0.14h6.82a0.4,0.4,0,0,1,.32.08,0.47,0.47,0,0,1,.08.32,2.48,2.48,0,0,1-.15.95,0.57,0.57,0,0,1-.55.2H81.49v3.74h5a0.4,0.4,0,0,1,.32.08,0.47,0.47,0,0,1,.08.32,2.14,2.14,0,0,1-.16.95,0.55,0.55,0,0,1-.55.19H81.49v4.89h6c0.31,0,.39.08,0.39,0.4a2.41,2.41,0,0,1-.15,1,0.57,0.57,0,0,1-.55.19H80.56Z"/></svg>