<?xml version="1.0" encoding="UTF-8" standalone="no"?>
<svg width="200px" height="200px" viewBox="0 0 200 200" version="1.1" xmlns="http://www.w3.org/2000/svg" xmlns:xlink="http://www.w3.org/1999/xlink">
    <!-- Generator: Sketch 44.1 (41455) - http://www.bohemiancoding.com/sketch -->
    <title>family-life-logo</title>
    <desc>Created with Sketch.</desc>
    <defs></defs>
    <g id="Products-Landing-Page" stroke="none" stroke-width="1" fill="none" fill-rule="evenodd">
        <g id="Artboard">
            <g id="family-life-logo">
                <rect id="Rectangle-3" fill="#FFFFFF" x="0" y="0" width="200" height="200"></rect>
                <polygon id="Shape" fill="#092A5E" fill-rule="nonzero" points="0 97.0227273 200 97.0227273 200 86.3636364 0 86.3636364 0 75.4545455 200 75.4545455 200 64.6818182 0 64.6818182 0 53.9090909 200 53.9090909 200 43.1818182 0 43.1818182 0 32.3409091 200 32.3409091 200 21.5681818 0 21.5681818 0 10.7727273 200 10.7727273 200 0 0 0 0 200 200 200 200 107.818182 0 107.818182"></polygon>
                <path d="M30.9926116,161.12753 C30.7377651,161.12753 30.53539,161.108791 30.3854802,161.071314 C30.2355705,161.033836 30.1381306,160.992612 30.0931577,160.947639 C30.0032119,160.88018 29.9582396,160.719029 29.9582396,160.464182 L29.9582396,147.410858 L25.4609701,147.410858 C25.3335469,147.410858 25.24735,147.399615 25.2023771,147.377128 C25.1574042,147.354642 25.123675,147.332156 25.1011886,147.309669 C25.0337292,147.24221 25,147.122284 25,146.949888 C25,146.755005 25.0168646,146.547008 25.0505943,146.325891 C25.084324,146.104775 25.1311701,145.94175 25.191134,145.836813 C25.2510978,145.746868 25.3297993,145.686905 25.4272406,145.656923 C25.5246819,145.626941 25.6595987,145.61195 25.8319949,145.61195 L36.51301,145.61195 C36.6404332,145.61195 36.7285039,145.621319 36.7772245,145.640058 C36.8259452,145.658797 36.8615482,145.679409 36.8840347,145.701895 C36.9439986,145.761859 36.9739801,145.885533 36.9739801,146.07292 C36.9739801,146.297785 36.9571155,146.513277 36.9233858,146.719403 C36.8896561,146.925528 36.8465577,147.07731 36.7940893,147.174751 C36.7341254,147.264697 36.655424,147.326534 36.5579827,147.360263 C36.4605413,147.393993 36.3256246,147.410858 36.1532284,147.410858 L32.0719563,147.410858 L32.0719563,160.464182 C32.0719563,160.719029 32.0269841,160.88018 31.9370382,160.947639 C31.8920653,160.992612 31.7946254,161.033836 31.6447157,161.071314 C31.494806,161.108791 31.2774401,161.12753 30.9926116,161.12753 Z M44.4844202,161.363636 C43.4425475,161.363636 42.5580934,161.234341 41.8310312,160.975747 C41.103969,160.717153 40.5118344,160.359248 40.0546097,159.902024 C39.597385,159.444799 39.2657147,158.901384 39.0595888,158.271764 C38.8534629,157.642143 38.7504015,156.952568 38.7504015,156.20302 L38.7504015,146.185352 C38.7504015,145.938001 38.7916261,145.77685 38.8740765,145.701895 C38.9190494,145.656922 39.0183631,145.615698 39.1720206,145.57822 C39.325678,145.540743 39.5486654,145.522004 39.8409894,145.522004 C40.0958359,145.522004 40.2963372,145.540743 40.4424992,145.57822 C40.5886612,145.615698 40.6842272,145.656922 40.7292001,145.701895 C40.8116505,145.77685 40.852875,145.938001 40.852875,146.185352 L40.852875,156.450369 C40.852875,156.862621 40.9240811,157.254254 41.0664953,157.625281 C41.2089096,157.996308 41.4300231,158.32423 41.7298426,158.609059 C42.0296621,158.893887 42.4063046,159.120622 42.8597816,159.289271 C43.3132585,159.457919 43.8547993,159.542242 44.4844202,159.542242 C45.1140411,159.542242 45.6574557,159.457919 46.1146804,159.289271 C46.5719051,159.120622 46.9504215,158.893887 47.2502409,158.609059 C47.5500604,158.32423 47.7711739,157.996308 47.9135882,157.625281 C48.0560024,157.254254 48.1272085,156.862621 48.1272085,156.450369 L48.1272085,146.185352 C48.1272085,145.982974 48.1478208,145.842435 48.1890459,145.763733 C48.2302711,145.68503 48.3352064,145.625067 48.5038548,145.583842 C48.6725033,145.542617 48.8992383,145.522004 49.1840668,145.522004 C49.5588412,145.522004 49.8136839,145.55386 49.9486026,145.617571 C50.0835214,145.681283 50.1622228,145.754363 50.1847093,145.836813 C50.2071957,145.919264 50.2184388,146.035442 50.2184388,146.185352 L50.2184388,156.20302 C50.2184388,156.952568 50.1153774,157.642143 49.9092515,158.271764 C49.7031256,158.901384 49.3714553,159.444799 48.9142306,159.902024 C48.457006,160.359248 47.8648714,160.717153 47.1378092,160.975747 C46.410747,161.234341 45.5262928,161.363636 44.4844202,161.363636 Z M54.5807902,161.12753 C54.2135114,161.12753 53.9605425,161.097548 53.821876,161.037584 C53.6832095,160.97762 53.6063819,160.904541 53.5913909,160.818342 C53.5764,160.732144 53.5689046,160.614092 53.5689046,160.464182 L53.5689046,146.185352 C53.5689046,145.982974 53.5895169,145.844309 53.630742,145.769354 C53.6719672,145.694399 53.7769025,145.634436 53.9455509,145.589464 C54.1141994,145.544491 54.3259437,145.522004 54.5807902,145.522004 C54.8581232,145.522004 55.0717414,145.540743 55.2216511,145.57822 C55.3715609,145.615698 55.4727484,145.656922 55.5252168,145.701895 C55.6001717,145.77685 55.6376486,145.938001 55.6376486,146.185352 L55.6376486,160.464182 C55.6376486,160.711534 55.6001717,160.872684 55.5252168,160.947639 C55.4727484,160.992612 55.3715609,161.033836 55.2216511,161.071314 C55.0717414,161.108791 54.8581232,161.12753 54.5807902,161.12753 Z M65.8914231,161.12753 C65.5091532,161.12753 65.248689,161.097548 65.1100225,161.037584 C64.971356,160.97762 64.8945284,160.904541 64.8795374,160.818342 C64.8645465,160.732144 64.8570511,160.614092 64.8570511,160.464182 L64.8570511,146.275297 C64.8570511,146.057928 64.9095187,145.896777 65.0144555,145.791841 C65.0744194,145.731877 65.1681116,145.686905 65.2955349,145.656923 C65.4229581,145.626941 65.6140902,145.61195 65.8689367,145.61195 L73.5817539,145.61195 C73.7466546,145.61195 73.8703283,145.641931 73.9527787,145.701895 C74.0127426,145.761859 74.0427241,145.885533 74.0427241,146.07292 C74.0427241,146.252812 74.0239856,146.457061 73.9865082,146.685673 C73.9490308,146.914285 73.9040585,147.07731 73.8515901,147.174751 C73.7916262,147.264697 73.7129248,147.326534 73.6154835,147.360263 C73.5180421,147.393993 73.3831254,147.410858 73.2107292,147.410858 L66.9482814,147.410858 L66.9482814,151.986829 L72.5473819,151.986829 C72.7272736,151.986829 72.8471996,152.016811 72.9071635,152.076775 C72.9746229,152.144234 73.0083521,152.267908 73.0083521,152.4478 C73.0083521,152.627691 72.9896136,152.83194 72.9521362,153.060553 C72.9146588,153.289165 72.8678127,153.452189 72.8115965,153.549631 C72.7553804,153.647072 72.6785528,153.710783 72.5811115,153.740765 C72.4836701,153.770746 72.3487534,153.785737 72.1763572,153.785737 L66.9482814,153.785737 L66.9482814,160.464182 C66.9482814,160.674056 66.9257953,160.816468 66.8808224,160.891423 C66.8358494,160.966378 66.7290404,161.024467 66.5603919,161.065692 C66.3917435,161.106917 66.1687561,161.12753 65.8914231,161.12753 Z M75.2345005,161.12753 C74.949672,161.12753 74.7416754,161.108791 74.6105043,161.071314 C74.4793333,161.033836 74.387515,160.992612 74.3350466,160.947639 C74.2900737,160.902666 74.2675875,160.83146 74.2675875,160.734019 C74.2675875,160.689046 74.3050644,160.527895 74.3800193,160.250562 L79.3832316,145.881786 C79.4282045,145.731876 79.5237706,145.623193 79.6699325,145.555734 C79.8160945,145.488275 80.1027926,145.454545 80.5300353,145.454545 C80.9647736,145.454545 81.2570932,145.490148 81.4070029,145.561356 C81.5569126,145.632563 81.6581002,145.739372 81.7105686,145.881786 L86.7699968,160.464182 C86.7999787,160.554128 86.8149695,160.644073 86.8149695,160.734019 C86.8149695,160.816469 86.7774926,160.89517 86.7025377,160.970125 C86.6650603,161.007603 86.573242,161.043206 86.42708,161.076935 C86.280918,161.110665 86.065426,161.12753 85.7805975,161.12753 C85.5257509,161.12753 85.3252497,161.108791 85.1790877,161.071314 C85.0329257,161.033836 84.933612,160.992612 84.8811436,160.947639 C84.8136842,160.887675 84.7387305,160.726524 84.6562801,160.464182 L83.4307742,156.776421 L77.5618375,156.776421 L76.3475747,160.464182 C76.2576288,160.689047 76.1920443,160.835207 76.1508191,160.902666 C76.109594,160.970126 76.0102803,161.024467 75.852875,161.065692 C75.6954698,161.106917 75.489347,161.12753 75.2345005,161.12753 Z M78.1352393,155.078702 L82.8573723,155.078702 L80.4850626,147.961773 L78.1352393,155.078702 Z M89.6594925,161.12753 C89.4046459,161.12753 89.2097662,161.108791 89.0748474,161.071314 C88.9399287,161.033836 88.8499842,160.992612 88.8050112,160.947639 C88.7150654,160.88018 88.6700932,160.719029 88.6700932,160.464182 L88.6700932,147.24221 L88.1866367,146.443945 C88.0442224,146.226576 87.9730164,146.039191 87.9730164,145.881786 C87.9730164,145.769354 88.0742039,145.681283 88.2765821,145.617571 C88.4789602,145.55386 88.7712798,145.522004 89.1535496,145.522004 C89.5433149,145.522004 89.8431299,145.550112 90.0530035,145.606328 C90.2628772,145.662544 90.42028,145.773101 90.5252168,145.938002 L95.3935111,153.459685 L99.9020238,145.938002 C100.006961,145.765606 100.130634,145.653175 100.273049,145.600707 C100.415463,145.548238 100.636576,145.522004 100.936396,145.522004 C101.333657,145.522004 101.594121,145.55386 101.717796,145.617571 C101.841472,145.681283 101.914552,145.754363 101.937038,145.836813 C101.959525,145.919264 101.970768,146.035442 101.970768,146.185352 L101.970768,160.464182 C101.970768,160.674056 101.948282,160.816468 101.903309,160.891423 C101.858336,160.966378 101.757148,161.024467 101.599743,161.065692 C101.442338,161.106917 101.221224,161.12753 100.936396,161.12753 C100.681549,161.12753 100.481048,161.108791 100.334886,161.071314 C100.188724,161.033836 100.08941,160.992612 100.036942,160.947639 C99.961987,160.872684 99.9245101,160.711534 99.9245101,160.464182 L99.9245101,149.265981 L96.4953421,155.123675 C96.4653602,155.183639 96.4053972,155.258593 96.3154513,155.348538 L96.2367491,155.415997 C96.1093258,155.543421 95.7945201,155.607131 95.2923225,155.607131 C95.0599624,155.607131 94.8707042,155.594014 94.7245422,155.56778 C94.5783803,155.541546 94.4640758,155.490952 94.3816254,155.415997 C94.2542022,155.311061 94.1680054,155.213621 94.1230324,155.123675 L90.7163508,149.61452 L90.7163508,160.464182 C90.7163508,160.711534 90.6788739,160.872684 90.603919,160.947639 C90.5514506,160.992612 90.4502631,161.033836 90.3003534,161.071314 C90.1504436,161.108791 89.9368255,161.12753 89.6594925,161.12753 Z M106.445551,161.12753 C106.078272,161.12753 105.825303,161.097548 105.686637,161.037584 C105.54797,160.97762 105.471143,160.904541 105.456152,160.818342 C105.441161,160.732144 105.433665,160.614092 105.433665,160.464182 L105.433665,146.185352 C105.433665,145.982974 105.454278,145.844309 105.495503,145.769354 C105.536728,145.694399 105.641663,145.634436 105.810312,145.589464 C105.97896,145.544491 106.190704,145.522004 106.445551,145.522004 C106.722884,145.522004 106.936502,145.540743 107.086412,145.57822 C107.236322,145.615698 107.337509,145.656922 107.389978,145.701895 C107.464932,145.77685 107.502409,145.938001 107.502409,146.185352 L107.502409,160.464182 C107.502409,160.711534 107.464932,160.872684 107.389978,160.947639 C107.337509,160.992612 107.236322,161.033836 107.086412,161.071314 C106.936502,161.108791 106.722884,161.12753 106.445551,161.12753 Z M111.977192,161.037584 C111.669877,161.037584 111.458133,161.018846 111.341953,160.981368 C111.225773,160.943891 111.145198,160.902666 111.100225,160.857694 C111.010279,160.752757 110.965307,160.591606 110.965307,160.374237 L110.965307,146.185352 C110.965307,145.982974 110.985919,145.842435 111.027144,145.763733 C111.068369,145.68503 111.173305,145.625067 111.341953,145.583842 C111.510602,145.542617 111.729841,145.522004 111.999679,145.522004 C112.389444,145.522004 112.651782,145.55386 112.786701,145.617571 C112.92162,145.681283 113.000321,145.754363 113.022808,145.836813 C113.045294,145.919264 113.056537,146.035442 113.056537,146.185352 L113.056537,159.238677 L119.712496,159.238677 C119.839919,159.238677 119.92799,159.248046 119.976711,159.266784 C120.025431,159.285523 120.061034,159.306135 120.083521,159.328622 C120.143485,159.388586 120.173466,159.512259 120.173466,159.699647 C120.173466,159.894529 120.156602,160.102526 120.122872,160.323643 C120.089142,160.54476 120.042296,160.707784 119.982332,160.812721 C119.922368,160.902667 119.843667,160.96263 119.746226,160.992612 C119.648784,161.022594 119.513867,161.037584 119.341471,161.037584 L111.977192,161.037584 Z M126.323482,161.12753 C125.956203,161.12753 125.703234,161.097548 125.564568,161.037584 C125.425901,160.97762 125.349074,160.904541 125.334083,160.818342 C125.319092,160.732144 125.311597,160.614092 125.311597,160.464182 L125.311597,154.426598 L120.544491,146.342756 C120.417068,146.140378 120.353357,145.994218 120.353357,145.904272 C120.353357,145.859299 120.368348,145.812453 120.39833,145.763733 C120.428312,145.715012 120.469536,145.679409 120.522004,145.656923 C120.671914,145.566977 120.952991,145.522004 121.365243,145.522004 C121.702539,145.522004 121.948013,145.550112 122.10167,145.606328 C122.255328,145.662544 122.380875,145.773101 122.478317,145.938002 L126.435914,152.582718 L130.415997,145.938002 C130.490952,145.795588 130.599635,145.690652 130.742049,145.623193 C130.884464,145.555734 131.128063,145.522004 131.472856,145.522004 C131.76518,145.522004 131.967555,145.538869 132.079987,145.572599 C132.192419,145.606328 132.267373,145.634436 132.304851,145.656923 C132.349824,145.679409 132.383553,145.715012 132.406039,145.763733 C132.428526,145.812453 132.439769,145.859299 132.439769,145.904272 C132.439769,146.031696 132.387301,146.177855 132.282364,146.342756 L127.402827,154.426598 L127.402827,160.464182 C127.402827,160.711534 127.36535,160.872684 127.290395,160.947639 C127.237927,160.992612 127.134865,161.033836 126.981208,161.071314 C126.82755,161.108791 126.608311,161.12753 126.323482,161.12753 Z M141.063283,161.037584 C140.755968,161.037584 140.544224,161.018846 140.428044,160.981368 C140.311864,160.943891 140.231288,160.902666 140.186315,160.857694 C140.09637,160.752757 140.051397,160.591606 140.051397,160.374237 L140.051397,146.185352 C140.051397,145.982974 140.07201,145.842435 140.113235,145.763733 C140.15446,145.68503 140.259395,145.625067 140.428044,145.583842 C140.596692,145.542617 140.815932,145.522004 141.085769,145.522004 C141.475535,145.522004 141.737873,145.55386 141.872792,145.617571 C142.00771,145.681283 142.086412,145.754363 142.108898,145.836813 C142.131385,145.919264 142.142628,146.035442 142.142628,146.185352 L142.142628,159.238677 L148.798587,159.238677 C148.92601,159.238677 149.01408,159.248046 149.062801,159.266784 C149.111522,159.285523 149.147125,159.306135 149.169611,159.328622 C149.229575,159.388586 149.259557,159.512259 149.259557,159.699647 C149.259557,159.894529 149.242692,160.102526 149.208962,160.323643 C149.175233,160.54476 149.128387,160.707784 149.068423,160.812721 C149.008459,160.902667 148.929757,160.96263 148.832316,160.992612 C148.734875,161.022594 148.599958,161.037584 148.427562,161.037584 L141.063283,161.037584 Z M152.07035,161.12753 C151.703071,161.12753 151.450102,161.097548 151.311436,161.037584 C151.172769,160.97762 151.095942,160.904541 151.080951,160.818342 C151.06596,160.732144 151.058465,160.614092 151.058465,160.464182 L151.058465,146.185352 C151.058465,145.982974 151.079077,145.844309 151.120302,145.769354 C151.161527,145.694399 151.266462,145.634436 151.435111,145.589464 C151.603759,145.544491 151.815504,145.522004 152.07035,145.522004 C152.347683,145.522004 152.561301,145.540743 152.711211,145.57822 C152.861121,145.615698 152.962308,145.656922 153.014777,145.701895 C153.089732,145.77685 153.127208,145.938001 153.127208,146.185352 L153.127208,160.464182 C153.127208,160.711534 153.089732,160.872684 153.014777,160.947639 C152.962308,160.992612 152.861121,161.033836 152.711211,161.071314 C152.561301,161.108791 152.347683,161.12753 152.07035,161.12753 Z M157.624478,161.12753 C157.242208,161.12753 156.981744,161.097548 156.843077,161.037584 C156.704411,160.97762 156.627583,160.904541 156.612592,160.818342 C156.597601,160.732144 156.590106,160.614092 156.590106,160.464182 L156.590106,146.275297 C156.590106,146.057928 156.642574,145.896777 156.74751,145.791841 C156.807474,145.731877 156.901167,145.686905 157.02859,145.656923 C157.156013,145.626941 157.347145,145.61195 157.601992,145.61195 L165.314809,145.61195 C165.47971,145.61195 165.603383,145.641931 165.685834,145.701895 C165.745797,145.761859 165.775779,145.885533 165.775779,146.07292 C165.775779,146.252812 165.757041,146.457061 165.719563,146.685673 C165.682086,146.914285 165.637113,147.07731 165.584645,147.174751 C165.524681,147.264697 165.44598,147.326534 165.348538,147.360263 C165.251097,147.393993 165.11618,147.410858 164.943784,147.410858 L158.681336,147.410858 L158.681336,151.986829 L164.280437,151.986829 C164.460329,151.986829 164.580255,152.016811 164.640218,152.076775 C164.707678,152.144234 164.741407,152.267908 164.741407,152.4478 C164.741407,152.627691 164.722669,152.83194 164.685191,153.060553 C164.647714,153.289165 164.600868,153.452189 164.544651,153.549631 C164.488435,153.647072 164.411608,153.710783 164.314166,153.740765 C164.216725,153.770746 164.081808,153.785737 163.909412,153.785737 L158.681336,153.785737 L158.681336,160.464182 C158.681336,160.674056 158.65885,160.816468 158.613877,160.891423 C158.568904,160.966378 158.462095,161.024467 158.293447,161.065692 C158.124798,161.106917 157.901811,161.12753 157.624478,161.12753 Z M168.631545,161.037584 C168.32423,161.037584 168.112486,161.018846 167.996306,160.981368 C167.880126,160.943891 167.79955,160.902666 167.754578,160.857694 C167.664632,160.752757 167.619659,160.591606 167.619659,160.374237 L167.619659,146.275297 C167.619659,146.042937 167.672127,145.874291 167.777064,145.769354 C167.882001,145.664418 168.166825,145.61195 168.631545,145.61195 L176.569226,145.61195 C176.696649,145.61195 176.78472,145.621319 176.83344,145.640058 C176.882161,145.658797 176.917764,145.679409 176.940251,145.701895 C177.000214,145.761859 177.030196,145.885533 177.030196,146.07292 C177.030196,146.297785 177.013331,146.513277 176.979602,146.719403 C176.945872,146.925528 176.902774,147.07731 176.850305,147.174751 C176.790341,147.264697 176.71164,147.326534 176.614199,147.360263 C176.516757,147.393993 176.38184,147.410858 176.209444,147.410858 L169.71089,147.410858 L169.71089,151.761966 L175.534854,151.761966 C175.662277,151.761966 175.750348,151.771335 175.799068,151.790074 C175.847789,151.808813 175.883392,151.829425 175.905879,151.851911 C175.965842,151.911875 175.995824,152.035549 175.995824,152.222936 C175.995824,152.440305 175.978959,152.655797 175.94523,152.869419 C175.9115,153.08304 175.866528,153.234821 175.810312,153.324767 C175.754095,153.414713 175.675394,153.474676 175.574205,153.504658 C175.473016,153.53464 175.336225,153.549631 175.163829,153.549631 L169.71089,153.549631 L169.71089,159.238677 L176.692901,159.238677 C176.872792,159.238677 176.992718,159.268658 177.052682,159.328622 C177.112646,159.388586 177.142628,159.512259 177.142628,159.699647 C177.142628,159.894529 177.127637,160.102526 177.097655,160.323643 C177.067673,160.54476 177.022701,160.707784 176.962737,160.812721 C176.902773,160.902667 176.824072,160.96263 176.72663,160.992612 C176.629189,161.022594 176.494272,161.037584 176.321876,161.037584 L168.631545,161.037584 Z" id="TUI-FAMILY-LIFE" fill="#FFFFFF"></path>
            </g>
        </g>
    </g>
</svg>