<?xml version="1.0" encoding="utf-8"?>
<!-- Generator: Adobe Illustrator 20.1.0, SVG Export Plug-In . SVG Version: 6.00 Build 0)  -->
<svg version="1.1" id="Layer_1" xmlns="http://www.w3.org/2000/svg" xmlns:xlink="http://www.w3.org/1999/xlink" x="0px" y="0px"
	 width="120px" height="120px" viewBox="0 0 120 120" style="enable-background:new 0 0 120 120;" xml:space="preserve">
<style type="text/css">
	.st0{fill:none;}
</style>
<path d="M22.8,94.6c0,0-0.1-0.1-0.1-0.3v-6.8h-2.5c-0.1,0-0.2,0-0.2-0.1c0,0-0.1-0.1-0.1-0.2c0-0.2,0-0.5,0.1-0.6
	c0.1-0.1,0.2-0.1,0.4-0.1h5.9c0.1,0,0.2,0,0.2,0c0,0,0.1,0.1,0.1,0.2c0,0.2,0,0.5-0.1,0.6c-0.1,0.1-0.2,0.1-0.4,0.1h-2.3v6.8
	c0,0.1,0,0.2-0.1,0.3c0,0-0.2,0.1-0.5,0.1C23.1,94.7,22.9,94.7,22.8,94.6"/>
<path d="M27.6,92.2V87c0-0.1,0-0.2,0.1-0.3c0.1,0,0.2-0.1,0.5-0.1c0.3,0,0.4,0,0.5,0.1c0,0,0.1,0.1,0.1,0.3v5.3c0,0.9,0.6,1.6,2,1.6
	c1.4,0,2-0.8,2-1.6V87c0-0.3,0.1-0.3,0.6-0.3c0.6,0,0.5,0.1,0.6,0.3v5.2c0,1.6-0.9,2.7-3.2,2.7C28.5,94.9,27.6,93.7,27.6,92.2"/>
<path d="M35.8,94.4V87c0-0.1,0-0.2,0-0.2c0.1-0.1,0.2-0.1,0.5-0.1c0.3,0,0.5,0,0.5,0.1c0,0,0.1,0.1,0.1,0.3v7.4c0,0.1,0,0.2-0.1,0.3
	c-0.1,0-0.2,0.1-0.5,0.1C35.7,94.7,35.8,94.6,35.8,94.4"/>
<path d="M42.1,94.6c0,0-0.1-0.1-0.1-0.3v-6.9l-0.3-0.4c-0.1-0.1-0.1-0.2-0.1-0.3c0-0.1,0.2-0.2,0.7-0.2c0.4,0,0.6,0,0.8,0.2l2.7,3.9
	l2.5-3.9c0.1-0.2,0.2-0.2,0.6-0.2c0.2,0,0.4,0,0.4,0.1c0.1,0.1,0.1,0.1,0.1,0.3v7.4c0,0.3-0.1,0.3-0.6,0.3c-0.3,0-0.4,0-0.5-0.1
	c0,0-0.1-0.1-0.1-0.3v-5.8l-1.9,3c0,0,0,0.1-0.1,0.1l0,0c-0.1,0.1-0.2,0.1-0.5,0.1c-0.3,0-0.4,0-0.5-0.1c-0.1-0.1-0.1-0.1-0.1-0.2
	l-1.9-2.9v5.6c0,0.1,0,0.2-0.1,0.3c-0.1,0-0.2,0.1-0.5,0.1C42.3,94.7,42.2,94.7,42.1,94.6"/>
<path d="M50.5,94.6c0,0,0-0.1,0-0.1c0,0,0-0.1,0.1-0.3l2.8-7.5c0-0.2,0.2-0.2,0.6-0.2c0.5,0,0.6,0.1,0.7,0.2l2.8,7.6
	c0,0,0,0.1,0,0.1c0,0,0,0.1-0.1,0.1c0,0-0.2,0.1-0.5,0.1c-0.3,0-0.4,0-0.5-0.1c0,0-0.1-0.1-0.1-0.3l-0.7-1.9h-3.2l-0.7,1.9
	c0,0.1-0.1,0.2-0.1,0.2c0,0.1-0.2,0.1-0.5,0.1C50.6,94.7,50.5,94.7,50.5,94.6 M52.6,91.6h2.6l-1.3-3.7L52.6,91.6z"/>
<path d="M57.9,90.7c0-2.7,1.6-4.2,3.9-4.2c0.6,0,1,0,1.3,0.1c0.3,0.1,0.6,0.2,0.8,0.3c0.3,0.1,0.4,0.2,0.4,0.3c0,0.1,0,0.2-0.1,0.4
	c-0.2,0.3-0.3,0.4-0.4,0.4c0,0-0.1,0-0.2-0.1c-0.1-0.1-0.3-0.2-0.5-0.2c-0.3-0.1-0.6-0.2-1.3-0.2c-1.7,0-2.6,1.2-2.6,3.2
	c0,2,1.1,3.2,2.7,3.2c0.4,0,0.7,0,1-0.1c0.2,0,0.4-0.1,0.6-0.2v-2.2h-1.6c-0.2,0-0.3-0.1-0.3-0.2c0-0.2,0-0.5,0.1-0.6
	c0.1-0.1,0.2-0.1,0.4-0.1h2c0.3,0,0.4,0,0.5,0.1c0.1,0.1,0.1,0.1,0.1,0.3V94c0,0.2-0.1,0.3-0.4,0.5c-0.2,0.1-0.3,0.1-0.5,0.2
	c-0.2,0-0.5,0.1-0.8,0.1c-0.3,0-0.7,0.1-1,0.1C59.4,94.9,57.9,93.3,57.9,90.7"/>
<path d="M66.2,94.4V87c0-0.1,0-0.2,0-0.2c0-0.1,0.2-0.1,0.5-0.1c0.3,0,0.5,0,0.5,0.1c0,0,0.1,0.1,0.1,0.3v7.4c0,0.1,0,0.2-0.1,0.3
	c-0.1,0-0.2,0.1-0.5,0.1C66.1,94.7,66.2,94.6,66.2,94.4"/>
<path d="M68.8,90.7c0-2.7,1.7-4.2,3.7-4.2c0.5,0,1,0,1.2,0.1c0.3,0.1,0.5,0.2,0.8,0.3c0.3,0.1,0.4,0.2,0.4,0.3
	c0,0.1-0.1,0.3-0.1,0.4c-0.2,0.3-0.3,0.3-0.3,0.3c0,0-0.1,0-0.2-0.1c-0.1,0-0.5-0.4-1.7-0.4c-1.5,0-2.5,1.2-2.5,3.2
	c0,2,1.1,3.2,2.5,3.2c0.3,0,0.6,0,0.9-0.1c0.5-0.1,0.8-0.3,0.8-0.3c0.1,0,0.2-0.1,0.3-0.1c0.1,0,0.2,0.1,0.3,0.3
	C75,93.9,75,94,75,94.1c0,0.1-0.1,0.2-0.4,0.3c-0.4,0.2-1.2,0.4-2.2,0.4C70.4,94.9,68.8,93.3,68.8,90.7"/>
<path d="M79.9,94.7c-0.3,0-0.4,0-0.5-0.1c-0.1-0.1-0.1-0.1-0.1-0.3V87c0-0.3,0.1-0.3,0.6-0.3c0.7,0,0.6,0.1,0.6,0.3v6.8h3.7
	c0.1,0,0.2,0,0.2,0c0,0,0,0.1,0,0.2c0,0.2,0,0.5-0.1,0.6c-0.1,0.1-0.2,0.1-0.4,0.1H79.9z"/>
<path d="M85.4,94.4V87c0-0.1,0-0.2,0-0.2c0.1-0.1,0.2-0.1,0.5-0.1c0.3,0,0.5,0,0.5,0.1c0,0,0.1,0.1,0.1,0.3v7.4c0,0.1,0,0.2-0.1,0.3
	c-0.1,0-0.2,0.1-0.5,0.1C85.3,94.7,85.4,94.6,85.4,94.4"/>
<path d="M88.5,94.4V87c0-0.1,0-0.2,0.1-0.3c0.1-0.1,0.2-0.1,0.5-0.1h4.3c0.1,0,0.2,0,0.2,0c0,0,0.1,0.1,0.1,0.2
	c0,0.2-0.1,0.5-0.1,0.6c-0.1,0.1-0.2,0.1-0.4,0.1h-3.5V90h3.1c0.1,0,0.2,0,0.2,0c0,0,0.1,0.1,0.1,0.2c0,0.2,0,0.5-0.1,0.6
	c-0.1,0.1-0.2,0.1-0.3,0.1h-2.9v3.5c0,0.3-0.1,0.3-0.6,0.3C88.4,94.7,88.5,94.6,88.5,94.4"/>
<path d="M95.1,94.7c-0.3,0-0.4,0-0.5-0.1c-0.1-0.1-0.1-0.1-0.1-0.3V87c0-0.1,0-0.2,0.1-0.3c0.1-0.1,0.2-0.1,0.5-0.1h4.4
	c0.1,0,0.2,0,0.2,0c0,0,0,0.1,0,0.2c0,0.2,0,0.5-0.1,0.6c-0.1,0.1-0.2,0.1-0.4,0.1h-3.6v2.3h3.2c0.1,0,0.2,0,0.2,0c0,0,0,0.1,0,0.2
	c0,0.2,0,0.5-0.1,0.6c-0.1,0.1-0.2,0.1-0.4,0.1h-3v3h3.9c0.2,0,0.2,0,0.2,0.2c0,0.2,0,0.5-0.1,0.6c-0.1,0.1-0.2,0.1-0.4,0.1H95.1z"
	/>
<path d="M60.9,38.6c1.6-1.9,4.7-5.3,6.2-7.1c0.3-0.4,0.8-0.9,1-0.9c0.2,0,0.3,0.6,0.3,1c0.3,2.1,1.2,7.8,1.4,8.4
	c0.2,1.4,1,2.1,2.3,1.9c1.3-0.2,1.4-1.5,1.4-2.3c-0.1-0.8-0.8-10.7-1-13c-0.2-2.4-0.9-3.5-2.3-3.8c-1.4-0.3-3,0.3-4.4,2.2
	c-1.5,2-7.8,10.4-8.2,10.9c-0.5,0.7-1.1,0.9-2,0.7c-0.7-0.2-10.7-2.8-13.8-3.6c-2.4-0.6-4.1-0.1-4.9,0.8c-0.7,0.9-0.8,2.4,0.7,4.4
	c2,2.7,7.2,9.5,8.1,10.8c0.5,0.7,1.6,1.5,2.7,0.7c1.1-0.8,0.8-1.8,0.2-2.7c-0.7-1-3.5-5.5-4.7-7.3c-0.2-0.4-0.5-0.8-0.4-1
	c0.1-0.1,0.8,0,1.4,0.1c2,0.4,7,1.3,9.3,1.7c1.6,0.3,2.7,0.5,3.7,0.2C59,40.6,60,39.6,60.9,38.6"/>
<path d="M70.4,60.9c0,2.4,0,6.9,0,9.2c0,0.5,0,1.2-0.1,1.3c-0.2,0.1-0.6-0.3-0.9-0.6c-1.7-1.4-6.2-5.2-6.8-5.7c-1.1-0.9-2.2-1-3-0.1
	c-0.8,0.9-0.1,2,0.5,2.6c0.6,0.6,7.9,7.8,9.6,9.4c1.8,1.8,3.1,2.2,4.4,1.5c1.2-0.6,2.1-2,1.9-4.4c-0.2-2.4-1-12.7-1.1-13.3
	c0-0.9,0.2-1.4,1-1.7c0.6-0.3,10.1-4.3,13-5.5c2.3-1,3.3-2.4,3.2-3.5c-0.1-1.1-1-2.4-3.5-3c-3.4-0.9-12-3-13.6-3.4
	c-0.9-0.2-2.2-0.2-2.6,1.1C72.1,46,73,46.6,74,47c1.2,0.4,6.5,2.1,8.6,2.9c0.4,0.1,1,0.3,1,0.5c0,0.2-0.6,0.5-1.1,0.7
	c-1.8,0.9-6.2,3.2-8.3,4.3c-1.4,0.7-2.5,1.3-3,2C70.5,58.2,70.4,59.6,70.4,60.9"/>
<path d="M34.7,63.4c-1.7,1.8-1.8,3.6-1.3,4.6c0.6,1,1.9,1.8,4.5,1.3c2.9-0.5,10.3-1.9,11.6-2.1c1.3-0.2,2.2-0.9,2-2.2
	c-0.2-1.2-1.6-1.3-2.8-1.2c-0.8,0.1-5.7,0.5-6.7,0.6c-0.5,0-1,0.1-1.1-0.1c-0.1-0.2,0.3-0.7,0.6-1.1c0.2-0.3,5.6-7.5,6.4-8.5
	c0.7-1,0.6-1.9-0.2-2.5c-1-0.7-2-0.3-2.7,0.5C44.2,53.5,36.3,61.7,34.7,63.4"/>
<rect x="6.8" y="10.6" class="st0" width="106.2" height="99.5"/>
</svg>
