<?xml version="1.0" encoding="utf-8"?>
<!-- Generator: Adobe Illustrator 21.0.0, SVG Export Plug-In . SVG Version: 6.00 Build 0)  -->
<svg version="1.1" id="Layer_1" xmlns="http://www.w3.org/2000/svg" xmlns:xlink="http://www.w3.org/1999/xlink" x="0px" y="0px"
	 viewBox="0 0 120 120" style="enable-background:new 0 0 120 120;" xml:space="preserve">
<style type="text/css">
	.st0{fill:#FFFFFF;}
</style>
<title>Premiere</title>
<g>
	<path class="st0" d="M42.1,54.3c-0.1,0.2-0.1,0.4-0.2,0.5c-0.1,0.1-0.2,0.1-0.4,0.1h-2.9l-1.1,4.3H40c0.1,0,0.2,0,0.2,0
		c0.1,0,0.1,0,0.2,0c0.1,0,0.1,0.1,0.2,0.2c0,0.1,0,0.3,0,0.5c-0.1,0.2-0.1,0.4-0.2,0.5c-0.1,0.1-0.2,0.1-0.4,0.1h-2.9l-1.4,5.1
		c-0.1,0.2-0.1,0.3-0.3,0.4c-0.1,0-0.4,0.1-0.7,0.1c-0.3,0-0.5,0-0.6-0.1C34,66.1,34,66,34,65.9c0-0.1,0-0.2,0-0.3
		c0-0.1,0-0.2,0.1-0.3l1.2-4.7h-3.4l-1.4,5.1c-0.1,0.2-0.1,0.3-0.3,0.4c-0.1,0-0.4,0.1-0.7,0.1c-0.3,0-0.5,0-0.6-0.1
		c-0.1,0-0.2-0.1-0.2-0.2c0-0.1,0-0.2,0-0.3c0-0.1,0-0.2,0.1-0.3l1.2-4.7h-2.5c-0.1,0-0.2,0-0.2,0s-0.1,0-0.2,0
		c-0.1,0-0.1-0.1-0.2-0.2c0-0.1,0-0.3,0-0.5c0.1-0.2,0.1-0.4,0.2-0.5c0.1-0.1,0.2-0.1,0.4-0.1h2.9l1.1-4.3h-2.5c-0.1,0-0.2,0-0.2,0
		c-0.1,0-0.1,0-0.2,0c-0.1,0-0.1-0.1-0.2-0.2c0-0.1,0-0.3,0-0.5c0.1-0.2,0.1-0.4,0.2-0.5c0.1-0.1,0.2-0.1,0.4-0.1H32l1.4-5.1
		c0.1-0.2,0.1-0.3,0.3-0.4c0.1,0,0.4-0.1,0.7-0.1s0.5,0,0.6,0.1c0.1,0,0.2,0.1,0.2,0.2c0,0.1,0,0.2,0,0.3c0,0.1,0,0.2-0.1,0.3
		l-1.2,4.7h3.4l1.4-5.1c0.1-0.2,0.1-0.3,0.3-0.4c0.1,0,0.4-0.1,0.7-0.1c0.3,0,0.5,0,0.6,0.1c0.1,0,0.2,0.1,0.2,0.2
		c0,0.1,0,0.2,0,0.3c0,0.1,0,0.2-0.1,0.3l-1.2,4.7h2.6c0.1,0,0.2,0,0.2,0c0.1,0,0.1,0,0.2,0c0.1,0,0.1,0.1,0.2,0.2
		C42.2,53.9,42.1,54.1,42.1,54.3z M36.8,55h-3.4l-1.1,4.3h3.4L36.8,55z"/>
	<path class="st0" d="M58.3,65.7c0,0.2-0.1,0.4-0.2,0.5c-0.1,0-0.2,0.1-0.3,0.1c-0.1,0-0.3,0.1-0.6,0.1c-0.3,0-0.5,0-0.7-0.1
		c-0.1-0.1-0.3-0.2-0.4-0.4l-8.9-14.7v14.6c0,0.2-0.1,0.4-0.2,0.5c-0.1,0-0.1,0.1-0.3,0.1c-0.1,0-0.3,0.1-0.6,0.1
		c-0.3,0-0.5,0-0.6-0.1c-0.1,0-0.2-0.1-0.2-0.1c-0.1-0.1-0.1-0.2-0.1-0.5V48.5l-0.5-0.8c-0.1-0.1-0.1-0.2-0.2-0.3
		c0-0.1-0.1-0.2-0.1-0.3c0-0.1,0.1-0.2,0.2-0.3c0.1-0.1,0.4-0.1,0.9-0.1c0.4,0,0.8,0,0.9,0.1c0.2,0.1,0.3,0.2,0.5,0.4l9.3,15.3V47.4
		c0-0.2,0-0.4,0.1-0.5c0.1,0,0.1-0.1,0.3-0.1c0.1,0,0.3-0.1,0.6-0.1c0.3,0,0.5,0,0.6,0.1c0.1,0,0.2,0.1,0.2,0.1
		c0.1,0.1,0.2,0.3,0.2,0.5V65.7z"/>
	<path class="st0" d="M76.7,65.9c0,0.1-0.1,0.2-0.2,0.3c-0.1,0-0.2,0.1-0.3,0.1c-0.2,0-0.4,0-0.8,0c-0.4,0-0.7,0-0.9-0.1
		c-0.2-0.1-0.3-0.2-0.4-0.4l-5.2-8c-0.7,0-1.4,0-1.9,0c-0.6,0-1.1,0-1.6-0.1v7.9c0,0.2-0.1,0.4-0.2,0.5c-0.1,0-0.1,0.1-0.3,0.1
		c-0.1,0-0.3,0.1-0.6,0.1c-0.3,0-0.5,0-0.6-0.1c-0.1,0-0.2-0.1-0.3-0.1c-0.1-0.1-0.1-0.2-0.1-0.5v-18c0-0.3,0.1-0.5,0.2-0.6
		c0.1-0.1,0.1-0.1,0.3-0.1c0.1,0,0.3-0.1,0.6-0.1h4.7c2.2,0,3.8,0.4,4.8,1.3s1.5,2.2,1.5,3.9c0,0.7-0.1,1.3-0.2,1.8
		c-0.1,0.6-0.4,1.1-0.7,1.6c-0.3,0.5-0.8,0.9-1.4,1.3c-0.6,0.4-1.3,0.7-2.1,0.9l5.5,7.9C76.6,65.7,76.7,65.8,76.7,65.9z M73.3,52.3
		c0-1.2-0.3-2-1-2.7c-0.7-0.6-1.8-1-3.3-1h-3.6V56c0.4,0,0.9,0,1.5,0.1c0.6,0,1.1,0,1.7,0c1.7,0,2.9-0.3,3.7-1
		C72.9,54.4,73.3,53.5,73.3,52.3z"/>
	<path class="st0" d="M93.1,64.6c0,0.3-0.1,0.5-0.2,0.7c-0.1,0.1-0.3,0.3-0.6,0.4c-0.3,0.1-0.8,0.3-1.7,0.6
		c-0.9,0.2-2.1,0.4-3.6,0.4c-1.2,0-2.4-0.2-3.4-0.7c-1-0.4-1.9-1.1-2.7-1.9c-0.8-0.9-1.3-1.9-1.8-3.2c-0.4-1.3-0.6-2.7-0.6-4.3
		c0-1.6,0.2-3,0.6-4.3c0.4-1.3,1-2.3,1.8-3.2c0.8-0.9,1.7-1.5,2.7-1.9c1-0.4,2.2-0.7,3.4-0.7s2.2,0.1,3,0.3c0.8,0.2,1.4,0.4,1.9,0.6
		c0.2,0.1,0.4,0.2,0.4,0.3c0.1,0.1,0.1,0.2,0.1,0.3c0,0.1,0,0.2-0.1,0.3c0,0.1-0.1,0.3-0.2,0.5c-0.2,0.4-0.4,0.6-0.6,0.6
		c-0.2,0-0.3-0.1-0.5-0.2c-0.2-0.1-0.5-0.2-0.8-0.3c-0.3-0.1-0.7-0.2-1.2-0.4c-0.5-0.1-1.2-0.2-2.1-0.2c-2,0-3.6,0.7-4.7,2.2
		c-1.1,1.5-1.6,3.5-1.6,6.1c0,1.3,0.2,2.4,0.5,3.5s0.8,1.9,1.3,2.6s1.2,1.2,2,1.6s1.6,0.5,2.6,0.5c0.9,0,1.7-0.1,2.3-0.2
		c0.6-0.1,1.1-0.3,1.5-0.4v-5.9h-3.8c-0.2,0-0.3,0-0.3-0.1c0,0-0.1-0.1-0.1-0.1c0,0,0-0.1,0-0.3c0-0.2,0-0.3,0-0.4
		c0-0.1,0-0.3,0.1-0.3c0.1-0.2,0.1-0.4,0.2-0.5c0.1-0.1,0.2-0.1,0.4-0.1h4.5c0.3,0,0.5,0,0.6,0.1c0.1,0,0.2,0.1,0.3,0.1
		c0.1,0.1,0.2,0.3,0.2,0.6V64.6z"/>
</g>
</svg>
