<?xml version="1.0" encoding="UTF-8" standalone="no"?>
<svg width="120px" height="120px" viewBox="0 0 120 120" version="1.1" xmlns="http://www.w3.org/2000/svg" xmlns:xlink="http://www.w3.org/1999/xlink">
    <!-- Generator: Sketch 44.1 (41455) - http://www.bohemiancoding.com/sketch -->
    <title>platinum</title>
    <desc>Created with Sketch.</desc>
    <defs></defs>
    <g id="Symbols" stroke="none" stroke-width="1" fill="none" fill-rule="evenodd">
        <g id="platinum">
            <rect id="Rectangle-4" x="0" y="0" width="120" height="120"></rect>
            <path d="M37.7182617,65.0546875 C37.4949533,65.0546875 37.3411463,65.0364585 37.2568359,65 C37.1725256,64.9635415 37.1258138,64.9191083 37.1166992,64.8666992 C37.1075846,64.8142901 37.1030273,64.7425135 37.1030273,64.6513672 L37.1030273,56.0244141 C37.1030273,55.8831373 37.1349281,55.7805993 37.1987305,55.7167969 C37.2625329,55.6529945 37.4357082,55.6210938 37.7182617,55.6210938 L39.8442383,55.6210938 C40.3774441,55.6210938 40.8548156,55.6746414 41.2763672,55.7817383 C41.6979188,55.8888352 42.053384,56.0506174 42.3427734,56.2670898 C42.6321629,56.4835623 42.8531893,56.7547184 43.0058594,57.0805664 C43.1585294,57.4064144 43.2348633,57.7880837 43.2348633,58.2255859 C43.2348633,58.6220723 43.1699225,58.9934879 43.0400391,59.3398438 C42.9101556,59.6861996 42.7050795,59.9881172 42.4248047,60.2456055 C42.1445298,60.5030937 41.786786,60.7070305 41.3515625,60.8574219 C40.916339,61.0078133 40.3956736,61.0830078 39.7895508,61.0830078 C39.2153292,61.0830078 38.7390969,61.0670575 38.3608398,61.0351562 L38.3608398,64.6513672 C38.3608398,64.8017586 38.3380536,64.8997394 38.2924805,64.9453125 C38.2605793,64.9726564 38.1990564,64.9977212 38.1079102,65.0205078 C38.0167639,65.0432944 37.8868824,65.0546875 37.7182617,65.0546875 Z M39.7075195,60.0029297 C40.076662,60.0029297 40.3990872,59.9596358 40.6748047,59.8730469 C40.9505222,59.7864579 41.1806631,59.6656909 41.3652344,59.5107422 C41.5498056,59.3557935 41.6876623,59.1700857 41.7788086,58.9536133 C41.8699549,58.7371408 41.9155273,58.4990247 41.9155273,58.2392578 C41.9155273,57.7379532 41.742352,57.3528659 41.3959961,57.0839844 C41.0496402,56.8151028 40.5278355,56.6806641 39.8305664,56.6806641 L38.3608398,56.6806641 L38.3608398,59.9755859 C38.7390969,59.9938152 39.1879857,60.0029297 39.7075195,60.0029297 Z M45.012207,65.0546875 C44.8709303,65.0546875 44.7604171,65.045573 44.6806641,65.0273438 C44.6009111,65.0091145 44.5473634,64.9863283 44.5200195,64.9589844 C44.4653318,64.9179685 44.4379883,64.824545 44.4379883,64.6787109 L44.4379883,56.1269531 C44.4379883,55.9492179 44.469889,55.8307295 44.5336914,55.7714844 C44.5883792,55.7167966 44.7478828,55.6621096 45.012207,55.6074219 C45.1489265,55.580078 45.2560217,55.5664062 45.3334961,55.5664062 C45.4428716,55.5664062 45.513509,55.5755207 45.5454102,55.59375 C45.6000979,55.6347658 45.6274414,55.7281894 45.6274414,55.8740234 L45.6274414,64.6650391 C45.6274414,64.8108731 45.6000979,64.9042967 45.5454102,64.9453125 C45.513509,64.9726564 45.4565434,64.9977212 45.3745117,65.0205078 C45.2924801,65.0432944 45.171713,65.0546875 45.012207,65.0546875 Z M48.6967773,65.1367188 C48.459797,65.1367188 48.2273774,65.1025394 47.9995117,65.0341797 C47.771646,64.96582 47.5677092,64.8575854 47.3876953,64.7094727 C47.2076814,64.5613599 47.0629888,64.3699556 46.9536133,64.1352539 C46.8442377,63.9005522 46.7895508,63.614585 46.7895508,63.2773438 C46.7895508,62.7805965 46.9091785,62.3784195 47.1484375,62.0708008 C47.3876965,61.7631821 47.6907534,61.5501308 48.0576172,61.4316406 C48.424481,61.3131504 48.7810855,61.2379559 49.1274414,61.2060547 L50.6791992,61.0693359 L50.6791992,60.9257812 C50.6791992,60.675129 50.6153978,60.4518239 50.487793,60.2558594 C50.3601882,60.0598949 50.1881521,59.9243168 49.9716797,59.8491211 C49.7552073,59.7739254 49.5307629,59.7363281 49.2983398,59.7363281 C49.0157863,59.7363281 48.7594413,59.7727861 48.5292969,59.8457031 C48.2991525,59.9186202 48.026857,60.0257154 47.7124023,60.1669922 C47.6212561,60.2171226 47.5278325,60.2421875 47.4321289,60.2421875 C47.3683265,60.2421875 47.3102216,60.2091475 47.2578125,60.1430664 C47.2054034,60.0769853 47.156413,59.9983729 47.1108398,59.9072266 C47.0470374,59.7659498 47.0151367,59.6474614 47.0151367,59.5517578 C47.0151367,59.49707 47.0413409,59.4435224 47.09375,59.3911133 C47.1461591,59.3387042 47.2452792,59.276042 47.3911133,59.203125 C47.618979,59.0891921 47.8354482,59.0014652 48.0405273,58.9399414 C48.2456065,58.8784177 48.4643543,58.8328452 48.6967773,58.8032227 C48.9292004,58.7736001 49.1616199,58.7587891 49.394043,58.7587891 C49.7768574,58.7587891 50.1209295,58.8111974 50.4262695,58.9160156 C50.7316096,59.0208339 50.9936512,59.1826161 51.2124023,59.4013672 C51.4129242,59.6064463 51.5633133,59.8593735 51.6635742,60.1601562 C51.7638351,60.460939 51.8139648,60.8323546 51.8139648,61.2744141 L51.8139648,63.796875 C51.8139648,63.9518237 51.8299152,64.0874018 51.8618164,64.2036133 C51.8937176,64.3198248 51.9210611,64.4029945 51.9438477,64.453125 C51.9985354,64.5989591 52.0258789,64.6832681 52.0258789,64.7060547 C52.0258789,64.8199875 51.9199229,64.9134111 51.7080078,64.9863281 C51.4960927,65.0592452 51.3308925,65.0957031 51.2124023,65.0957031 C51.1577146,65.0957031 51.1121421,65.0831707 51.0756836,65.0581055 C51.0392251,65.0330402 51.0073244,64.995443 50.9799805,64.9453125 C50.8933915,64.8177077 50.8136397,64.5989599 50.7407227,64.2890625 C50.4444972,64.5852879 50.1277686,64.8006178 49.7905273,64.9350586 C49.4532861,65.0694994 49.0887064,65.1367188 48.6967773,65.1367188 Z M48.8608398,64.1728516 C49.065919,64.1728516 49.274413,64.1432295 49.4863281,64.0839844 C49.6982432,64.0247393 49.8999014,63.9210619 50.0913086,63.7729492 C50.2827158,63.6248365 50.4285477,63.4357108 50.5288086,63.2055664 C50.6290695,62.975422 50.6791992,62.7236342 50.6791992,62.4501953 L50.6791992,62.0058594 L49.1137695,62.1425781 C48.7491844,62.1790366 48.4620779,62.2838533 48.2524414,62.4570312 C48.0428049,62.6302092 47.9379883,62.8808577 47.9379883,63.2089844 C47.9379883,63.377605 47.9641924,63.5222976 48.0166016,63.6430664 C48.0690107,63.7638352 48.1373694,63.8640947 48.2216797,63.9438477 C48.30599,64.0236007 48.4039708,64.0817055 48.515625,64.1181641 C48.6272792,64.1546226 48.7423497,64.1728516 48.8608398,64.1728516 Z M55.4848633,65.1367188 C55.2023098,65.1367188 54.9596364,65.1014001 54.7568359,65.0307617 C54.5540354,64.9601233 54.3865567,64.8655605 54.2543945,64.7470703 C54.0766593,64.5921216 53.9524743,64.3904635 53.8818359,64.1420898 C53.8111976,63.8937162 53.7758789,63.5917987 53.7758789,63.2363281 L53.7758789,59.8730469 L52.9897461,59.8730469 C52.8712559,59.8730469 52.7926434,59.8639324 52.7539062,59.8457031 C52.7151691,59.8274739 52.6935222,59.8001304 52.6889648,59.7636719 C52.6844075,59.7272134 52.6821289,59.6702478 52.6821289,59.5927734 C52.6821289,59.3557931 52.7254227,59.1712246 52.8120117,59.0390625 C52.8484702,58.9798174 52.8917641,58.9410808 52.9418945,58.9228516 C52.992025,58.9046223 53.0694982,58.8955078 53.1743164,58.8955078 L53.7758789,58.8955078 L53.7758789,57.4394531 C53.7758789,57.2571605 53.8077796,57.1409508 53.871582,57.0908203 C53.9490564,57.0270179 54.10856,56.9700523 54.3500977,56.9199219 C54.4868171,56.892578 54.5939124,56.8789062 54.6713867,56.8789062 C54.7807623,56.8789062 54.8513996,56.8880207 54.8833008,56.90625 C54.9379886,56.9472658 54.965332,57.0406894 54.965332,57.1865234 L54.965332,58.8955078 L56.503418,58.8955078 C56.6446947,58.8955078 56.7312824,58.9114582 56.7631836,58.9433594 C56.7950848,58.9752606 56.8110352,59.0527338 56.8110352,59.1757812 C56.8110352,59.2942714 56.799642,59.4002274 56.7768555,59.4936523 C56.7540689,59.5870773 56.729004,59.6588539 56.7016602,59.7089844 C56.6333004,59.8183599 56.5079762,59.8730469 56.3256836,59.8730469 L54.965332,59.8730469 L54.965332,63.359375 C54.965332,63.6145846 55.016601,63.8094069 55.1191406,63.9438477 C55.2216802,64.0782884 55.389159,64.1455078 55.621582,64.1455078 C55.8357758,64.1455078 56.0568022,64.0885422 56.284668,63.9746094 C56.3393557,63.9472655 56.3883461,63.919922 56.4316406,63.8925781 C56.4749351,63.8652342 56.5284828,63.8515625 56.5922852,63.8515625 C56.6788741,63.8515625 56.7859694,63.9495433 56.9135742,64.1455078 C57.0047205,64.2913419 57.050293,64.4029944 57.050293,64.4804688 C57.050293,64.5579431 57.0115564,64.6285804 56.934082,64.6923828 C56.8566077,64.7561852 56.7745773,64.8131508 56.6879883,64.8632812 C56.5694981,64.9270837 56.4145517,64.9886065 56.2231445,65.0478516 C56.0317373,65.1070967 55.785646,65.1367188 55.4848633,65.1367188 Z M58.4516602,65.0546875 C58.3103834,65.0546875 58.1998702,65.045573 58.1201172,65.0273438 C58.0403642,65.0091145 57.9868165,64.9863283 57.9594727,64.9589844 C57.9047849,64.9179685 57.8774414,64.824545 57.8774414,64.6787109 L57.8774414,59.3740234 C57.8774414,59.2828771 57.8842773,59.2111005 57.8979492,59.1586914 C57.9116212,59.1062823 57.936686,59.0618491 57.9731445,59.0253906 C58.023275,58.9661455 58.1827786,58.90918 58.4516602,58.8544922 C58.5883796,58.8271483 58.6954749,58.8134766 58.7729492,58.8134766 C58.8868821,58.8134766 58.9575194,58.8271483 58.9848633,58.8544922 C59.0395511,58.895508 59.0668945,58.9843743 59.0668945,59.1210938 L59.0668945,64.6650391 C59.0668945,64.8108731 59.0395511,64.9042967 58.9848633,64.9453125 C58.9529621,64.9726564 58.8959965,64.9977212 58.8139648,65.0205078 C58.7319332,65.0432944 58.6111662,65.0546875 58.4516602,65.0546875 Z M58.465332,57.3984375 C58.319498,57.3984375 58.1816413,57.352865 58.0517578,57.2617188 C57.9218744,57.1705725 57.836426,57.0725917 57.7954102,56.9677734 C57.7543943,56.8629552 57.7338867,56.7581385 57.7338867,56.6533203 C57.7338867,56.5166009 57.7726233,56.3833014 57.8500977,56.253418 C57.927572,56.1235345 58.0221349,56.0323896 58.1337891,55.9799805 C58.2454433,55.9275714 58.3559565,55.9013672 58.465332,55.9013672 C58.5929368,55.9013672 58.7205397,55.9401038 58.8481445,56.0175781 C58.9757493,56.0950525 59.0668943,56.1941726 59.121582,56.3149414 C59.1762698,56.4357102 59.2036133,56.5485021 59.2036133,56.6533203 C59.2036133,56.7991544 59.1614588,56.9370111 59.0771484,57.0668945 C58.9928381,57.196778 58.8948573,57.284505 58.7832031,57.3300781 C58.6715489,57.3756513 58.5655929,57.3984375 58.465332,57.3984375 Z M61.2954102,65.0546875 C61.1541334,65.0546875 61.0436202,65.045573 60.9638672,65.0273438 C60.8841142,65.0091145 60.8305665,64.9863283 60.8032227,64.9589844 C60.7485349,64.9179685 60.7211914,64.824545 60.7211914,64.6787109 L60.7211914,59.3740234 C60.7211914,59.2828771 60.7280273,59.2111005 60.7416992,59.1586914 C60.7553712,59.1062823 60.780436,59.0618491 60.8168945,59.0253906 C60.867025,58.9661455 61.0265286,58.90918 61.2954102,58.8544922 C61.4321296,58.8271483 61.5392249,58.8134766 61.6166992,58.8134766 C61.7306321,58.8134766 61.8012694,58.8271483 61.8286133,58.8544922 C61.8833011,58.895508 61.9106445,58.9843743 61.9106445,59.1210938 L61.9106445,59.6542969 C62.0564786,59.4583324 62.2319326,59.2931322 62.4370117,59.1586914 C62.6420909,59.0242506 62.8642566,58.9239912 63.1035156,58.8579102 C63.3427746,58.7918291 63.5694976,58.7587891 63.7836914,58.7587891 C64.3396838,58.7587891 64.7897118,58.8806954 65.1337891,59.1245117 C65.4778663,59.368328 65.7057286,59.6691063 65.8173828,60.0268555 C65.929037,60.3846047 65.9848633,60.7320947 65.9848633,61.0693359 L65.9848633,64.6650391 C65.9848633,64.8108731 65.9575198,64.9042967 65.902832,64.9453125 C65.8709308,64.9726564 65.8139653,64.9977212 65.7319336,65.0205078 C65.6499019,65.0432944 65.5291349,65.0546875 65.3696289,65.0546875 C65.2283522,65.0546875 65.1178389,65.045573 65.0380859,65.0273438 C64.9583329,65.0091145 64.9047853,64.9863283 64.8774414,64.9589844 C64.8227536,64.9179685 64.7954102,64.824545 64.7954102,64.6787109 L64.7954102,61.2060547 C64.7954102,60.7275367 64.6848969,60.3720715 64.4638672,60.1396484 C64.2428374,59.9072254 63.9181337,59.7910156 63.4897461,59.7910156 C63.2755523,59.7910156 63.0727549,59.8354488 62.8813477,59.9243164 C62.6899404,60.013184 62.5224617,60.1328117 62.3789062,60.2832031 C62.2353508,60.4335945 62.1214197,60.6067699 62.0371094,60.8027344 C61.9527991,60.9986989 61.9106445,61.203775 61.9106445,61.4179688 L61.9106445,64.6650391 C61.9106445,64.8108731 61.8833011,64.9042967 61.8286133,64.9453125 C61.7967121,64.9726564 61.7397465,64.9977212 61.6577148,65.0205078 C61.5756832,65.0432944 61.4549162,65.0546875 61.2954102,65.0546875 Z M69.7514648,65.1367188 C69.391437,65.1367188 69.0747084,65.0797532 68.8012695,64.9658203 C68.5278307,64.8518875 68.298829,64.6923838 68.1142578,64.4873047 C67.9296866,64.2822255 67.7906906,64.0395522 67.6972656,63.7592773 C67.6038407,63.4790025 67.5571289,63.1702491 67.5571289,62.8330078 L67.5571289,59.2304688 C67.5571289,59.0983066 67.5844724,59.0048831 67.6391602,58.9501953 C67.666504,58.9228514 67.7223303,58.8977866 67.8066406,58.875 C67.8909509,58.8522134 68.0128573,58.8408203 68.1723633,58.8408203 C68.31364,58.8408203 68.4230139,58.8499348 68.5004883,58.8681641 C68.5779626,58.8863933 68.630371,58.9091796 68.6577148,58.9365234 C68.7169599,58.9820966 68.746582,59.0755201 68.746582,59.2167969 L68.746582,62.6894531 C68.746582,63.1634138 68.8650704,63.5177397 69.1020508,63.7524414 C69.3390311,63.9871431 69.6534811,64.1044922 70.0454102,64.1044922 C70.3507502,64.1044922 70.6344388,64.0099293 70.8964844,63.8208008 C71.15853,63.6316722 71.3465164,63.4140637 71.4604492,63.1679688 C71.5743821,62.9218738 71.6313477,62.6917328 71.6313477,62.4775391 L71.6313477,59.2304688 C71.6313477,59.0846347 71.6586911,58.9912111 71.7133789,58.9501953 C71.7407228,58.9228514 71.7965491,58.8977866 71.8808594,58.875 C71.9651697,58.8522134 72.087076,58.8408203 72.246582,58.8408203 C72.3878588,58.8408203 72.4972327,58.8499348 72.574707,58.8681641 C72.6521814,58.8863933 72.7045897,58.9091796 72.7319336,58.9365234 C72.7911787,58.9820966 72.8208008,59.0755201 72.8208008,59.2167969 L72.8208008,64.6787109 C72.8208008,64.8063157 72.7911787,64.8997393 72.7319336,64.9589844 C72.7045897,64.9863283 72.6578779,65.0091145 72.5917969,65.0273438 C72.5257158,65.045573 72.4197598,65.0546875 72.2739258,65.0546875 C72.1280917,65.0546875 72.0187178,65.045573 71.9458008,65.0273438 C71.8728837,65.0091145 71.822754,64.9863283 71.7954102,64.9589844 C71.7407224,64.9179685 71.7133789,64.8199878 71.7133789,64.6650391 L71.7133789,64.1181641 C71.5766595,64.3369152 71.3909517,64.5305981 71.15625,64.6992188 C70.9215483,64.8678394 70.6800143,64.9829098 70.4316406,65.0444336 C70.183267,65.1059573 69.956544,65.1367188 69.7514648,65.1367188 Z M75.0493164,65.0546875 C74.9080397,65.0546875 74.7975264,65.045573 74.7177734,65.0273438 C74.6380204,65.0091145 74.5844728,64.9863283 74.5571289,64.9589844 C74.5024411,64.9179685 74.4750977,64.824545 74.4750977,64.6787109 L74.4750977,59.3740234 C74.4750977,59.2828771 74.4819335,59.2111005 74.4956055,59.1586914 C74.5092774,59.1062823 74.5343423,59.0618491 74.5708008,59.0253906 C74.6209312,58.9661455 74.7804349,58.90918 75.0493164,58.8544922 C75.1860358,58.8271483 75.2931311,58.8134766 75.3706055,58.8134766 C75.4845383,58.8134766 75.5551756,58.8271483 75.5825195,58.8544922 C75.6372073,58.895508 75.6645508,58.9843743 75.6645508,59.1210938 L75.6645508,59.640625 C75.7967129,59.4537751 75.9607738,59.2908536 76.1567383,59.1518555 C76.3527028,59.0128574 76.5577789,58.912598 76.7719727,58.8510742 C76.9861664,58.7895505 77.200357,58.7587891 77.4145508,58.7587891 C77.852053,58.7587891 78.2154933,58.8510733 78.5048828,59.0356445 C78.7942723,59.2202158 79.0187167,59.4765609 79.1782227,59.8046875 C79.4106457,59.4947901 79.6943343,59.2430023 80.0292969,59.0493164 C80.3642595,58.8556305 80.739093,58.7587891 81.1538086,58.7587891 C81.6870144,58.7587891 82.1085596,58.8738595 82.418457,59.1040039 C82.7283544,59.3341483 82.9311519,59.6246727 83.0268555,59.9755859 C83.1225591,60.3264992 83.1704102,60.666014 83.1704102,60.9941406 L83.1704102,64.6650391 C83.1704102,64.8108731 83.1407881,64.9042967 83.081543,64.9453125 C83.0541991,64.9726564 82.9995121,64.9977212 82.9174805,65.0205078 C82.8354488,65.0432944 82.7146818,65.0546875 82.5551758,65.0546875 C82.413899,65.0546875 82.3033858,65.045573 82.2236328,65.0273438 C82.1438798,65.0091145 82.0903322,64.9863283 82.0629883,64.9589844 C82.0083005,64.9179685 81.980957,64.824545 81.980957,64.6787109 L81.980957,61.1787109 C81.980957,60.8232404 81.9388025,60.5429698 81.8544922,60.3378906 C81.7701819,60.1328115 81.6414397,59.9903975 81.4682617,59.9106445 C81.2950838,59.8308915 81.0968436,59.7910156 80.8735352,59.7910156 C80.6046536,59.7910156 80.3448906,59.891275 80.0942383,60.0917969 C79.843586,60.2923187 79.668132,60.50537 79.5678711,60.730957 C79.4676102,60.9565441 79.4174805,61.1468091 79.4174805,61.3017578 L79.4174805,64.6650391 C79.4174805,64.8108731 79.3878584,64.9042967 79.3286133,64.9453125 C79.3012694,64.9726564 79.2465824,64.9977212 79.1645508,65.0205078 C79.0825191,65.0432944 78.9617521,65.0546875 78.8022461,65.0546875 C78.6609693,65.0546875 78.5504561,65.045573 78.4707031,65.0273438 C78.3909501,65.0091145 78.3374025,64.9863283 78.3100586,64.9589844 C78.2553708,64.9179685 78.2280273,64.824545 78.2280273,64.6787109 L78.2280273,61.1787109 C78.2280273,60.8369124 78.1847335,60.561199 78.0981445,60.3515625 C78.0115556,60.141926 77.8805347,59.9960942 77.7050781,59.9140625 C77.5296215,59.8320308 77.3347992,59.7910156 77.1206055,59.7910156 C76.838052,59.7910156 76.5725924,59.8901357 76.3242188,60.0883789 C76.0758451,60.2866221 75.9038091,60.4996733 75.8081055,60.7275391 C75.7124019,60.9554048 75.6645508,61.1468091 75.6645508,61.3017578 L75.6645508,64.6650391 C75.6645508,64.8108731 75.6372073,64.9042967 75.5825195,64.9453125 C75.5506183,64.9726564 75.4936528,64.9977212 75.4116211,65.0205078 C75.3295894,65.0432944 75.2088224,65.0546875 75.0493164,65.0546875 Z" id="Platinum" fill="#092A5E"></path>
        </g>
    </g>
</svg>