<?xml version="1.0" encoding="utf-8"?>
<!-- Generator: Adobe Illustrator 20.1.0, SVG Export Plug-In . SVG Version: 6.00 Build 0)  -->
<svg version="1.1" id="Layer_1" xmlns="http://www.w3.org/2000/svg" xmlns:xlink="http://www.w3.org/1999/xlink" x="0px" y="0px"
	 width="120px" height="120px" viewBox="0 0 120 120" style="enable-background:new 0 0 120 120;" xml:space="preserve">
<style type="text/css">
	.st0{fill:#FFFFFF;}
	.st1{fill:#CFA44C;}
	.st2{fill:none;}
</style>
<path class="st0" d="M21.1,82.4C21,83.5,21,84.7,21,85.9c0.7,0,1,0,2.2,0c0.8,0,1.1,0,1.6,0c0-0.5,0-2.1-0.1-3.1l1.2-0.3
	c-0.1,1.4-0.1,2.2-0.1,3.6c0,0.5,0,0.5,0,2.2c0,1,0,1.4,0.1,2l-1.2,0.3c0.1-0.8,0.1-3.3,0.1-4.3c-0.7,0-1,0-2.3,0c-0.6,0-1,0-1.6,0
	c0,0.7,0,1.3,0,1.9c0,0.7,0,1.4,0.1,2.1L20,90.6c0.1-1.5,0.1-4,0.1-4.4c0-0.8,0-2.2-0.1-3.4L21.1,82.4z"/>
<path class="st0" d="M33,87.6c0,0.7-0.2,1.5-0.7,2c-0.8,0.8-1.8,0.9-2.3,0.9c-0.5,0-1.2,0-1.8-0.7c-0.3-0.3-0.7-1-0.7-2
	c0-2.1,1.5-2.9,3-2.9C31.9,84.9,33,85.9,33,87.6 M31.6,86.4c-0.1-0.3-0.5-1.1-1.6-1.1c-0.4,0-0.8,0.1-1.1,0.5
	c-0.4,0.5-0.4,1.2-0.4,1.5c0,1.9,0.9,2.8,2,2.8c0.6,0,1-0.3,1.2-0.5c0.3-0.4,0.3-0.9,0.3-1.4C32,87.7,31.9,87,31.6,86.4"/>
<path class="st0" d="M35.8,82.7c0,0.4-0.1,1.7-0.1,2.5H37l-0.1,0.4h-1.2c0,0.5,0,1.9,0,2c0,1.4,0,1.6,0.1,1.8
	c0.1,0.3,0.2,0.7,0.8,0.7c0.1,0,0.4-0.1,0.5-0.1L37,90.3c-0.4,0.2-0.7,0.2-1.1,0.2c-1.2,0-1.2-0.9-1.2-1.5c0-0.6,0-1.2,0-1.7
	c0-0.4,0-1.2,0-1.8h-0.9l0.1-0.4h0.8c0-0.6,0-1.5-0.1-2.1L35.8,82.7z"/>
<path class="st0" d="M39.2,87.5c0,0.3,0,0.6,0.1,1c0.2,1.2,1,1.6,1.7,1.6c1.1,0,1.6-0.7,1.7-1l-0.1,0.8c-0.3,0.2-0.5,0.3-0.7,0.4
	c-0.4,0.2-1,0.3-1.4,0.3c-0.3,0-0.7,0-1-0.2c-1-0.4-1.3-1.5-1.3-2.6c0-0.4,0-1.5,0.8-2.2c0.6-0.6,1.4-0.7,1.7-0.7
	c0.3,0,1.1,0,1.6,0.7c0.4,0.6,0.4,1.3,0.4,1.9H39.2z M41.7,87.1c0-0.4,0-1.8-1.2-1.8c-0.4,0-0.7,0.2-0.9,0.4
	c-0.3,0.4-0.4,0.9-0.4,1.4H41.7z"/>
<path class="st0" d="M45.4,81.8c0,0.6-0.1,0.9-0.1,2.1c0,0.8,0,1.6,0,2.4c0,1.3,0,2.6,0.1,3.9l-1.1,0.3c0.1-1.6,0.1-3,0.1-4.3
	c0-1.4,0-2.8-0.1-4.2L45.4,81.8z"/>
<path class="st0" d="M47.6,89.3c0.4,0.7,0.8,0.9,1.3,0.9c0.7,0,1.2-0.5,1.2-1.1c0-0.5-0.3-0.7-0.6-0.9c-0.3-0.1-0.6-0.2-0.9-0.4
	c-0.9-0.3-1.3-0.7-1.3-1.4c0-0.9,0.8-1.6,2-1.6c0.8,0,1.3,0.3,1.6,0.5l-0.5,0.6c-0.2-0.3-0.5-0.8-1.2-0.8c-0.5,0-0.9,0.4-0.9,0.8
	c0,0.4,0.3,0.7,1,0.9c0.3,0.1,0.5,0.2,0.8,0.3c0.8,0.4,1.2,0.7,1.2,1.4c0,1.1-1,1.9-2.3,1.9c-0.2,0-0.4,0-0.7-0.1
	c-0.5-0.1-0.7-0.2-1.1-0.5L47.6,89.3z"/>
<path class="st0" d="M59.5,90.5c-0.5-0.3-0.7-0.4-1.2-0.8c-0.6,0.4-1.2,0.7-2.3,0.7c-0.3,0-0.7,0-1.1-0.4c-0.3-0.2-0.4-0.6-0.4-0.9
	c0-0.5,0.3-1,0.7-1.4c0.1-0.1,0.2-0.2,0.9-0.7c0-0.1,0-0.1-0.1-0.2c-0.1-0.3-0.2-0.5-0.2-0.8c0-0.9,0.9-1.7,1.8-1.7
	c0.6,0,0.9,0.3,0.9,0.7c0,0.2-0.1,0.3-0.1,0.5c-0.3,0.5-0.9,0.9-1.5,1.3c0.2,0.3,0.3,0.5,0.8,1.1c0.4,0.5,0.7,0.7,1.1,1
	c0.4-0.4,0.7-0.8,0.7-1.3c0-0.3-0.1-0.4-0.1-0.5l0.5-0.2c0,0.1,0,0.2,0,0.4c0,0.8-0.6,1.5-0.9,1.8c0.3,0.2,0.9,0.6,1.4,0.8
	L59.5,90.5z M57.3,86.3c0.3-0.2,0.4-0.5,0.4-0.8c0-0.4-0.2-0.6-0.6-0.6c-0.4,0-0.8,0.3-0.8,1c0,0.1,0,0.4,0.1,0.5
	c0,0.1,0.1,0.3,0.2,0.4C57.1,86.5,57.2,86.4,57.3,86.3 M55.3,88.8c0,0.7,0.6,1.3,1.4,1.3c0.2,0,0.3,0,0.5-0.1
	c0.4-0.1,0.7-0.3,0.8-0.4c-1.1-0.8-1.6-1.6-1.9-2.2C55.6,87.8,55.3,88.1,55.3,88.8"/>
<path class="st0" d="M65.8,82.6c0.7,0,1.2,0,1.6,0.5c0.2,0.3,0.4,0.7,0.4,1.2c0,1.6-1.2,2.1-1.7,2.3c0.2,0.4,0.3,0.4,0.6,0.9
	c0.2,0.3,1.1,1.6,1.4,1.9c0.3,0.5,0.4,0.6,0.7,0.9l-1.1,0.3c-0.3-0.4-1.7-2.5-2.6-3.7c-0.2,0-0.3,0-0.5,0c0,1.2,0,2.3,0.1,3.5
	l-1.2,0.3c0-1.1,0.1-2.6,0.1-4c0-1.4,0-2.4-0.1-3.8l0.7-0.2H65.8z M66.2,86c0.4-0.3,0.5-0.9,0.5-1.4c0-0.4,0-1.1-0.6-1.5
	c-0.4-0.2-0.9-0.2-1.6-0.2c-0.1,1.2-0.1,2.3-0.1,3.5C65.1,86.5,65.8,86.5,66.2,86"/>
<path class="st0" d="M70.3,87.5c0,0.3,0,0.6,0.1,1c0.2,1.2,1,1.6,1.7,1.6c1.1,0,1.6-0.7,1.7-1l-0.1,0.8c-0.3,0.2-0.5,0.3-0.7,0.4
	c-0.4,0.2-1,0.3-1.4,0.3c-0.3,0-0.7,0-1-0.2c-1-0.4-1.3-1.5-1.3-2.6c0-0.4,0-1.5,0.8-2.2c0.6-0.6,1.4-0.7,1.7-0.7
	c0.3,0,1.1,0,1.6,0.7c0.4,0.6,0.4,1.3,0.4,1.9H70.3z M72.8,87.1c0-0.4,0-1.8-1.2-1.8c-0.4,0-0.7,0.2-0.9,0.4
	c-0.3,0.4-0.4,0.9-0.4,1.4H72.8z"/>
<path class="st0" d="M75.7,89.3c0.4,0.7,0.8,0.9,1.3,0.9c0.7,0,1.2-0.5,1.2-1.1c0-0.5-0.3-0.7-0.6-0.9c-0.3-0.1-0.6-0.2-0.9-0.4
	c-0.9-0.3-1.3-0.7-1.3-1.4c0-0.9,0.8-1.6,2-1.6c0.8,0,1.3,0.3,1.6,0.5l-0.5,0.6c-0.2-0.3-0.5-0.8-1.2-0.8c-0.5,0-0.9,0.4-0.9,0.8
	c0,0.4,0.3,0.7,1,0.9c0.3,0.1,0.5,0.2,0.8,0.3c0.8,0.4,1.2,0.7,1.2,1.4c0,1.1-1,1.9-2.3,1.9c-0.2,0-0.4,0-0.7-0.1
	c-0.5-0.1-0.7-0.2-1.1-0.5L75.7,89.3z"/>
<path class="st0" d="M85.9,87.6c0,0.7-0.2,1.5-0.7,2c-0.8,0.8-1.8,0.9-2.3,0.9c-0.5,0-1.2,0-1.8-0.7c-0.3-0.3-0.7-1-0.7-2
	c0-2.1,1.5-2.9,3-2.9C84.8,84.9,85.9,85.9,85.9,87.6 M84.5,86.4c-0.1-0.3-0.5-1.1-1.6-1.1c-0.4,0-0.8,0.1-1.1,0.5
	c-0.4,0.5-0.4,1.2-0.4,1.5c0,1.9,0.9,2.8,2,2.8c0.6,0,1-0.3,1.2-0.5c0.3-0.4,0.3-0.9,0.3-1.4C84.9,87.7,84.8,87,84.5,86.4"/>
<path class="st0" d="M88.5,84.9c0,0.4,0,0.5-0.1,0.9c0.2-0.2,0.4-0.4,0.7-0.6c0.1-0.1,0.5-0.3,0.7-0.3c0.3,0,0.6,0.3,0.8,0.5l-0.4,1
	l-0.3,0.1c0-0.4-0.1-0.9-0.5-0.9c-0.3,0-0.7,0.5-1,0.9c0,0.5,0,0.9,0,1.5c0,0.7,0,1.5,0.1,2.2l-1.1,0.3c0.1-1,0.1-2,0.1-3
	c0-1.7,0-2.1-0.1-2.4L88.5,84.9z"/>
<path class="st0" d="M93.3,82.7c0,0.4-0.1,1.7-0.1,2.5h1.3l-0.1,0.4h-1.2c0,0.5,0,1.9,0,2c0,1.4,0,1.6,0.1,1.8
	c0.1,0.3,0.2,0.7,0.8,0.7c0.1,0,0.4-0.1,0.5-0.1l-0.1,0.4c-0.4,0.2-0.7,0.2-1.1,0.2c-1.2,0-1.2-0.9-1.2-1.5c0-0.6,0-1.2,0-1.7
	c0-0.4,0-1.2,0-1.8h-0.9l0.1-0.4h0.8c0-0.6,0-1.5-0.1-2.1L93.3,82.7z"/>
<path class="st0" d="M96.3,89.3c0.4,0.7,0.8,0.9,1.3,0.9c0.7,0,1.2-0.5,1.2-1.1c0-0.5-0.3-0.7-0.6-0.9c-0.3-0.1-0.6-0.2-0.9-0.4
	c-0.9-0.3-1.3-0.7-1.3-1.4c0-0.9,0.8-1.6,2-1.6c0.8,0,1.3,0.3,1.6,0.5l-0.5,0.6c-0.2-0.3-0.5-0.8-1.2-0.8c-0.5,0-0.9,0.4-0.9,0.8
	c0,0.4,0.3,0.7,1,0.9c0.3,0.1,0.5,0.2,0.8,0.3c0.8,0.4,1.2,0.7,1.2,1.4c0,1.1-1,1.9-2.3,1.9c-0.2,0-0.4,0-0.7-0.1
	c-0.5-0.1-0.7-0.2-1.1-0.5L96.3,89.3z"/>
<path class="st0" d="M56.4,68.4c0,4-1.1,4.6-1.1,4.6l8.8,0c0,0-1.2-0.5-1.2-4.6c0-2.1,0-15.6,0-18.8c0-3.7,1.1-4.4,1.1-4.4l-8.7,0
	c0,0,1.1,0.7,1.1,4.4C56.4,52.2,56.4,65.2,56.4,68.4"/>
<path class="st0" d="M95.2,73c0,0-1.1-0.2-1.1-4.7c0-2.1,0-15.5,0-18.7c0-3.7,1-4.4,1-4.4l-8.4,0c0,0,1.1,0.8,1.1,4.4
	c0,2.6,0,12.4,0,12.7c0,4.2-3.4,7.4-6.2,7.8c-2.5,0.3-3.9-0.6-4.6-2.4c-0.5-1.3-0.6-3.2-0.6-5.5c0-4.7,0-8.9,0-12.1
	c0-3.2-0.4-5.2-4.5-5.3c-2-0.1-3.9,0.4-4.1,0.5c1,0.1,2,1.6,2,4.8c0,3.2,0,12,0,14.2c0,3.1,0.6,10.8,11,8.8c3-0.7,5.5-2.6,7-4.8V73
	L95.2,73z"/>
<path class="st0" d="M40.8,60.3c2-0.3,8.5-2.4,7.7-9.4c-0.6-5.2-5.9-6.4-12.9-6.3c-1.8,0-11.4,0.3-11.4,0.3s1.1,0.4,1.1,4.4
	c0,3.2,0,15.6,0,18.8c0,4-1.1,4.8-1.1,4.8l8.9,0c0,0-1.2-0.8-1.2-4.8c0-3.2,0-17.3,0-20c4.1-1.2,9.6-0.5,10.1,4.2
	c0.5,4.8-4.2,7-9,6.9c2.6,6,6.2,12,10.6,13.6c3.5,1.2,8.2,0.6,9.4-0.2C47.5,71.6,41.9,62.9,40.8,60.3"/>
<path class="st1" d="M59.6,36.1c-1.9,0-5.7,0.6-5.7,0.6l-1.8-0.8c0,0,4.5-1.1,7.5-1.1h0.1c3.1,0.1,7.5,1.1,7.5,1.1l-1.8,0.8
	C65.4,36.7,61.6,36.1,59.6,36.1L59.6,36.1z"/>
<path class="st1" d="M59.7,30.3l-5,3.7l-3.6-2.4l1,4.4c-3.1-2.2-3.3-8.2-3.3-8.2l5.9,3.4l5-4.1l5,4.1l5.9-3.4c0,0-0.2,6-3.3,8.2
	l1-4.4L64.6,34L59.7,30.3z"/>
<rect x="13.8" y="12.8" class="st2" width="91.8" height="91.8"/>
</svg>
