<?xml version="1.0" encoding="utf-8"?>
<!-- Generator: Adobe Illustrator 20.1.0, SVG Export Plug-In . SVG Version: 6.00 Build 0)  -->
<svg version="1.1" id="Layer_1" xmlns="http://www.w3.org/2000/svg" xmlns:xlink="http://www.w3.org/1999/xlink" x="0px" y="0px"
	 width="120px" height="120px" viewBox="0 0 120 120" style="enable-background:new 0 0 120 120;" xml:space="preserve">
<style type="text/css">
	.st0{fill:#FFFFFF;}
	.st1{fill:none;}
</style>
<path class="st0" d="M24.8,91.5v5.7c0,1.4,0.2,1.9,0.7,2v0.2c-0.8,0-1.1,0-1.6,0c-0.5,0-0.8,0-1.6,0v-0.2c0.6-0.1,0.7-0.5,0.7-2
	v-4.9c0-1.5-0.2-1.9-0.7-2v-0.2h3.4c1.2,0,1.8,0.1,2.4,0.4c0.8,0.4,1.3,1.2,1.3,2.2c0,1.2-0.6,2-1.8,2.4l2.1,3.2
	c0.4,0.6,0.5,0.7,0.8,0.8v0.2c-0.5,0.1-0.9,0.1-1.2,0.1c-0.8,0-1.2-0.2-1.7-1l-2.4-3.9l0.1-0.1c0.2,0,0.3,0,0.4,0
	c1.1,0,1.9-0.6,1.9-1.5c0-1-0.7-1.5-2-1.5C25.3,91.4,25.2,91.4,24.8,91.5"/>
<path class="st0" d="M36.5,91.3c-1.8,0-3.1,1.4-3.1,3.5c0,2,1.3,3.4,3.1,3.4c1.8,0,3.1-1.4,3.1-3.4C39.5,92.7,38.3,91.3,36.5,91.3
	 M36.4,89.9c2.9,0,4.9,2,4.9,4.8c0,2.9-2,4.9-4.8,4.9c-2.9,0-5-2-5-4.9C31.5,91.9,33.5,89.9,36.4,89.9"/>
<path class="st0" d="M45.4,95.1v1.7c0,1.1,0.2,1.3,1.1,1.3c1.2,0,1.9-0.5,1.9-1.4c0-1.1-0.7-1.6-2.2-1.6
	C46,95.1,45.8,95.1,45.4,95.1 M45.4,93.8c0.3,0,0.4,0,0.5,0c1.3,0,2-0.5,2-1.3c0-0.8-0.6-1.2-1.6-1.2c-0.3,0-0.4,0-0.9,0.1V93.8z
	 M48.2,94.3c1.4,0.3,2.1,1.2,2.1,2.5c0,1-0.5,1.8-1.4,2.2c-0.6,0.3-1.1,0.4-2.3,0.4h-3.5v-0.2c0.6-0.1,0.7-0.6,0.7-2v-4.9
	c0-1.5-0.2-1.9-0.7-2v-0.2h3.2c1.3,0,1.8,0.1,2.4,0.4c0.7,0.4,1.1,1.1,1.1,1.9C49.8,93.4,49.2,94,48.2,94.3"/>
<path class="st0" d="M52.6,90.3v-0.2l0.7,0c0.3,0,0.6,0,0.9,0c0.3,0,0.6,0,0.8,0l0.7,0v0.2c-0.5,0.1-0.7,0.6-0.7,2v4.9
	c0,1.4,0.2,1.9,0.7,2v0.2c-0.8,0-1.1,0-1.6,0c-0.5,0-0.8,0-1.5,0v-0.2c0.6-0.1,0.7-0.5,0.7-2v-4.9C53.3,90.9,53.2,90.4,52.6,90.3"/>
<path class="st0" d="M59.1,89.7l6,6.3v-3.8c0-1.5-0.2-2-0.7-2v-0.2l0.7,0l0.8,0l0.8,0l0.7,0v0.2c-0.5,0.1-0.7,0.5-0.7,2v7.4h-0.2
	l-6-6.3v3.8c0,1.5,0.1,1.9,0.7,2v0.2c-0.8,0-1.1,0-1.5,0c-0.4,0-0.7,0-1.5,0v-0.2c0.6-0.1,0.7-0.5,0.7-2v-7.5H59.1z"/>
<path class="st0" d="M74.3,90.1v2h-0.2c-0.4-0.6-1.1-0.9-1.9-0.9c-0.8,0-1.4,0.5-1.4,1.1c0,0.6,0.2,0.8,1.9,1.6
	c1.1,0.6,1.6,1.1,1.8,1.8c0.1,0.3,0.2,0.7,0.2,1c0,1.7-1.3,2.8-3.3,2.8c-0.7,0-1.4-0.1-2.3-0.4l-0.2-1.9l0.2,0c0.5,0.6,1.3,1,2.2,1
	c1,0,1.7-0.6,1.7-1.4c0-0.6-0.3-1-1.3-1.5c-1.6-0.8-2-1.2-2.4-1.9c-0.1-0.3-0.2-0.6-0.2-1c0-1.5,1.2-2.5,2.9-2.5
	c0.5,0,0.8,0.1,1.5,0.2c0.1,0,0.3,0.1,0.4,0.1c0.1,0,0.1,0,0.2-0.1H74.3z"/>
<path class="st0" d="M81.4,91.3c-1.8,0-3.1,1.4-3.1,3.5c0,2,1.3,3.4,3.1,3.4c1.8,0,3.1-1.4,3.1-3.4C84.4,92.7,83.2,91.3,81.4,91.3
	 M81.3,89.9c2.9,0,4.9,2,4.9,4.8c0,2.9-2,4.9-4.8,4.9c-2.9,0-5-2-5-4.9C76.4,91.9,78.4,89.9,81.3,89.9"/>
<path class="st0" d="M88.8,89.7l6,6.3v-3.8c0-1.5-0.2-2-0.7-2v-0.2l0.7,0l0.8,0l0.8,0l0.7,0v0.2c-0.5,0.1-0.7,0.5-0.7,2v7.4h-0.2
	l-6-6.3v3.8c0,1.5,0.1,1.9,0.7,2v0.2c-0.8,0-1.1,0-1.5,0c-0.4,0-0.7,0-1.5,0v-0.2c0.6-0.1,0.7-0.5,0.7-2v-7.5H88.8z"/>
<path class="st0" d="M77.5,20.3C91,21.4,96.9,30.7,96.8,45.1c-0.1,15-9.2,28.5-17.4,33.2c-0.5,0.3-1.3-0.5-0.7-1.2
	c0.3-0.3,3.4-3,2.4-8.8c-0.8-4.6-4.4-8.2-6.8-9.3c-5.4-2.5-14.8-4.3-16.4-18.2C56.4,29.8,67,19.4,77.5,20.3"/>
<path class="st0" d="M71.4,65.5c3.7,4.2,2.4,10.1-0.9,12.4C64,82.4,56,77.7,53.3,67.7c-2-7.6-1.3-15.8,0-18.2
	c0.5-0.8,0.8-0.2,0.8,0.1c-0.2,1.8,2,6.8,4.9,9C64.4,62.6,68,61.7,71.4,65.5"/>
<path class="st0" d="M32.2,36.5c3.5,0,6.3-2.8,6.3-6.3c0-3.5-2.8-6.3-6.3-6.3c-3.5,0-6.3,2.8-6.3,6.3C25.9,33.7,28.7,36.5,32.2,36.5
	 M23.7,30.2c0-4.7,3.8-8.5,8.5-8.5c4.7,0,8.5,3.8,8.5,8.5c0,4.7-3.8,8.5-8.5,8.5C27.5,38.8,23.7,34.9,23.7,30.2"/>
<path class="st0" d="M32.2,34c2.1,0,3.8-1.7,3.8-3.8s-1.7-3.8-3.8-3.8c-2.1,0-3.8,1.7-3.8,3.8S30.2,34,32.2,34"/>
<rect x="6.2" y="6.3" class="st1" width="106.9" height="106.9"/>
</svg>
