<?xml version="1.0" encoding="utf-8"?>
<!-- Generator: Adobe Illustrator 20.1.0, SVG Export Plug-In . SVG Version: 6.00 Build 0)  -->
<svg version="1.1" id="Layer_1" xmlns="http://www.w3.org/2000/svg" xmlns:xlink="http://www.w3.org/1999/xlink" x="0px" y="0px"
	 width="120px" height="120px" viewBox="0 0 120 120" style="enable-background:new 0 0 120 120;" xml:space="preserve">
<style type="text/css">
	.st0{fill:#FFFFFF;}
</style>
<g>
	<path class="st0" d="M27,67.8c-0.8,0-1.6-0.1-2.2-0.2c-0.6-0.1-1.2-0.2-1.7-0.4c-0.5-0.2-0.9-0.3-1.2-0.5c-0.3-0.2-0.6-0.3-0.9-0.5
		c-0.3-0.2-0.5-0.4-0.6-0.5c-0.1-0.1-0.1-0.3-0.1-0.4c0-0.1,0.1-0.3,0.2-0.6c0.2-0.3,0.3-0.5,0.4-0.7c0.2-0.3,0.4-0.4,0.6-0.4
		c0.1,0,0.3,0.1,0.4,0.2c0.1,0.1,0.2,0.2,0.4,0.2c0.1,0.1,0.2,0.1,0.4,0.2c0.3,0.2,0.7,0.4,1.2,0.6c0.5,0.2,1,0.3,1.4,0.4
		c0.5,0.1,1,0.1,1.4,0.1c1,0,1.9-0.2,2.6-0.4c0.7-0.3,1.3-0.7,1.6-1.2c0.3-0.5,0.5-1,0.5-1.6c0-0.7-0.2-1.3-0.5-1.7
		c-0.3-0.4-0.8-0.8-1.5-1.1c-0.7-0.3-1.4-0.5-2.2-0.7L26,58.3c-0.8-0.2-1.5-0.5-2.2-0.8c-0.7-0.3-1.2-0.6-1.7-1.1
		C21.7,56,21.3,55.5,21,55c-0.3-0.6-0.4-1.3-0.4-2.1c0-0.9,0.2-1.7,0.5-2.4c0.3-0.7,0.7-1.3,1.3-1.8c0.6-0.5,1.3-0.9,2.1-1.1
		s1.7-0.4,2.8-0.4c1,0,1.9,0.1,2.5,0.2c0.7,0.1,1.2,0.3,1.6,0.4s0.6,0.3,0.7,0.3c0.4,0.2,0.7,0.3,0.8,0.4c0.1,0.1,0.2,0.2,0.2,0.3
		c0,0.1,0,0.3-0.1,0.5c-0.1,0.3-0.2,0.5-0.3,0.7c-0.1,0.2-0.2,0.3-0.3,0.4c-0.1,0.1-0.2,0.1-0.3,0.1c-0.2,0-0.3,0-0.5-0.1
		c-0.1,0-0.3-0.1-0.6-0.3c-0.3-0.1-0.6-0.2-0.8-0.3c-0.2-0.1-0.4-0.1-0.6-0.2c-0.7-0.2-1.5-0.2-2.3-0.2c-0.7,0-1.3,0.1-1.8,0.2
		c-0.5,0.2-0.9,0.4-1.3,0.7c-0.3,0.3-0.6,0.6-0.8,1c-0.2,0.4-0.3,0.8-0.3,1.2c0,0.4,0.1,0.8,0.3,1.1c0.2,0.3,0.4,0.6,0.8,0.8
		c0.3,0.2,0.8,0.5,1.3,0.7c0.5,0.2,1.1,0.4,1.7,0.6l1.6,0.4c1.3,0.4,2.4,0.8,3.2,1.3c0.8,0.5,1.4,1.1,1.7,1.9
		c0.3,0.7,0.5,1.5,0.5,2.3c0,1-0.2,1.9-0.5,2.6c-0.3,0.7-0.8,1.4-1.4,1.9c-0.6,0.5-1.4,0.9-2.2,1.1C29.2,67.7,28.2,67.8,27,67.8z"/>
	<path class="st0" d="M45.3,67.8c-1.2,0-2.3-0.2-3.3-0.7s-1.9-1.1-2.7-2c-0.8-0.9-1.4-1.9-1.8-3.2c-0.4-1.3-0.7-2.7-0.7-4.4
		c0-1.6,0.2-3.1,0.7-4.4c0.5-1.3,1.1-2.4,1.8-3.2c0.8-0.9,1.7-1.6,2.7-2c1.1-0.5,2.2-0.7,3.4-0.7c1.3,0,2.2,0.1,2.8,0.3
		c0.6,0.2,1.2,0.4,1.8,0.6c0.4,0.2,0.6,0.3,0.7,0.4c0.1,0.1,0.2,0.2,0.2,0.3c0,0.1,0,0.3-0.1,0.4c-0.1,0.2-0.1,0.4-0.3,0.6
		c-0.2,0.3-0.3,0.6-0.5,0.7c-0.1,0.1-0.2,0.2-0.3,0.2c-0.1,0-0.3,0-0.5-0.1c-0.1,0-0.2-0.1-0.3-0.2c-0.2-0.1-0.4-0.2-0.7-0.3
		c-0.3-0.1-0.7-0.2-1.2-0.3c-0.5-0.1-1-0.1-1.7-0.1c-0.9,0-1.7,0.2-2.4,0.5c-0.7,0.4-1.3,0.9-1.8,1.5c-0.5,0.7-0.9,1.5-1.1,2.5
		c-0.3,1-0.4,2.1-0.4,3.3c0,1.3,0.1,2.4,0.4,3.3c0.3,1,0.7,1.8,1.2,2.4c0.5,0.7,1.1,1.2,1.8,1.5c0.7,0.3,1.5,0.5,2.3,0.5
		c0.7,0,1.4-0.1,2-0.2c0.6-0.1,1.1-0.3,1.4-0.5c0.3-0.2,0.5-0.3,0.6-0.3c0.2-0.1,0.4-0.2,0.6-0.2c0.1,0,0.2,0,0.3,0.2
		c0.1,0.1,0.3,0.3,0.4,0.5c0.3,0.5,0.4,0.9,0.4,1.1c0,0.2-0.3,0.4-0.9,0.8c-0.3,0.2-0.7,0.3-1.2,0.5c-0.5,0.2-1.1,0.3-1.7,0.4
		C46.7,67.8,46,67.8,45.3,67.8z"/>
	<path class="st0" d="M55.4,67.4c-0.4,0-0.7,0-0.8-0.1c-0.1,0-0.3-0.1-0.3-0.2c-0.1-0.1-0.2-0.3-0.2-0.6v-18c0-0.3,0.1-0.5,0.2-0.6
		c0.1-0.1,0.5-0.2,1.1-0.2h10.2c0.2,0,0.3,0,0.3,0c0.1,0,0.1,0.1,0.1,0.1c0.1,0.1,0.1,0.2,0.1,0.5c0,0.3,0,0.6-0.1,0.8
		s-0.1,0.5-0.2,0.6c-0.1,0.1-0.2,0.2-0.3,0.2S65.3,50,65.1,50h-8.3v5.6h7.5c0.2,0,0.3,0,0.3,0s0.1,0,0.1,0.1
		c0.1,0.1,0.1,0.2,0.1,0.5c0,0.3,0,0.6-0.1,0.8c0,0.3-0.1,0.5-0.2,0.6c-0.1,0.1-0.2,0.2-0.3,0.2c-0.1,0-0.3,0.1-0.5,0.1h-7v7.3h8.9
		c0.2,0,0.4,0,0.5,0.1c0.1,0.1,0.1,0.2,0.1,0.5c0,0.3,0,0.5-0.1,0.8c0,0.3-0.1,0.5-0.2,0.6c-0.1,0.1-0.2,0.2-0.3,0.2
		c-0.1,0-0.3,0.1-0.5,0.1H55.4z"/>
	<path class="st0" d="M70.6,67.5c-0.3,0-0.6,0-0.8-0.1c-0.2,0-0.3-0.1-0.4-0.2c-0.1-0.1-0.2-0.3-0.2-0.6V49.8l-0.7-1.2
		c-0.1-0.2-0.2-0.3-0.2-0.4c0-0.2,0-0.3,0.1-0.4c0.1-0.1,0.2-0.1,0.4-0.2c0.2,0,0.6-0.1,1.1-0.1c0.3,0,0.6,0,0.8,0.1
		c0.2,0.1,0.3,0.1,0.4,0.2c0,0,0.1,0.1,0.1,0.1c0,0,0.1,0,0.1,0.1c0,0,0.1,0.2,0.2,0.3l8.9,14.2v-14c0-0.3,0-0.4,0.1-0.5
		c0.1-0.1,0.2-0.2,0.4-0.2c0.2-0.1,0.4-0.1,0.8-0.1c0.5,0,0.8,0,1,0.1c0.2,0.1,0.3,0.2,0.3,0.3c0,0.1,0,0.3,0,0.4v18.3
		c0,0.3,0,0.5-0.1,0.5c-0.1,0.1-0.2,0.2-0.3,0.2c-0.2,0.1-0.4,0.1-0.7,0.1c-0.3,0-0.6,0-0.8-0.1c-0.2,0-0.3-0.1-0.3-0.1
		c-0.1-0.1-0.2-0.2-0.2-0.3l-8.7-13.8v13.5c0,0.3-0.1,0.5-0.2,0.6c-0.1,0.1-0.2,0.1-0.3,0.2C71.2,67.5,71,67.5,70.6,67.5z"/>
	<path class="st0" d="M89.2,67.4c-0.4,0-0.7,0-0.8-0.1c-0.1,0-0.3-0.1-0.3-0.2c-0.1-0.1-0.2-0.3-0.2-0.6v-18c0-0.3,0.1-0.5,0.2-0.6
		c0.1-0.1,0.5-0.2,1.1-0.2h10.2c0.2,0,0.3,0,0.3,0c0.1,0,0.1,0.1,0.1,0.1c0.1,0.1,0.1,0.2,0.1,0.5c0,0.3,0,0.6-0.1,0.8
		c0,0.3-0.1,0.5-0.2,0.6c-0.1,0.1-0.2,0.2-0.3,0.2S99.1,50,98.9,50h-8.3v5.6H98c0.2,0,0.3,0,0.3,0s0.1,0,0.1,0.1
		c0.1,0.1,0.1,0.2,0.1,0.5c0,0.3,0,0.6-0.1,0.8c0,0.3-0.1,0.5-0.2,0.6c-0.1,0.1-0.2,0.2-0.3,0.2c-0.1,0-0.3,0.1-0.5,0.1h-7v7.3h8.9
		c0.2,0,0.4,0,0.5,0.1c0.1,0.1,0.1,0.2,0.1,0.5c0,0.3,0,0.5-0.1,0.8c0,0.3-0.1,0.5-0.2,0.6c-0.1,0.1-0.2,0.2-0.3,0.2
		c-0.1,0-0.3,0.1-0.5,0.1H89.2z"/>
</g>
</svg>
