<?xml version="1.0" encoding="UTF-8" standalone="no"?>
<svg width="128px" height="128px" viewBox="0 0 128 128" version="1.1" xmlns="http://www.w3.org/2000/svg" xmlns:xlink="http://www.w3.org/1999/xlink">
    <!-- Generator: Sketch 44 (41411) - http://www.bohemiancoding.com/sketch -->
    <title>sensatori-logo</title>
    <desc>Created with Sketch.</desc>
    <defs>
        <rect id="path-1" x="0" y="0" width="128" height="128"></rect>
        <rect id="path-3" x="0" y="0" width="128" height="128"></rect>
    </defs>
    <g id="Page-1" stroke="none" stroke-width="1" fill="none" fill-rule="evenodd">
        <g id="sensatori" transform="translate(-619.000000, -832.000000)">
            <g id="usp's" transform="translate(0.000000, 768.000000)">
                <g id="header" transform="translate(600.000000, 64.000000)">
                    <g id="logo/m7-logo" transform="translate(19.000000, 0.000000)">
                        <g>
                            <g id="product-bg">
                                <mask id="mask-2" fill="white">
                                    <use xlink:href="#path-1"></use>
                                </mask>
                                <use id="Mask" fill="#D8D8D8" xlink:href="#path-1"></use>
                                <g id="fill/sensatori-blue" mask="url(#mask-2)" fill="#00ACC8">
                                    <g transform="translate(-10.666667, -24.888889)" id="fill">
                                        <rect x="0" y="0" width="181" height="181"></rect>
                                    </g>
                                </g>
                            </g>
                            <g id="product-logo/sensimar">
                                <g id="product-logo">
                                    <mask id="mask-4" fill="white">
                                        <use xlink:href="#path-3"></use>
                                    </mask>
                                    <g id="Mask"></g>
                                    <g id="logo" mask="url(#mask-4)" fill-rule="nonzero">
                                        <g transform="translate(14.222222, 19.555556)">
                                            <path d="M4.64654051,88.6933894 C4.72096716,88.6818964 4.79129889,88.6532963 4.8513989,88.6100847 C4.93077967,88.5216223 4.96551616,88.4046928 4.94651173,88.289917 L4.94651173,79.6334485 L7.79931118,79.6334485 C7.89484552,79.6369283 7.99033748,79.625579 8.08201576,79.599849 C8.14993335,79.5778509 8.20800525,79.5346902 8.24678044,79.4773911 C8.29349126,79.3817882 8.32419895,79.2798567 8.3377961,79.1752727 C8.36128977,79.0328997 8.37273984,78.8889712 8.37203671,78.7448651 C8.38265558,78.6583117 8.36045424,78.5709982 8.30940858,78.4985609 C8.28717604,78.4809937 8.26180037,78.4673561 8.23448893,78.458297 C8.17449068,78.4426901 8.11224261,78.436315 8.05011638,78.4394146 L0.58361327,78.4394146 C0.488094426,78.4368726 0.392663726,78.4468712 0.300030723,78.4691266 C0.231971436,78.4893695 0.173623902,78.5317518 0.135266044,78.5888077 C0.0830004803,78.6900947 0.0499143766,78.7993136 0.0375193254,78.9114745 C0.0142959305,79.0487617 0.0024558836,79.1875656 0.00210808894,79.3266096 C-0.00782085497,79.4118285 0.0175776132,79.4973702 0.0729305619,79.5651387 L0.143753035,79.6101232 C0.201750634,79.628983 0.263186548,79.6364467 0.324321075,79.6320601 L3.4683121,79.6320601 L3.4683121,88.2907501 C3.44958006,88.4053287 3.48381555,88.5220079 3.5622543,88.6109178 C3.62244348,88.6539837 3.69273574,88.6825677 3.7671127,88.6942225 C3.90681157,88.7225211 4.04953794,88.7351036 4.19234019,88.7317096 C4.34524115,88.7358544 4.49813647,88.7232758 4.64800378,88.6942225 L4.64654051,88.6933894 Z M15.4785744,88.6311886 C15.9433208,88.4844569 16.3677289,88.2412273 16.7208942,87.9192111 C17.0400028,87.6156738 17.2784448,87.2444715 17.4165348,86.8362501 C17.5645626,86.3925245 17.6375582,85.9293467 17.6328067,85.4639441 L17.6328067,78.8195617 C17.6352516,78.7419709 17.6270868,78.6644068 17.6085163,78.5888077 C17.5784282,78.5199731 17.5184684,78.4668265 17.4440443,78.4430245 C17.2717274,78.3900885 17.0904012,78.3686059 16.9096566,78.3797129 C16.7498759,78.3757337 16.5901572,78.3896209 16.4337998,78.4210876 C16.3462397,78.4302511 16.2665273,78.4732411 16.2134307,78.5399356 C16.1777752,78.6290568 16.1629953,78.724475 16.1701178,78.8195617 L16.1701178,85.6280544 C16.1716504,85.8946049 16.1209398,86.1591025 16.0205711,86.408064 C15.9198923,86.6558889 15.7614127,86.8788831 15.5570059,87.0603397 C15.3276742,87.2603711 15.0575516,87.4136614 14.7633259,87.5107405 C14.3963099,87.6302823 14.0099174,87.6873441 13.621972,87.6792936 C13.2360282,87.6874404 12.8516352,87.6303666 12.4867639,87.5107405 C12.1936303,87.4135674 11.9246757,87.2602616 11.6965958,87.0603397 C11.4918139,86.8791868 11.3332721,86.6561049 11.2330305,86.408064 C11.1325695,86.159127 11.0818558,85.8946128 11.0834839,85.6280544 L11.0834839,78.8195617 C11.1155046,78.7292605 11.1012835,78.6299541 11.0450295,78.5510339 C10.9887755,78.4721136 10.8969321,78.4226195 10.7966821,78.4172 C10.6584001,78.3887105 10.5170055,78.3761242 10.3755518,78.3797129 C10.2184826,78.3755458 10.0614168,78.3881202 9.90730404,78.4172 C9.83228536,78.4285144 9.76111412,78.4563824 9.6995191,78.4985609 C9.62768551,78.5907986 9.59622616,78.70582 9.61172264,78.8195617 L9.61172264,85.4647772 C9.60706474,85.9301736 9.68005818,86.3933374 9.82799458,86.8370832 C9.96617957,87.2453271 10.204722,87.6165296 10.5239278,87.9200442 C10.8773991,88.2415744 11.3020125,88.4842379 11.7668329,88.6303555 C12.3651032,88.8146664 12.9919717,88.9014214 13.6208014,88.886934 C14.2500194,88.9014989 14.8772864,88.8147436 15.4759405,88.6303555 L15.4785744,88.6311886 Z M21.1276909,88.6933894 C21.203754,88.6799306 21.2760195,88.6515575 21.3398656,88.6100847 C21.4056919,88.5157604 21.4336287,88.4021424 21.4185898,88.289917 L21.4185898,78.8195617 C21.4332945,78.7070892 21.4053928,78.5933187 21.3398656,78.4985609 C21.2755921,78.4582406 21.2034417,78.4305737 21.1276909,78.4172 C20.9802616,78.3883654 20.8298154,78.3757863 20.6793436,78.3797129 C20.5298525,78.3768491 20.380581,78.3919643 20.2350936,78.4246974 C20.1484348,78.4364301 20.0696865,78.4789001 20.0147245,78.5435455 C19.9795785,78.6315244 19.9650965,78.7257225 19.9722895,78.8195617 L19.9722895,88.2910278 C19.9707911,88.3695009 19.9758799,88.4479626 19.9875076,88.5256693 C20.0123195,88.5968117 20.0729256,88.6515044 20.1490531,88.6714525 C20.3206607,88.7206825 20.5000766,88.7407988 20.679051,88.7308765 C20.8295228,88.7348031 20.979969,88.722224 21.1273982,88.6933894 L21.1276909,88.6933894 Z M32.5745926,88.6895019 C33.0191192,88.5749759 33.4338358,88.3743499 33.792622,88.10026 C34.124928,87.8399772 34.3863997,87.5076924 34.5549879,87.1314264 C34.7390184,86.704444 34.8286669,86.2461489 34.8183773,85.7849449 C34.8207366,85.3678098 34.731015,84.954828 34.5549879,84.5725839 C34.3579313,84.16929 34.0374,83.8316767 33.6351737,83.6037503 C33.0955725,83.2958888 32.5119474,83.0635708 31.9023644,82.9139874 L31.0457636,82.6821227 C30.7314314,82.6027531 30.4219232,82.5070867 30.1186331,82.3955545 C29.8745617,82.3075568 29.6423325,82.1924426 29.426797,82.0526169 C29.2509777,81.9388923 29.1034566,81.7901051 28.9945458,81.6166556 C28.891028,81.4383193 28.8394117,81.2370498 28.8449992,81.0335228 C28.8428715,80.814378 28.8896481,80.5972872 28.9822543,80.3965195 C29.0763133,80.197051 29.2177458,80.0209416 29.395483,79.8819742 C29.5984246,79.7253569 29.8322231,79.60868 30.0832218,79.5387589 C30.3957573,79.4522619 30.7202529,79.4109785 31.0457636,79.416301 C31.4631174,79.4144614 31.8795166,79.4542967 32.2880835,79.535149 C32.3988032,79.5591708 32.5077161,79.5901545 32.614101,79.6278949 C32.7159448,79.665382 32.8584678,79.7209185 33.042255,79.7928382 C33.2260422,79.8647579 33.3431042,79.91363 33.3957821,79.9375107 C33.4814346,79.9769682 33.5753714,79.997566 33.670585,79.9977677 C33.7287468,79.9976559 33.7843028,79.9748634 33.8242288,79.9347339 C33.8804471,79.8755712 33.9268294,79.8086208 33.9617765,79.736191 C34.0319625,79.622559 34.0875717,79.5013692 34.1274192,79.375204 C34.1603246,79.2846956 34.181359,79.1906869 34.1900473,79.0953002 C34.1797395,79.0365435 34.1487989,78.9828191 34.1022509,78.9428526 C33.9796453,78.8430141 33.8385228,78.7657047 33.6860957,78.7148754 C33.6275647,78.6948823 33.4944067,78.6457326 33.2851585,78.5663154 C33.0041056,78.467169 32.715104,78.3896308 32.4209488,78.3344507 C31.9623364,78.2522179 31.4960208,78.2149974 31.029375,78.2233777 C30.5184913,78.2166211 30.0095558,78.2845228 29.5204466,78.4246974 C29.1064022,78.5433719 28.7218078,78.7399971 28.3896282,79.002832 C28.0818786,79.2526301 27.8386789,79.5661333 27.6787696,79.9191836 C27.5087586,80.3050354 27.4245689,80.7200458 27.4314763,81.138209 C27.4212934,81.5117446 27.4949136,81.883067 27.6474556,82.2275567 C27.788892,82.5271095 27.9950827,82.7951236 28.2526658,83.0142307 C28.5295676,83.2460929 28.844382,83.4336648 29.1847715,83.5695954 C29.5700606,83.7275268 29.9664983,83.8597473 30.3711942,83.9652927 L31.070054,84.1521729 C31.4752768,84.2571131 31.8730236,84.3864986 32.2608666,84.5395397 C32.583288,84.6536705 32.8699486,84.8435032 33.0940549,85.0912944 C33.2869332,85.3468977 33.3826823,85.6570424 33.3656386,85.970992 C33.3631025,86.2629879 33.2776759,86.5489385 33.1183453,86.798763 C32.9147802,87.0962251 32.611279,87.3197154 32.257062,87.4329894 C31.7946939,87.5960759 31.3039207,87.6744719 30.8107618,87.6640211 C30.5476013,87.663733 30.2848698,87.6438641 30.0249835,87.6045971 C29.7582087,87.5633627 29.4963777,87.4972311 29.2433024,87.4071649 C29.0148749,87.3293148 28.79502,87.230452 28.5868776,87.1119886 C28.5242495,87.0725578 28.4595728,87.0334046 28.3940181,86.9970282 C28.3284634,86.9606518 28.2646646,86.9203879 28.2020365,86.880957 C28.1323752,86.8253047 28.0477609,86.7891522 27.9576697,86.7765484 C27.8255977,86.798429 27.7090187,86.8713342 27.6357494,86.9778681 C27.5499971,87.0921209 27.472744,87.2119073 27.404552,87.336356 C27.3408665,87.431041 27.2992571,87.5375534 27.282515,87.6487486 C27.2861931,87.7180555 27.3123607,87.7845893 27.3574346,87.8392386 C27.4540581,87.9421645 27.57021,88.026941 27.6998408,88.0891527 C27.8300722,88.1630162 27.9878131,88.2482647 28.1716004,88.3418436 C28.383678,88.4485319 28.6057916,88.5361972 28.8350489,88.603698 C29.1307877,88.6913596 29.4328127,88.7586412 29.7387671,88.8050177 C30.1357117,88.8632187 30.5370187,88.8904302 30.938652,88.8863786 C31.4920092,88.8940442 32.0437379,88.8275782 32.5775191,88.6889465 L32.5745926,88.6895019 Z M42.6103126,88.6708972 C42.7055427,88.6734586 42.8006863,88.6634591 42.8930172,88.6411852 C42.9610155,88.6209708 43.0192795,88.5785739 43.0574892,88.5215041 C43.1098086,88.4197157 43.1420444,88.3096983 43.152602,88.1968935 C43.1724416,88.0600431 43.1829016,87.9221155 43.1839161,87.7839799 C43.1950896,87.6973954 43.1728421,87.6099005 43.1212879,87.5376756 C43.0481827,87.4888769 42.9586574,87.4674181 42.8698974,87.4774186 L37.9869513,87.4774186 L37.9869513,83.7048266 L41.798488,83.7048266 C41.8951414,83.7074187 41.991696,83.6970419 42.0852898,83.6740039 C42.1544083,83.6557868 42.2136303,83.6132953 42.2509324,83.5551559 C42.3017827,83.4609707 42.3336431,83.3586015 42.3448746,83.2533152 C42.3683871,83.1113034 42.3802265,82.9677718 42.3802859,82.8240183 C42.3909645,82.7374998 42.3688697,82.6501975 42.3179504,82.5777141 C42.2958591,82.5600206 42.2704387,82.5464531 42.2430307,82.5377279 C42.1829516,82.522012 42.1206044,82.5155431 42.0583655,82.5185678 L37.9869513,82.5185678 L37.9869513,79.6334485 L42.5298325,79.6334485 C42.62537,79.6369984 42.7208739,79.6256477 42.8125371,79.599849 C42.8806246,79.5777439 42.9389428,79.5346299 42.9781797,79.4773911 C43.0244959,79.3817281 43.0548083,79.2797976 43.0680248,79.1752727 C43.0918519,79.0332961 43.1036933,78.889741 43.103436,78.7459759 C43.114159,78.6594165 43.091949,78.5720691 43.0408079,78.4996717 C43.0188563,78.4818706 42.9935282,78.4682052 42.9661809,78.4594077 C42.9060059,78.4436717 42.843559,78.4372028 42.781223,78.4402476 L37.2324871,78.4402476 C37.0265831,78.4147701 36.8174458,78.4512911 36.6345933,78.5446562 C36.5525703,78.6382444 36.5129996,78.7588714 36.524555,78.8800964 L36.524555,88.230493 C36.5146868,88.3448095 36.5483276,88.4586959 36.6193752,88.5514938 C36.6682832,88.5908864 36.7258902,88.6193551 36.7879444,88.6347985 C36.9335862,88.6661393 37.0830094,88.678748 37.2321944,88.6722856 L42.608264,88.6722856 L42.6103126,88.6708972 Z M45.7188924,88.6928341 C45.7809792,88.6774711 45.8386043,88.6489936 45.8874615,88.6095294 C45.9712505,88.5232139 46.0087748,88.4052482 45.9893054,88.2893617 L45.9893054,81.310372 L50.737045,88.4845723 C50.7604935,88.5399361 50.7983523,88.5887555 50.8470832,88.626468 C50.9030155,88.6616305 50.9658067,88.6858019 51.0317484,88.6975547 C51.1672856,88.7237308 51.3055497,88.735005 51.4438065,88.7311542 C51.5817588,88.7359559 51.7197262,88.7220235 51.8535233,88.6897796 C51.9292931,88.6744804 51.9964819,88.6332644 52.0422856,88.573986 C52.0810605,88.4845595 52.0969081,88.3876767 52.0885251,88.2913054 L52.0885251,78.8195617 C52.0912687,78.7420215 52.0834985,78.6644683 52.0654054,78.5888077 C52.0350305,78.5201622 51.9751782,78.4671108 51.9009333,78.4430245 C51.5830043,78.3650746 51.2502621,78.3587983 50.9293193,78.4246974 C50.8505394,78.4393337 50.7805588,78.4818141 50.7335332,78.5435455 C50.6973564,78.6312813 50.682453,78.7256173 50.6899276,78.8195617 L50.6899276,86.0906731 L45.8382955,78.7448651 C45.8098949,78.6832382 45.7728834,78.6255177 45.7282573,78.5732575 L45.6820178,78.536048 L45.6346078,78.4985609 C45.5706022,78.4613035 45.5001591,78.4350755 45.4265302,78.4210876 C45.2835251,78.3897558 45.1368934,78.3758522 44.9901818,78.3797129 C44.7967868,78.3742811 44.6032961,78.3868368 44.4124811,78.4172 C44.3299358,78.4288074 44.2508184,78.4565094 44.1801132,78.4985609 C44.1227696,78.5445689 44.0932666,78.6146049 44.101389,78.6854411 C44.1067793,78.7679519 44.1400265,78.8466229 44.1962092,78.9098084 L44.588952,79.5357044 L44.588952,88.2910278 C44.5701809,88.4056086 44.6044208,88.5223028 44.6828942,88.6111955 C44.7406056,88.6534693 44.8081366,88.6820322 44.8798509,88.6945002 C45.0164251,88.7231365 45.1561926,88.7357267 45.2960061,88.7319873 C45.4375306,88.737881 45.5792367,88.7252669 45.7171364,88.6945002 L45.7188924,88.6928341 Z M59.007471,88.6906126 C59.452176,88.5765256 59.8669838,88.3758554 60.2255005,88.1013707 C60.5576647,87.8409599 60.8191085,87.5087106 60.9878663,87.1325371 C61.1719048,86.7055569 61.2615536,86.2472603 61.2512557,85.7860556 C61.2535978,85.3689222 61.1638769,84.9559437 60.9878663,84.5736946 C60.7910081,84.1701888 60.4703045,83.8325015 60.0677595,83.604861 C59.5281564,83.297003 58.9445319,83.0646852 58.3349502,82.9150981 L57.4783494,82.6832334 C57.164026,82.6038355 56.8545194,82.5081697 56.5512189,82.3966653 C56.3071711,82.3086176 56.0749479,82.1935064 55.8593828,82.0537276 C55.6835634,81.940003 55.5360424,81.7912158 55.4271316,81.6177664 C55.3236138,81.4394301 55.2719974,81.2381605 55.277585,81.0346335 C55.2755495,80.8154688 55.322426,80.5983771 55.4151327,80.3976303 C55.5091918,80.1981617 55.6506243,80.0220524 55.8283614,79.8830849 C56.0312596,79.7264052 56.2650719,79.6097214 56.5161003,79.5398696 C56.8286357,79.4533727 57.1531313,79.4120892 57.4786421,79.4174117 C57.8959988,79.4155124 58.3124047,79.4553483 58.7209619,79.5362597 C58.8317251,79.5601249 58.9406491,79.5911117 59.0469794,79.6290056 C59.1491159,79.6664927 59.2913462,79.7220292 59.4751334,79.7939489 C59.6589207,79.8658686 59.7762753,79.9147407 59.8286605,79.9386214 C59.9143164,79.9780698 60.008251,79.9986672 60.1034634,79.9988785 C60.1615306,79.9987232 60.2169787,79.9759316 60.2568145,79.9358446 C60.3134239,79.8769693 60.3598482,79.8099581 60.3943623,79.7373017 C60.4645483,79.6236697 60.5201575,79.5024799 60.560005,79.3763147 C60.5929104,79.2858063 60.6139447,79.1917977 60.6226331,79.0964109 C60.6123695,79.0376398 60.5814214,78.9839023 60.5348366,78.9439634 C60.4121994,78.8441671 60.2710857,78.7668626 60.1186814,78.7159862 C60.0601505,78.695993 59.9275778,78.6468433 59.7177443,78.5674261 C59.4366439,78.4681275 59.1475319,78.390586 58.8532419,78.3355614 C58.3949283,78.2533095 57.9289017,78.2160886 57.4625461,78.2244885 C56.9513719,78.2176948 56.4421411,78.2855964 55.9527397,78.4258082 C55.5384697,78.5440322 55.1537071,78.740598 54.8216287,79.0036651 C54.5132223,79.2531381 54.2695718,79.5667061 54.1095995,79.9200167 C53.9395884,80.3058684 53.8553988,80.7208788 53.8623061,81.1390421 C53.8521173,81.5126051 53.9258412,81.8839478 54.0785781,82.2283898 C54.2202602,82.5277347 54.4263026,82.7956856 54.6834956,83.0150638 C54.9604005,83.246922 55.2752142,83.4344934 55.6156013,83.5704284 C56.0012701,83.7279389 56.3979891,83.859877 56.802902,83.9652927 L57.5017618,84.1521729 C57.9068791,84.2571438 58.3045265,84.3865288 58.6922817,84.5395397 C59.0147032,84.6536705 59.3013638,84.8435032 59.5254701,85.0912944 C59.7184521,85.3468621 59.8143053,85.6570099 59.7973464,85.970992 C59.7947076,86.2630119 59.7091803,86.5489608 59.5497604,86.798763 C59.3463495,87.0960177 59.0432042,87.3194738 58.6893552,87.4329894 C58.2270642,87.5959891 57.7364044,87.6743829 57.2433476,87.6640211 C56.9798939,87.6637766 56.7168671,87.6439075 56.4566913,87.6045971 C56.1899161,87.5633645 55.9280849,87.4972328 55.6750102,87.4071649 C55.4465866,87.3290927 55.2266568,87.2302404 55.0182928,87.1119886 C54.9556646,87.0725578 54.8909879,87.0334046 54.8266038,86.9970282 C54.7622198,86.9606518 54.6963724,86.9203879 54.6337443,86.880957 C54.5643617,86.8253946 54.4800552,86.7892438 54.3902555,86.7765484 C54.2579692,86.7979151 54.1411912,86.8709447 54.0683351,86.9778681 C53.9818123,87.0918547 53.904151,87.2116674 53.8359672,87.336356 C53.7722817,87.431041 53.7306723,87.5375534 53.7139301,87.6487486 C53.717505,87.7180285 53.7435713,87.7845645 53.7885571,87.8392386 C53.8854523,87.9418871 54.0015454,88.0266207 54.1309633,88.0891527 C54.2611947,88.1630162 54.4189356,88.2482647 54.6027229,88.3418436 C54.8148992,88.4483333 55.036993,88.5359908 55.2661714,88.603698 C55.5620088,88.6913624 55.8641313,88.7586439 56.1701823,88.8050177 C56.5671257,88.8632286 56.9684335,88.8904402 57.3700671,88.8863786 C57.9234261,88.8940739 58.4751592,88.8276074 59.0089343,88.6889465 L59.007471,88.6906126 Z M62.9346064,88.6889465 C63.0156541,88.678392 63.0897463,88.6398299 63.142684,88.5806504 C63.1956436,88.4869848 63.2418903,88.3900391 63.2811097,88.2904724 L64.1298088,85.8440912 L68.2322444,85.8440912 L69.0897231,88.2904724 C69.1172128,88.406581 69.1706011,88.5157536 69.2462935,88.6106401 C69.3090751,88.6520919 69.3803838,88.6804809 69.4555417,88.6939448 C69.593524,88.7224505 69.7346301,88.7350374 69.875794,88.7314319 C70.0270398,88.7351169 70.178279,88.7238564 70.3270678,88.6978323 C70.3963659,88.6889101 70.4624541,88.6645505 70.5199274,88.6267457 C70.5675651,88.5871364 70.5960167,88.5307359 70.5986515,88.4706882 C70.5982052,88.4097955 70.5876373,88.3493508 70.5673374,88.2915831 L67.0306036,78.619075 C66.9926567,78.5241317 66.9162549,78.4475391 66.8184289,78.4063704 C66.6205133,78.3466392 66.4125549,78.3226219 66.205317,78.3355614 C66.0020229,78.3232827 65.798066,78.34605 65.6033259,78.4027605 C65.5057478,78.4427467 65.4323333,78.5222981 65.4034427,78.6193527 L61.9059246,88.1499651 C61.871592,88.2551268 61.8452827,88.3624971 61.8272004,88.4712436 C61.8223811,88.5221741 61.839124,88.5728303 61.8737326,88.6120285 C61.9314085,88.6519052 61.9970223,88.6802468 62.0665921,88.6953332 C62.3537386,88.746593 62.6485676,88.7452735 62.9351917,88.6914457 L62.9346064,88.6889465 Z M66.1728323,79.9999892 L67.8321852,84.7205886 L64.52899,84.7205886 L66.1728323,79.9999892 Z M74.0724646,88.6950555 C74.1468218,88.683337 74.2170986,88.6547592 74.2773229,88.6117508 C74.3556927,88.5228065 74.3899193,88.4061574 74.3712651,88.2915831 L74.3712651,79.6334485 L77.2240646,79.6334485 C77.3199868,79.6369949 77.4158752,79.6256455 77.5079398,79.599849 C77.5755953,79.5775282 77.6334729,79.5344354 77.6724118,79.4773911 C77.7187626,79.3816614 77.749454,79.2797838 77.7634275,79.1752727 C77.7872546,79.0332961 77.799096,78.889741 77.7988387,78.7459759 C77.8097563,78.6592892 77.7871947,78.5717854 77.7353326,78.4996717 C77.7135016,78.4817083 77.6881383,78.4680239 77.6607056,78.4594077 C77.6008503,78.4435739 77.5386753,78.4371024 77.4766257,78.4402476 L70.0051475,78.4402476 C69.9100136,78.4376796 69.8149657,78.4476795 69.7227356,78.4699596 C69.6546763,78.4902026 69.5963287,78.5325848 69.5579709,78.5896407 C69.5055456,78.6913387 69.4720786,78.8008833 69.4590535,78.9134183 C69.4364736,79.0504054 69.4246374,79.1887934 69.4236423,79.3274426 C69.4140534,79.4126347 69.4394167,79.4980578 69.4944648,79.5659717 L69.5652873,79.6109563 C69.6234243,79.6296591 69.6849219,79.6371182 69.7461479,79.6328932 L72.890139,79.6328932 L72.890139,88.2915831 C72.8715695,88.4062884 72.9061383,88.5230126 72.9849591,88.6117508 C73.0450592,88.6549624 73.1153909,88.6835625 73.1898175,88.6950555 C73.3292242,88.7233247 73.4716563,88.7359072 73.6141671,88.7325426 C73.7672609,88.7366563 73.9203463,88.7240782 74.070416,88.6950555 L74.0724646,88.6950555 Z M84.3505028,88.5351105 C84.917917,88.3013291 85.4218143,87.9480825 85.8240199,87.5021323 C86.2572255,87.0127235 86.5833452,86.4463383 86.7833425,85.8360384 C87.2383724,84.3570524 87.2383724,82.7854705 86.7833425,81.3064845 C86.5828675,80.6927684 86.2568817,80.1225584 85.8240199,79.6284503 C85.4234754,79.1779977 84.919379,78.8207166 84.3505028,78.5840871 C83.7576463,78.3413264 83.117615,78.2195663 82.4719513,78.2267099 C81.8224048,78.2195128 81.1784467,78.3412424 80.581401,78.5840871 C80.0111624,78.8203954 79.505659,79.1776803 79.1037867,79.6284503 C78.6714922,80.1227912 78.345836,80.6929464 78.1453421,81.3064845 C77.6887596,82.7852595 77.6887596,84.3572634 78.1453421,85.8360384 C78.3453575,86.4461593 78.671147,87.0124894 79.1037867,87.5021323 C79.5072978,87.948421 80.0126076,88.3016756 80.581401,88.5351105 C81.1791917,88.7752546 81.8228325,88.8956007 82.4719513,88.8886001 C83.1171861,88.8955621 83.7569015,88.775186 84.3505028,88.5351105 L84.3505028,88.5351105 Z M81.1591017,87.3899486 C80.7723818,87.2017459 80.4396487,86.9272029 80.1895362,86.5899459 C79.9061734,86.2021925 79.7023445,85.7672528 79.5887158,85.3078866 C79.3167207,84.1637693 79.3167207,82.9765322 79.5887158,81.8324148 C79.7026141,81.3683206 79.9063404,80.928327 80.1895362,80.5348053 C80.4392521,80.1946962 80.7722744,79.9172092 81.1599796,79.7261944 C81.5674949,79.5340471 82.0178542,79.4380291 82.4728293,79.4462907 C82.9239466,79.4381724 83.3703819,79.5342318 83.7736801,79.7261944 C84.1596211,79.9178813 84.4909644,80.1953079 84.7394411,80.5348053 C85.0231094,80.928213 85.2272399,81.3682224 85.3414321,81.8324148 C85.6134272,82.9765322 85.6134272,84.1637693 85.3414321,85.3078866 C85.2275055,85.767351 85.0232724,86.202306 84.7394411,86.5899459 C84.4900803,86.9259884 84.1587339,87.1997974 83.7736801,87.3880049 C83.3695592,87.5773756 82.923468,87.6720278 82.4728293,87.6640211 C82.0183289,87.672171 81.5683112,87.5775583 81.1599796,87.3880049 L81.1591017,87.3899486 Z M90.1836992,88.6931117 L90.1810653,88.6939448 C90.0336361,88.7227794 89.8831899,88.7353585 89.7327181,88.7314319 C89.5536476,88.7413462 89.3741372,88.7212304 89.2024275,88.6720079 C89.1263793,88.651927 89.0658297,88.5972853 89.040882,88.5262247 C89.0293706,88.4485068 89.0242824,88.3700538 89.025664,88.2915831 L89.025664,78.8795411 C89.014011,78.7583062 89.053593,78.6376445 89.1357022,78.5441008 C89.3181478,78.4504956 89.52709,78.413955 89.7327181,78.4396923 L92.1766787,78.4396923 C93.4864067,78.4404328 94.4492411,78.6755371 95.065182,79.1450054 C95.6811229,79.6144736 95.9890934,80.326451 95.9890934,81.2809377 C95.9975177,81.7682503 95.8941642,82.2514733 95.6861956,82.6971175 C95.5024845,83.094246 95.2058772,83.4350034 94.8295949,83.6812236 C94.4653047,83.9173268 94.0633181,84.0962231 93.639075,84.2110415 L96.6335194,88.2002256 C96.6639955,88.2436412 96.6891324,88.290225 96.708439,88.3390668 C96.7254127,88.3810349 96.7346203,88.4254691 96.7356559,88.4704105 C96.7361191,88.5491873 96.6819518,88.6188826 96.6024979,88.6417405 C96.3700564,88.7166348 96.1242417,88.7469341 95.8793478,88.7308765 C95.7280779,88.7324784 95.5768801,88.7238484 95.4269034,88.7050521 C95.3431979,88.7006066 95.2623103,88.6747997 95.1927795,88.6303555 C95.1621593,88.6018805 95.13443,88.5707354 95.1099582,88.537332 L92.0841998,84.397644 C91.7341846,84.3980143 91.1976507,84.3756146 90.4745981,84.3304449 L90.4745981,88.2896393 C90.489637,88.4018647 90.4617002,88.5154827 90.395874,88.6098071 C90.3320279,88.6512798 90.2597623,88.6796529 90.1836992,88.6931117 Z M90.4719642,83.1908367 L90.4743054,83.190559 C90.919531,83.210367 91.4355791,83.220271 92.0224496,83.220271 C92.4155193,83.2285337 92.807666,83.180701 93.1857526,83.0783753 C93.4664297,83.0014015 93.725543,82.8661423 93.944314,82.6824004 C94.1328939,82.5160027 94.2739547,82.306973 94.3543234,82.0748315 C94.440902,81.8233779 94.4835103,81.5601714 94.4804577,81.2956549 C94.49892,80.9341645 94.4027946,80.5757182 94.2044841,80.2665642 C94.0069949,79.9984494 93.7114772,79.8096034 93.3753929,79.7367464 C92.9790278,79.6392909 92.5709028,79.5915854 92.1614606,79.5948507 L90.4719642,79.5948507 L90.4719642,83.1908367 Z M99.2606819,88.6936671 C99.3368836,88.6806542 99.4092446,88.6522436 99.4728567,88.6103624 C99.5386829,88.5160381 99.5666198,88.4024201 99.5515808,88.2901947 L99.5515808,78.8195617 C99.5662856,78.7070892 99.5383838,78.5933187 99.4728567,78.4985609 C99.4088181,78.4578184 99.336573,78.4301151 99.2606819,78.4172 C99.1135551,78.3883284 98.963395,78.3757486 98.8132127,78.3797129 C98.66372,78.3768162 98.5144442,78.3919318 98.3689626,78.4246974 C98.282293,78.436174 98.2035437,78.4787011 98.1488862,78.5435455 C98.1133219,78.6314316 98.0985359,78.7256569 98.1055732,78.8195617 L98.1055732,88.2910278 C98.1037926,88.3695358 98.109178,88.4480427 98.1216693,88.5256693 C98.1459448,88.596829 98.2063307,88.6516207 98.2823368,88.6714525 C98.4543362,88.720727 98.6341444,88.7408428 98.8135053,88.7308765 C98.9636877,88.7348409 99.1138477,88.7222611 99.2609746,88.6933894 L99.2606819,88.6936671 Z" id="text" fill="#FFFFFF"></path>
                                            <path d="M12.4474889,20.3594528 C12.5605132,22.090734 14.1931186,23.9795629 15.606358,25.3300552 C23.994271,33.3388293 36.3066545,37.3333333 48.6210719,37.3333333 C61.0351483,37.3333333 73.451549,33.2728453 81.8473069,25.1725075 C83.8230528,23.2889108 84.7563021,21.9610914 85.0950845,21.2774155 C85.603839,20.3763122 85.2339678,19.8429171 84.5863299,19.5420649 C84.0775753,19.2877212 83.1062638,19.4031206 82.7131484,19.4725927 C81.8046394,19.6356584 80.9347855,19.9678389 80.1487465,20.4518886 C70.0204338,26.0980278 64.5359956,27.8653531 55.7116753,28.361832 C43.0515023,29.0737037 33.6376542,26.2262171 21.6393562,18.7147939 C20.2537172,17.8739695 18.6027926,17.5849126 17.0140769,17.9049636 C15.6051958,18.1482615 12.3306875,18.5735241 12.4474889,20.3597435" id="pebble-3" fill="#FFFFFF"></path>
                                            <path d="M85.0640006,35.5558331 C83.9202865,35.5558331 82.562307,35.9966524 81.7217495,36.3239356 C71.9736536,40.0814176 61.5624972,42.0056064 51.0560238,41.9915716 C44.5243164,42.0048027 38.0160702,41.2419915 31.6800591,39.7205754 C30.5251421,39.4336724 29.3371561,39.2872479 28.1441005,39.2847529 C24.9897659,39.2847529 21.5800502,40.2133047 19.5520569,40.9866815 C17.8321425,41.6423584 15.8238384,42.8551664 16.0123341,44.7483573 C16.2008298,46.6415481 18.8499033,47.6980707 20.4751355,47.9517916 C27.626968,49.0693849 44.2470159,50.8942877 59.9494867,48.8614671 C68.4372931,47.6320034 76.8880373,45.8959307 84.0879348,41.0363708 C85.4656035,40.1061534 87.6829612,38.2781972 86.9750166,36.5510075 C86.6707018,35.8073333 85.9285906,35.5555556 85.0640006,35.5555556" id="pebble-4" fill="#B2E6EE"></path>
                                            <path d="M46.6376226,55.1111111 C42.4620502,55.1111111 37.3910496,56.291587 35.3835851,57.7083863 C34.4031955,58.4005173 33.9627306,59.066961 33.8067266,59.9326243 C33.5187861,61.5389391 35.4624571,61.6930631 35.9327889,61.6930631 C36.5743563,61.6920889 37.2096681,61.5689029 37.8036773,61.3303008 C43.557848,59.0983566 49.0991805,59.3215511 49.9354549,59.3215511 C54.1588724,59.4611189 58.0343255,59.9300555 62.3505335,61.7475773 C62.7540953,61.9379564 63.1748308,62.0908408 63.6072648,62.2042411 C63.6583846,62.2155968 63.7105769,62.2216237 63.7629789,62.2222222 C64.0117734,62.2222222 64.0123533,62.072094 63.9920554,61.9208241 C63.9450802,61.5720472 63.664389,60.8333935 62.7767898,60.1132919 C58.8743695,56.9488974 52.6663952,55.1111111 46.6376226,55.1111111 Z" id="pebble-5" fill="#66CDDE"></path>
                                            <path d="M74.5461362,10.7263987 C76.2253314,10.9882158 76.5876916,12.4906957 76.3994488,13.5167186 C76.1300513,14.7750292 75.4744922,15.8969491 74.5400825,16.6988268 C67.1709381,23.2320681 61.3261859,24.8888889 54.370138,24.8888889 C49.4075037,24.8888889 44.348586,23.4988841 39.3110006,19.9334233 C37.1699907,18.5159245 37.0840851,17.0715567 37.5888526,16.5248028 C37.8861208,16.2782859 38.2578383,16.1614612 38.6306743,16.1973752 C39.350548,16.216137 40.0577121,16.4069961 40.7016336,16.756314 C43.5007726,18.1100769 46.7478892,18.7464985 50.1526916,18.7464985 C57.1606288,18.7464985 63.4769971,16.5704177 69.5506387,12.1035939 C70.980477,11.0516393 72.9084525,10.4714552 74.5461362,10.7263987 Z" id="pebble-2" fill="#66CDDE"></path>
                                            <path d="M29.455355,0 C26.8922715,0 25.675937,1.63352827 27.6370843,4.26270805 C28.9542728,6.03208877 32.7586145,8.09116809 37.4036963,9.96311291 C39.2187791,10.6945569 44.8109615,12.4444444 51.9353717,12.4444444 C55.7873831,12.4374832 59.6210506,11.8953273 63.3336165,10.8325086 C64.4772085,10.5062228 65.8442444,9.56305293 65.7752695,8.27980207 C65.7265814,7.3900135 64.8078823,7.17528865 63.9401898,7.17558854 C63.5923171,7.17813008 63.2450814,7.20679538 62.9012193,7.26135852 C60.4473325,7.65464112 57.9683873,7.85683814 55.4852598,7.86624681 C48.2727473,7.86624681 41.6862253,6 35.1599838,1.92112761 C33.0362529,0.593792173 31.0009141,0 29.455355,0" id="pebble-1" fill="#FFFFFF"></path>
                                        </g>
                                    </g>
                                </g>
                            </g>
                        </g>
                    </g>
                </g>
            </g>
        </g>
    </g>
</svg>