<?xml version="1.0" encoding="UTF-8" standalone="no"?>
<svg width="128px" height="128px" viewBox="0 0 128 128" version="1.1" xmlns="http://www.w3.org/2000/svg" xmlns:xlink="http://www.w3.org/1999/xlink">
    <!-- Generator: Sketch 44 (41411) - http://www.bohemiancoding.com/sketch -->
    <title>sensimar-logo</title>
    <desc>Created with Sketch.</desc>
    <defs>
        <rect id="path-1" x="0" y="0" width="128" height="128"></rect>
        <rect id="path-3" x="0" y="0" width="128" height="128"></rect>
    </defs>
    <g id="Page-1" stroke="none" stroke-width="1" fill="none" fill-rule="evenodd">
        <g id="sensimar" transform="translate(-619.000000, -832.000000)">
            <g id="usp's" transform="translate(0.000000, 768.000000)">
                <g id="header" transform="translate(580.000000, 64.000000)">
                    <g id="logo/m7-logo" transform="translate(39.000000, 0.000000)">
                        <g>
                            <g id="product-bg">
                                <mask id="mask-2" fill="white">
                                    <use xlink:href="#path-1"></use>
                                </mask>
                                <use id="Mask" fill="#D8D8D8" xlink:href="#path-1"></use>
                                <g id="fill/sensimar-blue" mask="url(#mask-2)" fill="#002841">
                                    <g transform="translate(-10.666667, -24.888889)" id="fill">
                                        <rect x="0" y="0" width="181" height="181"></rect>
                                    </g>
                                </g>
                            </g>
                            <g id="product-logo/sensimar">
                                <g id="product-logo">
                                    <mask id="mask-4" fill="white">
                                        <use xlink:href="#path-3"></use>
                                    </mask>
                                    <g id="Mask"></g>
                                    <g id="sensimar-icon" mask="url(#mask-4)">
                                        <g transform="translate(14.222222, 26.666667)">
                                            <path d="M89.8186769,69.5076172 L89.8186769,65.8390238 L91.4558767,65.8390238 C91.8527562,65.8353046 92.2484083,65.8836728 92.6327039,65.9828902 C92.9580957,66.057463 93.2441884,66.2502423 93.4354785,66.5238279 C93.6261762,66.8397957 93.7183398,67.2054445 93.7001927,67.5740527 C93.7037466,67.8445456 93.6629224,68.1137909 93.5793449,68.3710726 C93.5007749,68.6087494 93.3631619,68.822594 93.1793963,68.9925755 C92.9677159,69.1795911 92.7170927,69.3171882 92.4456776,69.3954014 C92.0791266,69.500028 91.698843,69.5485336 91.3177649,69.5392678 C90.7422993,69.5392678 90.2426033,69.5287176 89.8186769,69.5076172 L89.8186769,69.5076172 Z M89.5309441,75.1270392 C89.604146,75.1138832 89.6737546,75.0854515 89.7352344,75.0435967 C89.7996497,74.9471218 89.8272234,74.8306995 89.8129223,74.7155812 L89.8129223,70.6729351 C90.5130721,70.7189724 91.0329094,70.741991 91.3724342,70.741991 L94.3044316,74.9659088 C94.3281874,75.0000638 94.3551661,75.0318601 94.3849968,75.0608606 C94.4525365,75.1060393 94.5311358,75.1319074 94.6123057,75.1356712 C94.7572696,75.1548964 94.9034399,75.1635512 95.0496596,75.1615671 C95.2874908,75.1783302 95.5262619,75.147016 95.7517277,75.0694926 C95.8291943,75.0464009 95.8820097,74.9748067 95.8812075,74.8939756 C95.8804187,74.8486778 95.8716526,74.8038735 95.8553115,74.7616185 C95.8366581,74.7120904 95.8125308,74.6648008 95.7833783,74.6206294 L92.8859088,70.5520873 C93.2961232,70.4347803 93.6847501,70.2521256 94.0368401,70.0111496 C94.4004268,69.7592919 94.6872325,69.4117392 94.8655106,69.0069621 C95.0633763,68.5535572 95.1615022,68.0629278 95.1532434,67.568298 C95.1532434,66.5938429 94.8549604,65.8668379 94.2583943,65.3872832 C93.6618283,64.9077285 92.729574,64.6679512 91.4616313,64.6679512 L89.0935902,64.6679512 C88.8953544,64.6423592 88.6940845,64.6795941 88.5181246,64.7744123 C88.438967,64.8700923 88.4007151,64.9931183 88.4116635,65.1168144 L88.4116635,74.7242132 C88.4100764,74.8040757 88.4148873,74.883937 88.4260501,74.9630315 C88.4493735,75.035868 88.5077613,75.0920933 88.5814258,75.1126525 C88.7480944,75.163514 88.9225527,75.1839811 89.0964676,75.1730764 C89.2422468,75.1772566 89.3880245,75.1647062 89.5309441,75.1356712 L89.5309441,75.1270392 Z M82.867052,66.2504817 L84.4812331,71.0700064 L81.2816442,71.0700064 L82.867052,66.2504817 Z M79.7307643,75.1241618 C79.8088644,75.1131178 79.8803695,75.0743007 79.9321773,75.0148234 C79.9825323,74.9219057 80.026746,74.8257889 80.0645344,74.7270906 L80.8874502,72.2295697 L84.8811818,72.2295697 L85.7098523,74.7270906 C85.7360888,74.8462645 85.7881446,74.9582337 85.8623507,75.055106 C85.9229725,75.096592 85.9915642,75.1250085 86.0637636,75.1385485 C86.1979861,75.1672138 86.335148,75.1797708 86.4723443,75.1759538 C86.6189333,75.1797004 86.7655129,75.1681284 86.9096981,75.1414258 C86.9768202,75.1324526 87.0408889,75.1078108 87.0967245,75.0694926 C87.1420529,75.0290415 87.1690454,74.9719418 87.171535,74.9112396 C87.1707764,74.8495091 87.1600896,74.7883029 87.1398844,74.7299679 L83.7129865,64.8549775 C83.6760707,64.7579153 83.6012941,64.6800231 83.5058189,64.6391779 C83.3145072,64.578216 83.1134293,64.5538133 82.9130893,64.5672447 C82.7186777,64.5555443 82.5237474,64.5789359 82.3376236,64.6363006 C82.2435926,64.6777805 82.1729273,64.7589929 82.1448426,64.8578548 L78.75535,74.5889788 C78.7225534,74.6963749 78.6975516,74.8059982 78.6805395,74.9169942 C78.6760089,74.9691788 78.692592,75.021001 78.7265768,75.0608606 C78.7825446,75.1011929 78.8462032,75.1295944 78.9136031,75.1443031 C79.1910859,75.1980336 79.4763001,75.1980336 79.7537829,75.1443031 L79.7307643,75.1241618 Z M69.5277585,75.1443031 C69.6019142,75.1313679 69.672507,75.1029347 69.7349261,75.0608606 C69.7983356,74.9640074 69.8248814,74.8476143 69.8097367,74.7328452 L69.8097367,67.3697624 L72.1115992,71.110289 C72.1561213,71.1876241 72.2158236,71.2551563 72.2871162,71.3088247 C72.3534988,71.3646125 72.4342872,71.4005185 72.5201798,71.4124085 C72.6477138,71.432138 72.776715,71.4408022 72.9057418,71.4383044 C73.1271223,71.4669222 73.3517465,71.4213903 73.5445087,71.3088247 L73.5963006,71.2627874 C73.6440034,71.2183031 73.6847419,71.1668949 73.7171484,71.110289 L76.0391522,67.1453308 L76.0391522,74.7270906 C76.0240075,74.8418596 76.0505533,74.9582528 76.1139627,75.055106 C76.1745846,75.096592 76.2431763,75.1250085 76.3153757,75.1385485 C76.4495982,75.1672138 76.5867601,75.1797708 76.7239563,75.1759538 C76.8747705,75.1797231 77.0254868,75.1652312 77.1728195,75.1327938 C77.2533791,75.1207042 77.3263711,75.0785539 77.3771098,75.0148234 C77.4149344,74.9238858 77.4307097,74.8252901 77.4231471,74.7270906 L77.4231471,65.0592678 C77.4253606,64.9799681 77.4176274,64.9007035 77.4001285,64.8233269 C77.3735252,64.7546248 77.3192095,64.7003091 77.2505074,64.6737058 C77.0800266,64.6173718 76.9001811,64.5948912 76.721079,64.6075273 C76.5696448,64.6004974 76.4180697,64.6179868 76.2722158,64.6593192 C76.1648638,64.7050995 76.0764918,64.7863611 76.0218882,64.8895055 L72.969043,69.9823764 L69.6716249,64.8895055 C69.5980668,64.7763291 69.4836484,64.695927 69.3522415,64.6650739 C69.1520248,64.6210439 68.9471665,64.6017176 68.7422479,64.6075273 C68.5425246,64.6011628 68.3429198,64.6234488 68.1495183,64.6737058 C68.048423,64.6803574 67.9639338,64.7531119 67.9423507,64.8521002 C67.9534588,64.9897524 68.0033406,65.1214403 68.0862171,65.2319075 L68.4142325,65.7728452 L68.4142325,74.7270906 C68.3960893,74.8445967 68.429664,74.9642065 68.506307,75.055106 C68.5594385,75.0966077 68.6214992,75.1251753 68.6875787,75.1385485 C68.8178239,75.1677426 68.9512441,75.1803112 69.08465,75.1759538 C69.2304313,75.1802103 69.3762178,75.1676592 69.5191265,75.1385485 L69.5277585,75.1443031 Z M65.7785999,75.1385485 C65.8518018,75.1253925 65.9214104,75.0969608 65.9828902,75.055106 C66.0462996,74.9582528 66.0728454,74.8418596 66.0577007,74.7270906 L66.0577007,65.0592678 C66.0725875,64.9445109 66.046062,64.8282065 65.9828902,64.7312524 C65.9212505,64.6896962 65.8517068,64.6612911 65.7785999,64.6478099 C65.6356695,64.6188498 65.4899003,64.6063001 65.3441233,64.6104046 C65.1998415,64.6074967 65.0557763,64.6229668 64.9154014,64.6564419 C64.8315871,64.6680205 64.7553923,64.7112661 64.7024791,64.7772897 C64.6676196,64.8689599 64.6538514,64.9673036 64.6621965,65.0650225 L64.6621965,74.7328452 C64.6606095,74.8127077 64.6654204,74.892569 64.6765832,74.9716635 C64.6999066,75.0445 64.7582944,75.1007253 64.8319589,75.1212845 C64.9986275,75.1721459 65.1730858,75.1926131 65.3470006,75.1817084 C65.4927791,75.1858633 65.638554,75.1733132 65.7814772,75.1443031 L65.7785999,75.1385485 Z M60.83535,75.1443031 C61.2658512,75.0273568 61.6675032,74.8226122 62.0150546,74.5429416 C62.3373825,74.2771095 62.5910125,73.9376204 62.7545279,73.5531407 C62.9328455,73.1169638 63.0199948,72.6489033 63.0106101,72.1777778 C63.0125452,71.7520072 62.925313,71.3305482 62.7545279,70.9405267 C62.5686873,70.5168192 62.2573642,70.1603041 61.8625562,69.9190751 C61.33904,69.6049254 60.7731529,69.3675241 60.1821965,69.2141297 L59.353526,68.9781888 C59.0493402,68.8984472 58.749665,68.8023974 58.4557996,68.690456 C58.2190007,68.6008819 57.993896,68.4830159 57.7853821,68.339422 C57.6141684,68.223568 57.4707097,68.0712659 57.3652922,67.8934361 C57.2656934,67.7120859 57.2160456,67.507537 57.2214258,67.3007065 C57.2193515,67.0770545 57.2644512,66.8554776 57.3537829,66.6504303 C57.4444093,66.4462417 57.5813419,66.2659636 57.7537315,66.1238793 C57.9497698,65.9638808 58.1757228,65.8445463 58.4183943,65.7728452 C58.7210033,65.6839672 59.0352966,65.6412854 59.3506487,65.6462428 C59.7547887,65.6451373 60.1579209,65.6866078 60.5533719,65.7699679 C60.6609925,65.7940713 60.7667616,65.825802 60.869878,65.8649197 L61.2842132,66.0318048 C61.4626076,66.1066153 61.5719461,66.1555299 61.6266153,66.1814258 C61.7101984,66.2212471 61.8016224,66.2418912 61.8942068,66.2418497 C61.9511217,66.2415956 62.0053504,66.2176098 62.0438279,66.1756712 C62.0977617,66.1155231 62.1423762,66.0476313 62.176185,65.9742582 C62.2434923,65.8582714 62.2966238,65.7346198 62.334438,65.6059602 C62.3667972,65.5130268 62.3871042,65.4163271 62.3948619,65.3182274 C62.3851892,65.2585671 62.3558125,65.2038657 62.3114194,65.1628516 C62.1926608,65.0609938 62.0560889,64.9819772 61.9085934,64.9297881 L61.5201541,64.7772897 C61.2478984,64.6761127 60.9678777,64.5972065 60.6828516,64.5413487 C60.2391088,64.4570111 59.7878809,64.4184446 59.336262,64.4262556 C58.8412865,64.4198364 58.3482765,64.4897119 57.8745793,64.6334232 C57.4730523,64.753937 57.100122,64.954595 56.7783173,65.2232755 C56.4793376,65.4777864 56.2430362,65.797778 56.0877585,66.1584072 C55.9228514,66.5527178 55.8415322,66.9769493 55.8489403,67.4042903 C55.8395141,67.7852037 55.9111091,68.1637745 56.0589852,68.514939 C56.1926216,68.8197926 56.3886559,69.0932604 56.6344509,69.3177136 C56.9023885,69.5572916 57.2075395,69.7516553 57.5379319,69.8931792 C57.9119048,70.0536356 58.2964528,70.1882274 58.6888632,70.2960051 L59.3679127,70.4859088 C59.7595744,70.5926146 60.1440041,70.7242818 60.5188439,70.8801028 C60.8332082,70.9994811 61.1116212,71.1976398 61.3273732,71.4555684 C61.5138208,71.7165125 61.6061391,72.0330325 61.58921,72.3532948 C61.5873365,72.6516485 61.5048179,72.9439432 61.3503918,73.1992293 C61.1535541,73.5032631 60.8593739,73.7315064 60.5159666,73.8466281 C60.0680088,74.0131998 59.5925132,74.0932628 59.1147078,74.082569 C58.8593482,74.0825633 58.6043891,74.062359 58.3522158,74.0221452 C58.09387,73.9804789 57.8403552,73.9130035 57.5954785,73.8207322 C57.3748138,73.7453463 57.161878,73.6489953 56.959589,73.5329994 L56.7725626,73.4150289 L56.5855363,73.2970584 C56.5184331,73.2401413 56.4366719,73.2032491 56.3495954,73.1905973 C56.2211024,73.2118866 56.107377,73.2859646 56.0359666,73.3948876 C55.9524967,73.5111594 55.8774928,73.633281 55.811535,73.7603083 C55.7499876,73.8571891 55.7097726,73.9660639 55.6935645,74.0796917 C55.6970243,74.1498457 55.7221565,74.2171999 55.7654978,74.2724727 C55.8628207,74.3767653 55.9789981,74.4617016 56.1078998,74.5228003 C56.2345022,74.599529 56.3870006,74.6858489 56.565395,74.7817598 C56.771644,74.8903863 56.9873799,74.9799552 57.2099165,75.0493513 C57.4923645,75.1388186 57.7808275,75.2080497 58.073115,75.2565189 C58.4538727,75.3153962 58.8387777,75.3433019 59.2240462,75.3399615 C59.7603009,75.3476511 60.2949704,75.2798488 60.8123314,75.1385485 L60.83535,75.1443031 Z M47.9391651,75.1385485 C47.9993977,75.1233792 48.0554491,75.0948618 48.1031728,75.055106 C48.1844094,74.9665839 48.2204776,74.8456496 48.2010019,74.7270906 L48.2010019,67.5884393 L52.804727,74.9112396 C52.8273022,74.9675241 52.8639614,75.0170636 52.9111882,75.055106 C52.9653413,75.0905869 53.0259643,75.1150317 53.0895825,75.1270392 C53.2211285,75.1538823 53.355331,75.1654681 53.4895311,75.1615671 C53.6232512,75.1657127 53.7568959,75.1511861 53.8866024,75.1184072 C53.9594083,75.102547 54.0238895,75.0605831 54.0678741,75.0004367 C54.1056987,74.9094992 54.121474,74.8109034 54.1139114,74.7127039 L54.1139114,65.0448812 C54.1161858,64.9655793 54.1084519,64.8863071 54.0908927,64.8089403 C54.062051,64.7386718 54.0044138,64.6841785 53.9326397,64.6593192 C53.6248524,64.579473 53.3026757,64.5725762 52.9917534,64.6391779 C52.9154676,64.6540464 52.8476281,64.697217 52.8018497,64.7600257 C52.7659157,64.8514458 52.7511597,64.9498188 52.7586898,65.0477585 L52.7586898,72.4712653 L48.0801541,64.9700706 C48.0523245,64.9072501 48.016545,64.8482623 47.973693,64.7945536 L47.9276557,64.7571484 L47.8816185,64.7197431 C47.819862,64.6810141 47.7516354,64.6537235 47.6802055,64.6391779 C47.5414502,64.6081503 47.399356,64.5946175 47.2572383,64.5988953 C47.0704004,64.5933472 46.8834638,64.6058739 46.6990366,64.6363006 C46.619203,64.6480713 46.5427376,64.6765007 46.474605,64.7197431 C46.4194164,64.7665053 46.3913275,64.8378081 46.3997945,64.9096468 C46.4051337,64.9933714 46.4374358,65.0731172 46.491869,65.1369557 L46.8716763,65.7757225 L46.8716763,74.7127039 C46.8535331,74.83021 46.8871078,74.9498199 46.9637508,75.0407193 C47.0195022,75.0832624 47.0846106,75.1118707 47.1536545,75.1241618 C47.2859248,75.1528635 47.4211869,75.1654235 47.5564804,75.1615671 C47.6937429,75.1678105 47.8312139,75.1552252 47.965061,75.1241618 L47.9391651,75.1385485 Z M44.9496211,75.0982659 C45.0465784,75.1022594 45.1435829,75.0915889 45.2373539,75.0666153 C45.3038693,75.0470607 45.3610876,75.004147 45.3984843,74.9457675 C45.4487377,74.8418715 45.4799242,74.7297951 45.4905588,74.6148748 C45.5103776,74.4747328 45.5209506,74.3334383 45.5222094,74.1919075 C45.5325866,74.1039279 45.5111546,74.015138 45.4617855,73.94158 C45.3903208,73.8923693 45.3033721,73.8708878 45.2172126,73.8811561 L40.4724984,73.8811561 L40.4724984,70.0341683 L44.1641105,70.0341683 C44.2610482,70.0376104 44.3579716,70.0269488 44.4518433,70.0025177 C44.5183587,69.9829631 44.575577,69.9400494 44.6129737,69.8816699 C44.6626653,69.785713 44.6938979,69.681279 44.7050482,69.5737958 C44.7281227,69.4291557 44.7396684,69.2829109 44.7395761,69.1364419 C44.7502132,69.048447 44.7287596,68.9595675 44.6791522,68.8861143 C44.6581845,68.8672203 44.6337574,68.852564 44.607219,68.8429544 C44.5490208,68.8279181 44.4888261,68.8220928 44.4288247,68.8256904 L40.4724984,68.8256904 L40.4724984,65.8908157 L44.8863198,65.8908157 C44.9834912,65.8956035 45.0807728,65.8839297 45.1740527,65.8562877 C45.2396922,65.8333587 45.2955273,65.7886907 45.3323057,65.7296853 C45.3778325,65.6323104 45.4079251,65.5284424 45.4215029,65.4218112 C45.4446747,65.2771827 45.4562209,65.1309301 45.4560308,64.9844573 C45.4669324,64.8964471 45.4454566,64.8074758 45.3956069,64.7341297 C45.374616,64.7159532 45.3501399,64.7022466 45.3236737,64.6938471 C45.2656288,64.677842 45.2054317,64.6710455 45.1452794,64.6737058 L39.741657,64.6737058 C39.5434159,64.6479172 39.3420859,64.6851632 39.1661914,64.780167 C39.0867531,64.8756947 39.0484645,64.9988392 39.0597303,65.122569 L39.0597303,74.669544 C39.0503797,74.7863585 39.0830299,74.9026748 39.1518048,74.9975594 C39.1995284,75.0373153 39.2555798,75.0658326 39.3158125,75.0810019 C39.4564514,75.11228 39.6006037,75.124857 39.7445344,75.1184072 L44.9524984,75.1184072 L44.9496211,75.0982659 Z M35.2300064,75.1184072 C35.6604476,75.0013054 36.062069,74.7965764 36.409711,74.5170456 C36.7320389,74.2512136 36.9856689,73.9117244 37.1491843,73.5272447 C37.3275019,73.0910679 37.4146512,72.6230074 37.4052665,72.1518818 C37.4072016,71.7261112 37.3199694,71.3046523 37.1491843,70.9146307 C36.9583479,70.4999834 36.6463606,70.1528849 36.2543353,69.9190751 C35.7318051,69.6050001 35.1668778,69.3675949 34.5768529,69.2141297 L33.7481824,68.9781888 C33.4439669,68.8985492 33.1442862,68.8024977 32.850456,68.690456 C32.6136802,68.6008306 32.3885814,68.4829677 32.1800385,68.339422 C32.0091318,68.2232077 31.8657441,68.070981 31.7599486,67.8934361 C31.6602198,67.7121364 31.6105634,67.5075518 31.6160822,67.3007065 C31.6140079,67.0770545 31.6591076,66.8554776 31.7484393,66.6504303 C31.8390657,66.4462417 31.9759983,66.2659636 32.1483879,66.1238793 C32.3453228,65.9636094 32.5722709,65.8442661 32.8159281,65.7728452 C33.1185371,65.6839672 33.4328303,65.6412854 33.7481824,65.6462428 C34.1523224,65.6451373 34.5554546,65.6866078 34.9509056,65.7699679 C35.0585461,65.7939952 35.1643206,65.8257276 35.2674117,65.8649197 L35.6817469,66.0318048 C35.8582231,66.1046971 35.9723571,66.1545708 36.024149,66.1814258 C36.1068236,66.2209219 36.1972392,66.2415603 36.2888632,66.2418497 C36.345704,66.2412514 36.3998019,66.2173235 36.4384843,66.1756712 C36.4926291,66.1156858 36.5372658,66.0477604 36.5708414,65.9742582 C36.6391207,65.858395 36.6932192,65.7347413 36.7319717,65.6059602 C36.7640618,65.5129522 36.7843614,65.4162871 36.7923956,65.3182274 C36.7829385,65.2584943 36.753526,65.2037263 36.7089531,65.1628516 C36.5904287,65.060664 36.4537919,64.9816098 36.3061272,64.9297881 L35.9176879,64.7772897 C35.6454204,64.6761488 35.3654026,64.5972434 35.0803854,64.5413487 C34.636626,64.4571314 34.1854105,64.4185659 33.7337958,64.4262556 C33.2388261,64.419928 32.74583,64.4898015 32.272113,64.6334232 C31.8706472,64.7540847 31.4977453,64.9547274 31.175851,65.2232755 C30.8793494,65.4848827 30.6478447,65.8119446 30.4996789,66.1785485 C30.3347718,66.5728591 30.2534526,66.9970906 30.2608606,67.4244316 C30.2514345,67.805345 30.3230295,68.1839158 30.4709056,68.5350803 C30.6045419,68.8399339 30.8005762,69.1134017 31.0463712,69.3378548 C31.3134059,69.5772111 31.6175738,69.7715677 31.946975,69.9133205 C32.3210001,70.0736425 32.7055387,70.208231 33.0979062,70.3161464 L33.7740784,70.5060501 C34.1657309,70.6127859 34.5501587,70.7444525 34.9250096,70.9002441 C35.2383932,71.0199387 35.515799,71.2180857 35.7306615,71.4757097 C35.9171092,71.7366538 36.0094275,72.0531738 35.9924984,72.3734361 C35.9906248,72.6717898 35.9081063,72.9640845 35.7536802,73.2193706 C35.5565036,73.523093 35.2624449,73.751242 34.919255,73.8667694 C34.4712791,74.0332736 33.9957965,74.1133343 33.5179961,74.1027103 C33.2635957,74.102589 33.0096019,74.082385 32.7583815,74.0422864 C32.5000195,74.0006962 32.2464972,73.9332188 32.0016442,73.8408735 C31.7809795,73.7654876 31.5680437,73.6691366 31.3657547,73.5531407 L31.1787283,73.4351702 L30.991702,73.3171997 C30.9245158,73.2604141 30.842794,73.2235396 30.7557611,73.2107386 C30.6272681,73.2320279 30.5135427,73.3061059 30.4421323,73.4150289 C30.3589036,73.5314609 30.2839105,73.653565 30.2177007,73.7804496 C30.1561533,73.8773304 30.1159383,73.9862052 30.0997303,74.099833 C30.10319,74.169987 30.1283222,74.2373412 30.1716635,74.292614 C30.2667005,74.3879333 30.3777214,74.4658427 30.4996789,74.5228003 C30.6262813,74.599529 30.7787797,74.6858489 30.9571741,74.7817598 C31.1634025,74.89043 31.3791425,74.9800006 31.6016956,75.0493513 C31.884154,75.1387811 32.1726143,75.2080115 32.464894,75.2565189 C32.845646,75.3154466 33.2305552,75.3433525 33.6158253,75.3399615 C34.1520779,75.3476129 34.686742,75.2798113 35.2041105,75.1385485 L35.2300064,75.1184072 Z M24.3191779,75.1385485 C24.3923798,75.1253925 24.4619884,75.0969608 24.5234682,75.055106 C24.5868776,74.9582528 24.6134234,74.8418596 24.5982787,74.7270906 L24.5982787,65.0592678 C24.6131656,64.9445109 24.58664,64.8282065 24.5234682,64.7312524 C24.4618285,64.6896962 24.3922849,64.6612911 24.3191779,64.6478099 C24.1762475,64.6188498 24.0304784,64.6063001 23.8847013,64.6104046 C23.7404195,64.6074967 23.5963544,64.6229668 23.4559794,64.6564419 C23.3721651,64.6680205 23.2959703,64.7112661 23.2430572,64.7772897 C23.2081976,64.8689599 23.1944295,64.9673036 23.2027746,65.0650225 L23.2027746,74.7328452 C23.2011875,74.8127077 23.2059984,74.892569 23.2171612,74.9716635 C23.2404846,75.0445 23.2988724,75.1007253 23.3725369,75.1212845 C23.5392055,75.1721459 23.7136638,75.1926131 23.8875787,75.1817084 C24.0333572,75.1858633 24.179132,75.1733132 24.3220552,75.1443031 L24.3191779,75.1385485 Z M18.8551317,75.0781246 C19.3055431,74.9287027 19.7165898,74.6799113 20.0578548,74.3501606 C20.3671212,74.040774 20.5979653,73.661953 20.7311496,73.2452665 C20.8750052,72.7922685 20.9459056,72.3192754 20.9411946,71.8440077 L20.9411946,65.0477585 C20.943469,64.9684567 20.9357352,64.8891845 20.918176,64.8118176 C20.8893342,64.7415491 20.8316971,64.6870558 20.7599229,64.6621965 C20.5930302,64.6075452 20.4172764,64.5850877 20.2420039,64.596018 C20.0875091,64.5917377 19.933035,64.6052542 19.7816313,64.6363006 C19.6971106,64.6457494 19.6201559,64.6894264 19.5687091,64.7571484 C19.5334329,64.8487435 19.5186994,64.9469672 19.5255491,65.0448812 L19.5255491,71.9965061 C19.5270383,72.268768 19.478266,72.5389667 19.3816827,72.793526 C19.2840324,73.046894 19.1306224,73.2750422 18.9328195,73.4610662 C18.7106514,73.6650935 18.4492568,73.8217345 18.1645729,73.9214387 C17.809338,74.0436941 17.435276,74.1021413 17.0596789,74.0940784 C16.6859793,74.1018852 16.313851,74.0434358 15.9605395,73.9214387 C15.6769462,73.821239 15.416588,73.6646326 15.1951702,73.4610662 C15.0027783,73.2745296 14.854358,73.0474761 14.7606936,72.7964033 C14.6641104,72.541844 14.6153381,72.2716453 14.6168272,71.9993834 L14.6168272,65.0477585 C14.6325722,64.9317381 14.6026561,64.8141365 14.5333847,64.7197431 C14.4764136,64.6774439 14.4104359,64.6488864 14.3406037,64.6363006 C14.2063813,64.6076353 14.0692193,64.5950782 13.9320231,64.5988953 C13.7795671,64.5945207 13.627096,64.6070658 13.4774053,64.6363006 C13.4046747,64.6480117 13.3356963,64.6765885 13.2759923,64.7197431 C13.2069966,64.8142665 13.177109,64.9317557 13.1925498,65.0477585 L13.1925498,71.8296211 C13.1878876,72.3048854 13.2587868,72.7778708 13.4025947,73.2308799 C13.5358809,73.6475199 13.7667111,74.0263183 14.0758895,74.3357739 C14.4171545,74.6655246 14.8282013,74.9143161 15.2786127,75.063738 C15.8588999,75.2522393 16.4669962,75.3407781 17.0769428,75.3255748 C17.6868827,75.3406665 18.2949603,75.2521304 18.875273,75.063738 L18.8551317,75.0781246 Z M8.38453436,75.1299165 C8.45640987,75.1182967 8.52447408,75.08969 8.58307001,75.046474 C8.65971304,74.9555745 8.69328773,74.8359647 8.67514451,74.7184586 L8.67514451,65.8908157 L11.4402569,65.8908157 C11.5374283,65.8956035 11.6347099,65.8839297 11.7279897,65.8562877 C11.7944693,65.8335191 11.8512692,65.7888905 11.8891201,65.7296853 C11.9333118,65.6320217 11.9624168,65.5282137 11.9754399,65.4218112 C11.9986117,65.2771827 12.010158,65.1309301 12.0099679,64.9844573 C12.020605,64.8964624 11.9991513,64.8075829 11.949544,64.7341297 C11.9284628,64.7160821 11.9040142,64.7023909 11.8776108,64.6938471 C11.8195659,64.677842 11.7593687,64.6710455 11.6992164,64.6737058 L4.44547206,64.6737058 C4.34851623,64.6697563 4.25151829,64.6804261 4.15773924,64.7053565 C4.09228686,64.725521 4.03617356,64.7683712 3.99948619,64.8262042 C3.94869511,64.9300875 3.91655568,65.0420885 3.90453436,65.157097 C3.88220695,65.2969934 3.87066365,65.4383988 3.87000642,65.5800642 C3.86049609,65.6674541 3.88525062,65.7551264 3.9390623,65.8246371 C3.95948699,65.8435566 3.98279839,65.8590975 4.00811818,65.8706744 C4.06451581,65.8899221 4.12418158,65.8977471 4.1836352,65.893693 L7.23935774,65.893693 L7.23935774,74.7328452 C7.22121452,74.8503513 7.2547892,74.9699612 7.33143224,75.0608606 C7.39002817,75.1040767 7.45809238,75.1326834 7.52996789,75.1443031 C7.66520509,75.1726909 7.80328652,75.1852438 7.94142582,75.1817084 C8.08911255,75.1859509 8.23680322,75.173402 8.38165703,75.1443031 L8.38453436,75.1299165 Z" id="word_mark" fill="#FFFFFF" fill-rule="nonzero"></path>
                                            <g id="typogram" stroke-width="1" fill="none" fill-rule="evenodd">
                                                <path d="M89.7726397,30.6895825 C90.1132768,28.954685 90.2723873,27.1890403 90.2473988,25.4211946 C90.0057033,11.2935132 78.2978548,0.0460372511 64.1011175,0.28773282 C51.0242662,0.489078114 40.1926969,10.4963177 38.9590238,23.5164033 C48.1981246,23.0617855 58.4816956,23.9969171 69.7838407,27.4094284 C78.8675658,30.1543995 85.2840077,30.8622222 89.7783943,30.6867052" id="Shape" fill="#FFE100" fill-rule="nonzero"></path>
                                                <path d="M99.506641,31.1729737 C99.506641,31.1729737 89.7582531,55.2044188 46.851535,42.5067694 C34.8991137,38.9676557 15.5749775,34.7235967 0,36.795273 C15.097341,31.175851 38.5705845,21.7410918 69.7838407,31.175851 C94.4108927,38.619499 99.506641,31.175851 99.506641,31.175851" id="Shape" fill="#FFFFFF" fill-rule="nonzero"></path>
                                            </g>
                                        </g>
                                    </g>
                                </g>
                            </g>
                        </g>
                    </g>
                </g>
            </g>
        </g>
    </g>
</svg>