<?xml version="1.0" encoding="UTF-8" standalone="no"?>
<svg width="120px" height="120px" viewBox="0 0 120 120" version="1.1" xmlns="http://www.w3.org/2000/svg" xmlns:xlink="http://www.w3.org/1999/xlink">
    <!-- Generator: Sketch 44.1 (41455) - http://www.bohemiancoding.com/sketch -->
    <title>skytours</title>
    <desc>Created with Sketch.</desc>
    <defs></defs>
    <g id="Symbols" stroke="none" stroke-width="1" fill="none" fill-rule="evenodd">
        <g id="skytours">
            <rect id="Rectangle-4" x="0" y="0" width="120" height="120"></rect>
            <path d="M39.5742188,65.1982422 C39.1777324,65.1982422 38.8302424,65.1731773 38.5317383,65.1230469 C38.2332342,65.0729164 37.9711925,65.0113936 37.7456055,64.9384766 C37.5200184,64.8655595 37.3274748,64.7858077 37.1679688,64.6992188 C37.0084627,64.6126298 36.8717454,64.5351566 36.7578125,64.4667969 C36.6028638,64.3756506 36.5037437,64.2993167 36.4604492,64.237793 C36.4171547,64.1762692 36.3955078,64.1181643 36.3955078,64.0634766 C36.3955078,64.0042315 36.4308265,63.9085293 36.5014648,63.7763672 C36.5721032,63.6442051 36.6393226,63.5348312 36.703125,63.4482422 C36.8079432,63.3251947 36.9013668,63.2636719 36.9833984,63.2636719 C37.0335289,63.2636719 37.1041662,63.2955726 37.1953125,63.359375 C37.2500003,63.3958335 37.3058265,63.4311522 37.362793,63.465332 C37.4197594,63.4995119 37.4755857,63.5348305 37.5302734,63.5712891 C37.6852221,63.6669927 37.8754872,63.7569983 38.1010742,63.8413086 C38.3266613,63.9256189 38.5533843,63.9860024 38.78125,64.0224609 C39.0091157,64.0589195 39.236978,64.0771484 39.4648438,64.0771484 C39.9479191,64.0771484 40.3671857,64.0065111 40.7226562,63.8652344 C41.0781268,63.7239576 41.327636,63.5302747 41.4711914,63.2841797 C41.6147468,63.0380847 41.6865234,62.7851575 41.6865234,62.5253906 C41.6865234,62.1881494 41.6079109,61.9192718 41.4506836,61.71875 C41.2934562,61.5182282 41.0519222,61.3496101 40.7260742,61.2128906 C40.4002262,61.0761712 40.0550148,60.9576828 39.6904297,60.8574219 L39.0820312,60.6865234 C38.7083315,60.5817052 38.3642594,60.4609382 38.0498047,60.3242188 C37.73535,60.1874993 37.4653332,60.0177419 37.2397461,59.8149414 C37.014159,59.6121409 36.8387051,59.3717462 36.7133789,59.09375 C36.5880528,58.8157538 36.5253906,58.4830749 36.5253906,58.0957031 C36.5253906,57.6809875 36.5971673,57.3084326 36.7407227,56.9780273 C36.8842781,56.647622 37.0904934,56.3673514 37.359375,56.137207 C37.6282566,55.9070627 37.9563783,55.7304694 38.34375,55.6074219 C38.7311217,55.4843744 39.1686174,55.4228516 39.65625,55.4228516 C40.1438826,55.4228516 40.5471989,55.4570309 40.8662109,55.5253906 C41.1852229,55.5937503 41.4358715,55.6643877 41.6181641,55.7373047 C41.8004566,55.8102217 41.9166664,55.8557942 41.9667969,55.8740234 C42.1582041,55.9560551 42.2789711,56.0255531 42.3291016,56.0825195 C42.379232,56.139486 42.4042969,56.1861977 42.4042969,56.2226562 C42.4042969,56.2727867 42.3860679,56.3582351 42.3496094,56.4790039 C42.3131509,56.5997727 42.2652998,56.710286 42.2060547,56.8105469 C42.1650389,56.8925785 42.125163,56.952962 42.0864258,56.9916992 C42.0476886,57.0304364 42.0032555,57.0498047 41.953125,57.0498047 C41.8710933,57.0498047 41.7913415,57.0315757 41.7138672,56.9951172 C41.668294,56.9723306 41.565756,56.9278975 41.40625,56.8618164 C41.246744,56.7957353 41.122559,56.7456056 41.0336914,56.7114258 C40.9448238,56.6772459 40.8502609,56.6487631 40.75,56.6259766 C40.4082014,56.5530595 40.048179,56.5166016 39.6699219,56.5166016 C39.3509099,56.5166016 39.0717785,56.5541988 38.8325195,56.6293945 C38.5932605,56.7045902 38.393881,56.8094069 38.234375,56.9438477 C38.074869,57.0782884 37.9552413,57.2355134 37.8754883,57.4155273 C37.7957353,57.5955413 37.7558594,57.7903635 37.7558594,58 C37.7558594,58.2050792 37.7991532,58.3828117 37.8857422,58.5332031 C37.9723312,58.6835945 38.0976554,58.816894 38.2617188,58.9331055 C38.4257821,59.049317 38.6263009,59.1541336 38.8632812,59.2475586 C39.1002616,59.3409835 39.3691391,59.4287105 39.6699219,59.5107422 L40.4150391,59.7226562 C41.0393911,59.9003915 41.5418275,60.1111641 41.9223633,60.3549805 C42.302899,60.5987968 42.5694979,60.8950178 42.722168,61.2436523 C42.874838,61.5922869 42.9511719,61.9625631 42.9511719,62.3544922 C42.9511719,62.8238956 42.874838,63.235187 42.722168,63.5883789 C42.5694979,63.9415708 42.3484715,64.2377918 42.059082,64.4770508 C41.7696926,64.7163098 41.416506,64.896321 40.9995117,65.0170898 C40.5825174,65.1378587 40.1074245,65.1982422 39.5742188,65.1982422 Z M44.7832031,65.0546875 C44.6419264,65.0546875 44.5314132,65.045573 44.4516602,65.0273438 C44.3719072,65.0091145 44.3183595,64.9863283 44.2910156,64.9589844 C44.2363279,64.9179685 44.2089844,64.824545 44.2089844,64.6787109 L44.2089844,56.1269531 C44.2089844,55.9492179 44.2408851,55.8307295 44.3046875,55.7714844 C44.3593753,55.7167966 44.5188789,55.6621096 44.7832031,55.6074219 C44.9199226,55.580078 45.0270178,55.5664062 45.1044922,55.5664062 C45.2138677,55.5664062 45.284505,55.5755207 45.3164062,55.59375 C45.371094,55.6347658 45.3984375,55.7281894 45.3984375,55.8740234 L45.3984375,61.2333984 L47.7226562,59.0390625 C47.791016,58.9707028 47.8707678,58.9205731 47.9619141,58.8886719 C48.0530604,58.8567707 48.2148426,58.8408203 48.4472656,58.8408203 C48.7207045,58.8408203 48.9029943,58.8636065 48.9941406,58.9091797 C49.0533857,58.9547528 49.0830078,59.0071612 49.0830078,59.0664062 C49.0830078,59.1028648 49.072754,59.1416014 49.0522461,59.1826172 C49.0317382,59.223633 48.9941409,59.2692055 48.9394531,59.3193359 L46.546875,61.5273438 L49.390625,64.5830078 C49.4817713,64.687826 49.5273438,64.7698565 49.5273438,64.8291016 C49.5273438,64.892904 49.5000003,64.9453123 49.4453125,64.9863281 C49.3541662,65.0319013 49.1490901,65.0546875 48.8300781,65.0546875 C48.697916,65.0546875 48.5896814,65.0501303 48.5053711,65.0410156 C48.4210608,65.031901 48.3504235,65.0193686 48.293457,65.003418 C48.2364906,64.9874674 48.1909181,64.9680991 48.1567383,64.9453125 C48.1225584,64.9225259 48.0895184,64.8951825 48.0576172,64.8632812 L45.3984375,61.9306641 L45.3984375,64.6650391 C45.3984375,64.8108731 45.371094,64.9042967 45.3164062,64.9453125 C45.284505,64.9726564 45.2275395,64.9977212 45.1455078,65.0205078 C45.0634762,65.0432944 44.9427091,65.0546875 44.7832031,65.0546875 Z M51.3457031,67.7753906 C51.1497386,67.7753906 51.0096033,67.7514651 50.925293,67.7036133 C50.8409827,67.6557615 50.7988281,67.5999352 50.7988281,67.5361328 C50.7988281,67.4768877 50.8375647,67.3652352 50.9150391,67.2011719 L52.1455078,64.4257812 L49.7255859,59.4150391 C49.6572262,59.2737623 49.6230469,59.1712243 49.6230469,59.1074219 C49.6230469,59.0572914 49.6446938,59.0128583 49.6879883,58.9741211 C49.7312828,58.9353839 49.8041987,58.9034832 49.9067383,58.878418 C50.0092779,58.8533527 50.1243483,58.8408203 50.2519531,58.8408203 C50.4433603,58.8408203 50.5880529,58.85791 50.6860352,58.8920898 C50.7840174,58.9262697 50.855794,58.9934891 50.9013672,59.09375 L52.7607422,63.0380859 L54.4833984,59.1484375 C54.5335289,59.02539 54.6064448,58.9433596 54.7021484,58.9023438 C54.797852,58.8613279 54.9527984,58.8408203 55.1669922,58.8408203 C55.3903006,58.8408203 55.5372718,58.8636065 55.6079102,58.9091797 C55.6785485,58.9547528 55.7138672,59.0071612 55.7138672,59.0664062 C55.7138672,59.1438806 55.6774092,59.2600904 55.6044922,59.4150391 L52.0361328,67.4609375 C51.981445,67.583985 51.9073898,67.6671547 51.8139648,67.7104492 C51.7205399,67.7537437 51.5644542,67.7753906 51.3457031,67.7753906 Z M58.6259766,65.1367188 C58.3434231,65.1367188 58.1007497,65.1014001 57.8979492,65.0307617 C57.6951487,64.9601233 57.5276699,64.8655605 57.3955078,64.7470703 C57.2177725,64.5921216 57.0935876,64.3904635 57.0229492,64.1420898 C56.9523108,63.8937162 56.9169922,63.5917987 56.9169922,63.2363281 L56.9169922,59.8730469 L56.1308594,59.8730469 C56.0123692,59.8730469 55.9337567,59.8639324 55.8950195,59.8457031 C55.8562824,59.8274739 55.8346354,59.8001304 55.8300781,59.7636719 C55.8255208,59.7272134 55.8232422,59.6702478 55.8232422,59.5927734 C55.8232422,59.3557931 55.866536,59.1712246 55.953125,59.0390625 C55.9895835,58.9798174 56.0328774,58.9410808 56.0830078,58.9228516 C56.1331383,58.9046223 56.2106115,58.8955078 56.3154297,58.8955078 L56.9169922,58.8955078 L56.9169922,57.4394531 C56.9169922,57.2571605 56.9488929,57.1409508 57.0126953,57.0908203 C57.0901697,57.0270179 57.2496733,56.9700523 57.4912109,56.9199219 C57.6279304,56.892578 57.7350257,56.8789062 57.8125,56.8789062 C57.9218755,56.8789062 57.9925129,56.8880207 58.0244141,56.90625 C58.0791018,56.9472658 58.1064453,57.0406894 58.1064453,57.1865234 L58.1064453,58.8955078 L59.6445312,58.8955078 C59.785808,58.8955078 59.8723957,58.9114582 59.9042969,58.9433594 C59.9361981,58.9752606 59.9521484,59.0527338 59.9521484,59.1757812 C59.9521484,59.2942714 59.9407553,59.4002274 59.9179688,59.4936523 C59.8951822,59.5870773 59.8701173,59.6588539 59.8427734,59.7089844 C59.7744137,59.8183599 59.6490895,59.8730469 59.4667969,59.8730469 L58.1064453,59.8730469 L58.1064453,63.359375 C58.1064453,63.6145846 58.1577143,63.8094069 58.2602539,63.9438477 C58.3627935,64.0782884 58.5302723,64.1455078 58.7626953,64.1455078 C58.9768891,64.1455078 59.1979155,64.0885422 59.4257812,63.9746094 C59.480469,63.9472655 59.5294594,63.919922 59.5727539,63.8925781 C59.6160484,63.8652342 59.669596,63.8515625 59.7333984,63.8515625 C59.8199874,63.8515625 59.9270827,63.9495433 60.0546875,64.1455078 C60.1458338,64.2913419 60.1914062,64.4029944 60.1914062,64.4804688 C60.1914062,64.5579431 60.1526697,64.6285804 60.0751953,64.6923828 C59.997721,64.7561852 59.9156905,64.8131508 59.8291016,64.8632812 C59.7106114,64.9270837 59.555665,64.9886065 59.3642578,65.0478516 C59.1728506,65.1070967 58.9267593,65.1367188 58.6259766,65.1367188 Z M63.6230469,65.1367188 C63.2083313,65.1367188 62.823244,65.0615242 62.4677734,64.9111328 C62.1123029,64.7607414 61.8035495,64.5465509 61.5415039,64.2685547 C61.2794583,63.9905585 61.0732429,63.6556009 60.9228516,63.2636719 C60.7724602,62.8717428 60.6972656,62.4342472 60.6972656,61.9511719 C60.6972656,61.4726539 60.7713209,61.0362975 60.9194336,60.6420898 C61.0675463,60.2478821 61.2726224,59.9117852 61.534668,59.6337891 C61.7967135,59.3557929 62.105467,59.140463 62.4609375,58.987793 C62.816408,58.8351229 63.2037739,58.7587891 63.6230469,58.7587891 C64.247399,58.7587891 64.7954078,58.9228499 65.2670898,59.2509766 C65.7387719,59.5791032 66.0703115,59.9903947 66.2617188,60.4848633 C66.453126,60.9793319 66.5488281,61.4680965 66.5488281,61.9511719 C66.5488281,62.4296899 66.4747729,62.8649069 66.3266602,63.2568359 C66.1785474,63.648765 65.9734714,63.9837226 65.7114258,64.2617188 C65.4493802,64.5397149 65.1394875,64.7550448 64.7817383,64.9077148 C64.4239891,65.0603849 64.0377625,65.1367188 63.6230469,65.1367188 Z M63.6230469,64.1181641 C64.0058613,64.1181641 64.3362616,64.000815 64.6142578,63.7661133 C64.892254,63.5314116 65.0813797,63.2454444 65.1816406,62.9082031 C65.2819015,62.5709619 65.3320312,62.2519546 65.3320312,61.9511719 C65.3320312,61.4999977 65.2488615,61.0978208 65.0825195,60.7446289 C64.9161776,60.391437 64.6985691,60.1419278 64.4296875,59.9960938 C64.1608059,59.8502597 63.8919284,59.7773438 63.6230469,59.7773438 C63.3541653,59.7773438 63.1137706,59.8343093 62.9018555,59.9482422 C62.6899403,60.062175 62.5110684,60.2171214 62.3652344,60.4130859 C62.2194003,60.6090505 62.1077478,60.8391914 62.0302734,61.1035156 C61.9527991,61.3678399 61.9140625,61.6503891 61.9140625,61.9511719 C61.9140625,62.2519546 61.9516598,62.5345039 62.0268555,62.7988281 C62.1020512,63.0631524 62.2125644,63.292154 62.3583984,63.4858398 C62.5042325,63.6795257 62.6831044,63.8333328 62.8950195,63.9472656 C63.1069347,64.0611985 63.349608,64.1181641 63.6230469,64.1181641 Z M70.0351562,65.1367188 C69.6751284,65.1367188 69.3583998,65.0797532 69.0849609,64.9658203 C68.8115221,64.8518875 68.5825205,64.6923838 68.3979492,64.4873047 C68.213378,64.2822255 68.074382,64.0395522 67.980957,63.7592773 C67.8875321,63.4790025 67.8408203,63.1702491 67.8408203,62.8330078 L67.8408203,59.2304688 C67.8408203,59.0983066 67.8681638,59.0048831 67.9228516,58.9501953 C67.9501954,58.9228514 68.0060217,58.8977866 68.090332,58.875 C68.1746423,58.8522134 68.2965487,58.8408203 68.4560547,58.8408203 C68.5973314,58.8408203 68.7067053,58.8499348 68.7841797,58.8681641 C68.861654,58.8863933 68.9140624,58.9091796 68.9414062,58.9365234 C69.0006513,58.9820966 69.0302734,59.0755201 69.0302734,59.2167969 L69.0302734,62.6894531 C69.0302734,63.1634138 69.1487618,63.5177397 69.3857422,63.7524414 C69.6227225,63.9871431 69.9371725,64.1044922 70.3291016,64.1044922 C70.6344416,64.1044922 70.9181302,64.0099293 71.1801758,63.8208008 C71.4422214,63.6316722 71.6302078,63.4140637 71.7441406,63.1679688 C71.8580735,62.9218738 71.9150391,62.6917328 71.9150391,62.4775391 L71.9150391,59.2304688 C71.9150391,59.0846347 71.9423825,58.9912111 71.9970703,58.9501953 C72.0244142,58.9228514 72.0802405,58.8977866 72.1645508,58.875 C72.2488611,58.8522134 72.3707674,58.8408203 72.5302734,58.8408203 C72.6715502,58.8408203 72.7809241,58.8499348 72.8583984,58.8681641 C72.9358728,58.8863933 72.9882811,58.9091796 73.015625,58.9365234 C73.0748701,58.9820966 73.1044922,59.0755201 73.1044922,59.2167969 L73.1044922,64.6787109 C73.1044922,64.8063157 73.0748701,64.8997393 73.015625,64.9589844 C72.9882811,64.9863283 72.9415693,65.0091145 72.8754883,65.0273438 C72.8094072,65.045573 72.7034513,65.0546875 72.5576172,65.0546875 C72.4117831,65.0546875 72.3024092,65.045573 72.2294922,65.0273438 C72.1565752,65.0091145 72.1064454,64.9863283 72.0791016,64.9589844 C72.0244138,64.9179685 71.9970703,64.8199878 71.9970703,64.6650391 L71.9970703,64.1181641 C71.8603509,64.3369152 71.6746431,64.5305981 71.4399414,64.6992188 C71.2052397,64.8678394 70.9637057,64.9829098 70.715332,65.0444336 C70.4669584,65.1059573 70.2402354,65.1367188 70.0351562,65.1367188 Z M75.3330078,65.0546875 C75.1917311,65.0546875 75.0812178,65.045573 75.0014648,65.0273438 C74.9217118,65.0091145 74.8681642,64.9863283 74.8408203,64.9589844 C74.7861325,64.9179685 74.7587891,64.824545 74.7587891,64.6787109 L74.7587891,59.3740234 C74.7587891,59.2828771 74.7656249,59.2111005 74.7792969,59.1586914 C74.7929688,59.1062823 74.8180337,59.0618491 74.8544922,59.0253906 C74.9046226,58.9661455 75.0641263,58.90918 75.3330078,58.8544922 C75.4697272,58.8271483 75.5768225,58.8134766 75.6542969,58.8134766 C75.7682297,58.8134766 75.8388671,58.8271483 75.8662109,58.8544922 C75.9208987,58.895508 75.9482422,58.9843743 75.9482422,59.1210938 L75.9482422,59.7773438 C76.0439458,59.5859365 76.1818025,59.4139005 76.3618164,59.2612305 C76.5418303,59.1085604 76.7286774,58.9957686 76.9223633,58.9228516 C77.1160491,58.8499345 77.2903638,58.8134766 77.4453125,58.8134766 C77.5865892,58.8134766 77.7176101,58.8282876 77.8383789,58.8579102 C77.9591477,58.8875327 78.0719396,58.9228514 78.1767578,58.9638672 C78.2998053,59.0139976 78.4000647,59.0698239 78.4775391,59.1313477 C78.5550134,59.1928714 78.59375,59.2600908 78.59375,59.3330078 C78.59375,59.3831383 78.5481775,59.5221343 78.4570312,59.75 C78.3339838,59.9915377 78.2291671,60.1123047 78.1425781,60.1123047 C78.0787757,60.1123047 78.0195315,60.0963543 77.9648438,60.0644531 C77.910156,60.0325519 77.8395187,60.0029298 77.7529297,59.9755859 C77.5569652,59.9072262 77.3883471,59.8730469 77.2470703,59.8730469 C77.0055326,59.8730469 76.7742524,59.9835601 76.5532227,60.2045898 C76.3321929,60.4256196 76.1761072,60.6796861 76.0849609,60.9667969 C75.9938146,61.2539077 75.9482422,61.5250638 75.9482422,61.7802734 L75.9482422,64.6650391 C75.9482422,64.8108731 75.9208987,64.9042967 75.8662109,64.9453125 C75.8343097,64.9726564 75.7773442,64.9977212 75.6953125,65.0205078 C75.6132808,65.0432944 75.4925138,65.0546875 75.3330078,65.0546875 Z M81.2939453,65.1367188 C81.0113918,65.1367188 80.7607433,65.1207684 80.5419922,65.0888672 C80.3232411,65.056966 80.1284188,65.0170901 79.9575195,64.9692383 C79.7866202,64.9213865 79.6396491,64.8701175 79.5166016,64.8154297 C79.3935541,64.7607419 79.291016,64.7106122 79.2089844,64.6650391 C79.0677076,64.592122 78.9720055,64.5294599 78.921875,64.4770508 C78.8717445,64.4246417 78.8466797,64.371094 78.8466797,64.3164062 C78.8466797,64.2024734 78.9013666,64.0520843 79.0107422,63.8652344 C79.0836592,63.7513015 79.1463214,63.6806642 79.1987305,63.6533203 C79.2511396,63.6259764 79.3069658,63.6123047 79.3662109,63.6123047 C79.4436853,63.6123047 79.5314123,63.6385089 79.6293945,63.690918 C79.7273768,63.7433271 79.8105465,63.783203 79.8789062,63.8105469 C80.0794281,63.9062505 80.3061511,63.981445 80.559082,64.0361328 C80.812013,64.0908206 81.0524077,64.1181641 81.2802734,64.1181641 C81.5537123,64.1181641 81.7872712,64.0839847 81.980957,64.015625 C82.1746429,63.9472653 82.3113603,63.8504238 82.3911133,63.7250977 C82.4708663,63.5997715 82.5107422,63.4641934 82.5107422,63.3183594 C82.5107422,63.0768217 82.4207366,62.8865567 82.2407227,62.7475586 C82.0607087,62.6085605 81.7542339,62.5003259 81.3212891,62.4228516 L80.8496094,62.3408203 C80.6080717,62.2998045 80.3733735,62.2371423 80.1455078,62.152832 C79.9176421,62.0685217 79.715984,61.9580085 79.5405273,61.8212891 C79.3650707,61.6845696 79.2237961,61.5170908 79.1166992,61.3188477 C79.0096023,61.1206045 78.9560547,60.8824884 78.9560547,60.6044922 C78.9560547,60.1761046 79.0802396,59.8160822 79.3286133,59.5244141 C79.5769869,59.2327459 79.8789045,59.0322271 80.234375,58.9228516 C80.5898455,58.813476 80.9339176,58.7587891 81.2666016,58.7587891 C81.562827,58.7587891 81.8442369,58.7815753 82.1108398,58.8271484 C82.3774427,58.8727216 82.6474596,58.9479161 82.9208984,59.0527344 C83.0804044,59.1074221 83.1897783,59.1609698 83.2490234,59.2133789 C83.3082685,59.265788 83.3378906,59.3238929 83.3378906,59.3876953 C83.3378906,59.4742843 83.3059899,59.6041658 83.2421875,59.7773438 C83.1647132,59.9915375 83.0576179,60.0986328 82.9208984,60.0986328 C82.8343095,60.0986328 82.7454432,60.0781252 82.6542969,60.0371094 C82.5631506,59.9960935 82.4651698,59.9619142 82.3603516,59.9345703 C82.1871736,59.8844399 81.9980479,59.841146 81.7929688,59.8046875 C81.5878896,59.768229 81.3805349,59.75 81.1708984,59.75 C80.8427718,59.75 80.5830088,59.8172194 80.3916016,59.9516602 C80.2001944,60.0861009 80.1044922,60.276366 80.1044922,60.5224609 C80.1044922,60.7320974 80.2047516,60.9007155 80.4052734,61.0283203 C80.6057953,61.1559251 80.8837873,61.2516273 81.2392578,61.3154297 L81.8544922,61.4316406 C82.1279311,61.4817711 82.3785796,61.5455725 82.6064453,61.6230469 C82.834311,61.7005212 83.0314119,61.8076165 83.1977539,61.9443359 C83.3640959,62.0810554 83.4928381,62.2542307 83.5839844,62.4638672 C83.6751307,62.6735037 83.7207031,62.9309881 83.7207031,63.2363281 C83.7207031,63.6829449 83.5896823,64.0566391 83.3276367,64.3574219 C83.0655911,64.6582046 82.7477232,64.8632807 82.3740234,64.9726562 C82.0003237,65.0820318 81.6403012,65.1367188 81.2939453,65.1367188 Z" id="Skytours" fill="#092A5E"></path>
        </g>
    </g>
</svg>