<?xml version="1.0" encoding="UTF-8" standalone="no"?>
<svg width="120px" height="120px" viewBox="0 0 120 120" version="1.1" xmlns="http://www.w3.org/2000/svg" xmlns:xlink="http://www.w3.org/1999/xlink">
    <!-- Generator: Sketch 44.1 (41455) - http://www.bohemiancoding.com/sketch -->
    <title>small-friendly</title>
    <desc>Created with Sketch.</desc>
    <defs></defs>
    <g id="Symbols" stroke="none" stroke-width="1" fill="none" fill-rule="evenodd">
        <g id="small-friendly">
            <rect id="Rectangle-4" x="0" y="0" width="120" height="120"></rect>
            <path d="M19.7167969,65.1982422 C19.3203105,65.1982422 18.9728205,65.1731773 18.6743164,65.1230469 C18.3758123,65.0729164 18.1137707,65.0113936 17.8881836,64.9384766 C17.6625965,64.8655595 17.4700529,64.7858077 17.3105469,64.6992188 C17.1510409,64.6126298 17.0143235,64.5351566 16.9003906,64.4667969 C16.7454419,64.3756506 16.6463218,64.2993167 16.6030273,64.237793 C16.5597329,64.1762692 16.5380859,64.1181643 16.5380859,64.0634766 C16.5380859,64.0042315 16.5734046,63.9085293 16.644043,63.7763672 C16.7146813,63.6442051 16.7819007,63.5348312 16.8457031,63.4482422 C16.9505214,63.3251947 17.0439449,63.2636719 17.1259766,63.2636719 C17.176107,63.2636719 17.2467443,63.2955726 17.3378906,63.359375 C17.3925784,63.3958335 17.4484047,63.4311522 17.5053711,63.465332 C17.5623375,63.4995119 17.6181638,63.5348305 17.6728516,63.5712891 C17.8278003,63.6669927 18.0180653,63.7569983 18.2436523,63.8413086 C18.4692394,63.9256189 18.6959624,63.9860024 18.9238281,64.0224609 C19.1516938,64.0589195 19.3795562,64.0771484 19.6074219,64.0771484 C20.0904972,64.0771484 20.5097638,64.0065111 20.8652344,63.8652344 C21.2207049,63.7239576 21.4702141,63.5302747 21.6137695,63.2841797 C21.7573249,63.0380847 21.8291016,62.7851575 21.8291016,62.5253906 C21.8291016,62.1881494 21.7504891,61.9192718 21.5932617,61.71875 C21.4360344,61.5182282 21.1945003,61.3496101 20.8686523,61.2128906 C20.5428044,61.0761712 20.197593,60.9576828 19.8330078,60.8574219 L19.2246094,60.6865234 C18.8509096,60.5817052 18.5068375,60.4609382 18.1923828,60.3242188 C17.8779281,60.1874993 17.6079113,60.0177419 17.3823242,59.8149414 C17.1567372,59.6121409 16.9812832,59.3717462 16.855957,59.09375 C16.7306309,58.8157538 16.6679688,58.4830749 16.6679688,58.0957031 C16.6679688,57.6809875 16.7397454,57.3084326 16.8833008,56.9780273 C17.0268562,56.647622 17.2330716,56.3673514 17.5019531,56.137207 C17.7708347,55.9070627 18.0989564,55.7304694 18.4863281,55.6074219 C18.8736999,55.4843744 19.3111955,55.4228516 19.7988281,55.4228516 C20.2864608,55.4228516 20.6897771,55.4570309 21.0087891,55.5253906 C21.3278011,55.5937503 21.5784496,55.6643877 21.7607422,55.7373047 C21.9430348,55.8102217 22.0592445,55.8557942 22.109375,55.8740234 C22.3007822,55.9560551 22.4215492,56.0255531 22.4716797,56.0825195 C22.5218101,56.139486 22.546875,56.1861977 22.546875,56.2226562 C22.546875,56.2727867 22.528646,56.3582351 22.4921875,56.4790039 C22.455729,56.5997727 22.4078779,56.710286 22.3486328,56.8105469 C22.307617,56.8925785 22.2677411,56.952962 22.2290039,56.9916992 C22.1902667,57.0304364 22.1458336,57.0498047 22.0957031,57.0498047 C22.0136715,57.0498047 21.9339197,57.0315757 21.8564453,56.9951172 C21.8108722,56.9723306 21.7083341,56.9278975 21.5488281,56.8618164 C21.3893221,56.7957353 21.2651372,56.7456056 21.1762695,56.7114258 C21.0874019,56.6772459 20.992839,56.6487631 20.8925781,56.6259766 C20.5507795,56.5530595 20.1907571,56.5166016 19.8125,56.5166016 C19.493488,56.5166016 19.2143567,56.5541988 18.9750977,56.6293945 C18.7358386,56.7045902 18.5364591,56.8094069 18.3769531,56.9438477 C18.2174471,57.0782884 18.0978194,57.2355134 18.0180664,57.4155273 C17.9383134,57.5955413 17.8984375,57.7903635 17.8984375,58 C17.8984375,58.2050792 17.9417313,58.3828117 18.0283203,58.5332031 C18.1149093,58.6835945 18.2402336,58.816894 18.4042969,58.9331055 C18.5683602,59.049317 18.768879,59.1541336 19.0058594,59.2475586 C19.2428397,59.3409835 19.5117172,59.4287105 19.8125,59.5107422 L20.5576172,59.7226562 C21.1819693,59.9003915 21.6844056,60.1111641 22.0649414,60.3549805 C22.4454772,60.5987968 22.7120761,60.8950178 22.8647461,61.2436523 C23.0174161,61.5922869 23.09375,61.9625631 23.09375,62.3544922 C23.09375,62.8238956 23.0174161,63.235187 22.8647461,63.5883789 C22.7120761,63.9415708 22.4910496,64.2377918 22.2016602,64.4770508 C21.9122707,64.7163098 21.5590841,64.896321 21.1420898,65.0170898 C20.7250956,65.1378587 20.2500027,65.1982422 19.7167969,65.1982422 Z M24.9257812,65.0546875 C24.7845045,65.0546875 24.6739913,65.045573 24.5942383,65.0273438 C24.5144853,65.0091145 24.4609376,64.9863283 24.4335938,64.9589844 C24.378906,64.9179685 24.3515625,64.824545 24.3515625,64.6787109 L24.3515625,59.3740234 C24.3515625,59.2828771 24.3583984,59.2111005 24.3720703,59.1586914 C24.3857423,59.1062823 24.4108071,59.0618491 24.4472656,59.0253906 C24.4973961,58.9661455 24.6568997,58.90918 24.9257812,58.8544922 C25.0625007,58.8271483 25.169596,58.8134766 25.2470703,58.8134766 C25.3610032,58.8134766 25.4316405,58.8271483 25.4589844,58.8544922 C25.5136721,58.895508 25.5410156,58.9843743 25.5410156,59.1210938 L25.5410156,59.640625 C25.6731777,59.4537751 25.8372386,59.2908536 26.0332031,59.1518555 C26.2291676,59.0128574 26.4342437,58.912598 26.6484375,58.8510742 C26.8626313,58.7895505 27.0768218,58.7587891 27.2910156,58.7587891 C27.7285178,58.7587891 28.0919582,58.8510733 28.3813477,59.0356445 C28.6707371,59.2202158 28.8951815,59.4765609 29.0546875,59.8046875 C29.2871105,59.4947901 29.5707991,59.2430023 29.9057617,59.0493164 C30.2407243,58.8556305 30.6155578,58.7587891 31.0302734,58.7587891 C31.5634792,58.7587891 31.9850245,58.8738595 32.2949219,59.1040039 C32.6048193,59.3341483 32.8076167,59.6246727 32.9033203,59.9755859 C32.9990239,60.3264992 33.046875,60.666014 33.046875,60.9941406 L33.046875,64.6650391 C33.046875,64.8108731 33.0172529,64.9042967 32.9580078,64.9453125 C32.9306639,64.9726564 32.875977,64.9977212 32.7939453,65.0205078 C32.7119137,65.0432944 32.5911466,65.0546875 32.4316406,65.0546875 C32.2903639,65.0546875 32.1798507,65.045573 32.1000977,65.0273438 C32.0203447,65.0091145 31.966797,64.9863283 31.9394531,64.9589844 C31.8847654,64.9179685 31.8574219,64.824545 31.8574219,64.6787109 L31.8574219,61.1787109 C31.8574219,60.8232404 31.8152673,60.5429698 31.730957,60.3378906 C31.6466467,60.1328115 31.5179045,59.9903975 31.3447266,59.9106445 C31.1715486,59.8308915 30.9733084,59.7910156 30.75,59.7910156 C30.4811184,59.7910156 30.2213554,59.891275 29.9707031,60.0917969 C29.7200508,60.2923187 29.5445969,60.50537 29.4443359,60.730957 C29.344075,60.9565441 29.2939453,61.1468091 29.2939453,61.3017578 L29.2939453,64.6650391 C29.2939453,64.8108731 29.2643232,64.9042967 29.2050781,64.9453125 C29.1777342,64.9726564 29.1230473,64.9977212 29.0410156,65.0205078 C28.958984,65.0432944 28.8382169,65.0546875 28.6787109,65.0546875 C28.5374342,65.0546875 28.426921,65.045573 28.347168,65.0273438 C28.267415,65.0091145 28.2138673,64.9863283 28.1865234,64.9589844 C28.1318357,64.9179685 28.1044922,64.824545 28.1044922,64.6787109 L28.1044922,61.1787109 C28.1044922,60.8369124 28.0611983,60.561199 27.9746094,60.3515625 C27.8880204,60.141926 27.7569996,59.9960942 27.581543,59.9140625 C27.4060864,59.8320308 27.2112641,59.7910156 26.9970703,59.7910156 C26.7145168,59.7910156 26.4490572,59.8901357 26.2006836,60.0883789 C25.95231,60.2866221 25.7802739,60.4996733 25.6845703,60.7275391 C25.5888667,60.9554048 25.5410156,61.1468091 25.5410156,61.3017578 L25.5410156,64.6650391 C25.5410156,64.8108731 25.5136721,64.9042967 25.4589844,64.9453125 C25.4270832,64.9726564 25.3701176,64.9977212 25.2880859,65.0205078 C25.2060543,65.0432944 25.0852873,65.0546875 24.9257812,65.0546875 Z M36.0683594,65.1367188 C35.831379,65.1367188 35.5989595,65.1025394 35.3710938,65.0341797 C35.143228,64.96582 34.9392913,64.8575854 34.7592773,64.7094727 C34.5792634,64.5613599 34.4345709,64.3699556 34.3251953,64.1352539 C34.2158198,63.9005522 34.1611328,63.614585 34.1611328,63.2773438 C34.1611328,62.7805965 34.2807605,62.3784195 34.5200195,62.0708008 C34.7592785,61.7631821 35.0623354,61.5501308 35.4291992,61.4316406 C35.796063,61.3131504 36.1526675,61.2379559 36.4990234,61.2060547 L38.0507812,61.0693359 L38.0507812,60.9257812 C38.0507812,60.675129 37.9869798,60.4518239 37.859375,60.2558594 C37.7317702,60.0598949 37.5597342,59.9243168 37.3432617,59.8491211 C37.1267893,59.7739254 36.9023449,59.7363281 36.6699219,59.7363281 C36.3873684,59.7363281 36.1310233,59.7727861 35.9008789,59.8457031 C35.6707345,59.9186202 35.3984391,60.0257154 35.0839844,60.1669922 C34.9928381,60.2171226 34.8994145,60.2421875 34.8037109,60.2421875 C34.7399085,60.2421875 34.6818036,60.2091475 34.6293945,60.1430664 C34.5769854,60.0769853 34.527995,59.9983729 34.4824219,59.9072266 C34.4186195,59.7659498 34.3867188,59.6474614 34.3867188,59.5517578 C34.3867188,59.49707 34.4129229,59.4435224 34.465332,59.3911133 C34.5177411,59.3387042 34.6168612,59.276042 34.7626953,59.203125 C34.990561,59.0891921 35.2070302,59.0014652 35.4121094,58.9399414 C35.6171885,58.8784177 35.8359363,58.8328452 36.0683594,58.8032227 C36.3007824,58.7736001 36.533202,58.7587891 36.765625,58.7587891 C37.1484394,58.7587891 37.4925115,58.8111974 37.7978516,58.9160156 C38.1031916,59.0208339 38.3652333,59.1826161 38.5839844,59.4013672 C38.7845062,59.6064463 38.9348953,59.8593735 39.0351562,60.1601562 C39.1354172,60.460939 39.1855469,60.8323546 39.1855469,61.2744141 L39.1855469,63.796875 C39.1855469,63.9518237 39.2014972,64.0874018 39.2333984,64.2036133 C39.2652996,64.3198248 39.2926431,64.4029945 39.3154297,64.453125 C39.3701175,64.5989591 39.3974609,64.6832681 39.3974609,64.7060547 C39.3974609,64.8199875 39.291505,64.9134111 39.0795898,64.9863281 C38.8676747,65.0592452 38.7024746,65.0957031 38.5839844,65.0957031 C38.5292966,65.0957031 38.4837241,65.0831707 38.4472656,65.0581055 C38.4108071,65.0330402 38.3789064,64.995443 38.3515625,64.9453125 C38.2649735,64.8177077 38.1852217,64.5989599 38.1123047,64.2890625 C37.8160792,64.5852879 37.4993506,64.8006178 37.1621094,64.9350586 C36.8248681,65.0694994 36.4602884,65.1367188 36.0683594,65.1367188 Z M36.2324219,64.1728516 C36.437501,64.1728516 36.645995,64.1432295 36.8579102,64.0839844 C37.0698253,64.0247393 37.2714834,63.9210619 37.4628906,63.7729492 C37.6542978,63.6248365 37.8001297,63.4357108 37.9003906,63.2055664 C38.0006515,62.975422 38.0507812,62.7236342 38.0507812,62.4501953 L38.0507812,62.0058594 L36.4853516,62.1425781 C36.1207664,62.1790366 35.8336599,62.2838533 35.6240234,62.4570312 C35.414387,62.6302092 35.3095703,62.8808577 35.3095703,63.2089844 C35.3095703,63.377605 35.3357745,63.5222976 35.3881836,63.6430664 C35.4405927,63.7638352 35.5089514,63.8640947 35.5932617,63.9438477 C35.677572,64.0236007 35.7755528,64.0817055 35.887207,64.1181641 C35.9988612,64.1546226 36.1139317,64.1728516 36.2324219,64.1728516 Z M41.3867188,65.0546875 C41.245442,65.0546875 41.1349288,65.045573 41.0551758,65.0273438 C40.9754228,65.0091145 40.9218751,64.9863283 40.8945312,64.9589844 C40.8398435,64.9179685 40.8125,64.824545 40.8125,64.6787109 L40.8125,56.1269531 C40.8125,55.9492179 40.8444007,55.8307295 40.9082031,55.7714844 C40.9628909,55.7167966 41.1223945,55.6621096 41.3867188,55.6074219 C41.5234382,55.580078 41.6305335,55.5664062 41.7080078,55.5664062 C41.8173834,55.5664062 41.8880207,55.5755207 41.9199219,55.59375 C41.9746096,55.6347658 42.0019531,55.7281894 42.0019531,55.8740234 L42.0019531,64.6650391 C42.0019531,64.8108731 41.9746096,64.9042967 41.9199219,64.9453125 C41.8880207,64.9726564 41.8310551,64.9977212 41.7490234,65.0205078 C41.6669918,65.0432944 41.5462248,65.0546875 41.3867188,65.0546875 Z M44.2304688,65.0546875 C44.089192,65.0546875 43.9786788,65.045573 43.8989258,65.0273438 C43.8191728,65.0091145 43.7656251,64.9863283 43.7382812,64.9589844 C43.6835935,64.9179685 43.65625,64.824545 43.65625,64.6787109 L43.65625,56.1269531 C43.65625,55.9492179 43.6881507,55.8307295 43.7519531,55.7714844 C43.8066409,55.7167966 43.9661445,55.6621096 44.2304688,55.6074219 C44.3671882,55.580078 44.4742835,55.5664062 44.5517578,55.5664062 C44.6611334,55.5664062 44.7317707,55.5755207 44.7636719,55.59375 C44.8183596,55.6347658 44.8457031,55.7281894 44.8457031,55.8740234 L44.8457031,64.6650391 C44.8457031,64.8108731 44.8183596,64.9042967 44.7636719,64.9453125 C44.7317707,64.9726564 44.6748051,64.9977212 44.5927734,65.0205078 C44.5107418,65.0432944 44.3899748,65.0546875 44.2304688,65.0546875 Z M52.9941406,65.1367188 C52.5338519,65.1367188 52.1077494,65.0797532 51.7158203,64.9658203 C51.3238913,64.8518875 50.9843764,64.6798514 50.6972656,64.449707 C50.4101548,64.2195627 50.1845711,63.9278989 50.0205078,63.574707 C49.8564445,63.2215152 49.7744141,62.8056665 49.7744141,62.3271484 C49.7744141,61.9306621 49.8461907,61.5569679 49.9897461,61.2060547 C50.1333015,60.8551415 50.3292631,60.5668957 50.5776367,60.3413086 C50.8260104,60.1157215 51.0800768,59.9414069 51.3398438,59.8183594 C51.1848951,59.7499997 51.0356452,59.6542975 50.8920898,59.53125 C50.7485344,59.4082025 50.6220709,59.2635099 50.5126953,59.097168 C50.4033198,58.930826 50.3155928,58.7417003 50.2495117,58.5297852 C50.1834307,58.31787 50.1503906,58.0843112 50.1503906,57.8291016 C50.1503906,57.2958958 50.2928046,56.8333353 50.5776367,56.4414062 C50.8624689,56.0494772 51.2008444,55.781739 51.5927734,55.6381836 C51.9847025,55.4946282 52.3401677,55.4228516 52.6591797,55.4228516 C53.1878282,55.4228516 53.6777321,55.4980461 54.1289062,55.6484375 C54.3111988,55.7076826 54.4410803,55.771484 54.5185547,55.8398438 C54.596029,55.9082035 54.6347656,55.9742835 54.6347656,56.0380859 C54.6347656,56.1520188 54.6051435,56.2750644 54.5458984,56.4072266 C54.5048826,56.5120448 54.4581708,56.6009111 54.4057617,56.6738281 C54.3533526,56.7467452 54.2838546,56.7832031 54.1972656,56.7832031 C54.1061193,56.7832031 54.0263675,56.7615562 53.9580078,56.7182617 C53.8896481,56.6749672 53.8030604,56.6350913 53.6982422,56.5986328 C53.6070959,56.5667316 53.479493,56.531413 53.3154297,56.4926758 C53.1513664,56.4539386 52.941733,56.4345703 52.6865234,56.4345703 C52.5133455,56.4345703 52.347006,56.466471 52.1875,56.5302734 C52.027994,56.5940758 51.8867194,56.689778 51.7636719,56.8173828 C51.6406244,56.9449876 51.5415043,57.1022126 51.4663086,57.2890625 C51.3911129,57.4759124 51.3535156,57.6946602 51.3535156,57.9453125 C51.3535156,58.387372 51.5141585,58.7211903 51.8354492,58.9467773 C52.1567399,59.1723644 52.6090466,59.2851562 53.1923828,59.2851562 L57.2939453,59.2851562 C57.4397794,59.2851562 57.529785,59.3022459 57.5639648,59.3364258 C57.5981447,59.3706056 57.6152344,59.4469395 57.6152344,59.5654297 C57.6152344,59.6839199 57.6038413,59.801269 57.5810547,59.9174805 C57.5582681,60.033692 57.5332033,60.1168617 57.5058594,60.1669922 C57.4602862,60.2399092 57.4090172,60.286621 57.3520508,60.3071289 C57.2950844,60.3276368 57.2141932,60.3378906 57.109375,60.3378906 L56.3847656,60.3378906 L56.3847656,61.7666016 C56.3847656,62.3134793 56.3050138,62.7976867 56.1455078,63.2192383 C55.9860018,63.6407899 55.7592788,63.9928371 55.465332,64.2753906 C55.1713852,64.5579441 54.8159201,64.7721347 54.3989258,64.9179688 C53.9819315,65.0638028 53.5136745,65.1367188 52.9941406,65.1367188 Z M53.0761719,64.0498047 C53.7688837,64.0498047 54.2849918,63.8584004 54.6245117,63.4755859 C54.9640316,63.0927715 55.1337891,62.5003295 55.1337891,61.6982422 L55.1337891,60.3378906 L53.0351562,60.3378906 C52.5338517,60.3378906 52.132814,60.4506825 51.8320312,60.6762695 C51.5312485,60.9018566 51.3375655,61.1673162 51.2509766,61.4726562 C51.1643876,61.7779963 51.1210938,62.0628242 51.1210938,62.3271484 C51.1210938,62.9195993 51.2840153,63.3548163 51.6098633,63.6328125 C51.9357113,63.9108087 52.4244759,64.0498047 53.0761719,64.0498047 Z M62.9335938,65.0546875 C62.7011707,65.0546875 62.5428064,65.0364585 62.4584961,65 C62.3741858,64.9635415 62.327474,64.9191083 62.3183594,64.8666992 C62.3092447,64.8142901 62.3046875,64.7425135 62.3046875,64.6513672 L62.3046875,56.0244141 C62.3046875,55.8922519 62.3365882,55.7942712 62.4003906,55.7304688 C62.4368491,55.6940102 62.4938147,55.6666668 62.5712891,55.6484375 C62.6487634,55.6302082 62.7649732,55.6210938 62.9199219,55.6210938 L67.609375,55.6210938 C67.7096359,55.6210938 67.7848305,55.6393227 67.8349609,55.6757812 C67.8714195,55.7122398 67.8896484,55.7874343 67.8896484,55.9013672 C67.8896484,56.0107427 67.8782553,56.1349277 67.8554688,56.2739258 C67.8326822,56.4129239 67.8053387,56.512044 67.7734375,56.5712891 C67.736979,56.6259768 67.6891279,56.6635741 67.6298828,56.684082 C67.5706377,56.7045899 67.4886073,56.7148438 67.3837891,56.7148438 L63.5761719,56.7148438 L63.5761719,59.4970703 L66.9804688,59.4970703 C67.0898443,59.4970703 67.1627602,59.5152993 67.1992188,59.5517578 C67.2402346,59.5927736 67.2607422,59.6679682 67.2607422,59.7773438 C67.2607422,59.8867193 67.2493491,60.0109043 67.2265625,60.1499023 C67.2037759,60.2889004 67.1752931,60.3880205 67.1411133,60.4472656 C67.1069334,60.5065107 67.0602217,60.5452473 67.0009766,60.5634766 C66.9417315,60.5817058 66.859701,60.5908203 66.7548828,60.5908203 L63.5761719,60.5908203 L63.5761719,64.6513672 C63.5761719,64.778972 63.5625001,64.8655597 63.5351562,64.9111328 C63.5078124,64.956706 63.4428716,64.9920246 63.340332,65.0170898 C63.2377925,65.0421551 63.1022144,65.0546875 62.9335938,65.0546875 Z M69.359375,65.0546875 C69.2180983,65.0546875 69.107585,65.045573 69.027832,65.0273438 C68.948079,65.0091145 68.8945314,64.9863283 68.8671875,64.9589844 C68.8124997,64.9179685 68.7851562,64.824545 68.7851562,64.6787109 L68.7851562,59.3740234 C68.7851562,59.2828771 68.7919921,59.2111005 68.8056641,59.1586914 C68.819336,59.1062823 68.8444009,59.0618491 68.8808594,59.0253906 C68.9309898,58.9661455 69.0904934,58.90918 69.359375,58.8544922 C69.4960944,58.8271483 69.6031897,58.8134766 69.6806641,58.8134766 C69.7945969,58.8134766 69.8652342,58.8271483 69.8925781,58.8544922 C69.9472659,58.895508 69.9746094,58.9843743 69.9746094,59.1210938 L69.9746094,59.7773438 C70.070313,59.5859365 70.2081697,59.4139005 70.3881836,59.2612305 C70.5681975,59.1085604 70.7550446,58.9957686 70.9487305,58.9228516 C71.1424163,58.8499345 71.316731,58.8134766 71.4716797,58.8134766 C71.6129564,58.8134766 71.7439773,58.8282876 71.8647461,58.8579102 C71.9855149,58.8875327 72.0983068,58.9228514 72.203125,58.9638672 C72.3261725,59.0139976 72.4264319,59.0698239 72.5039062,59.1313477 C72.5813806,59.1928714 72.6201172,59.2600908 72.6201172,59.3330078 C72.6201172,59.3831383 72.5745447,59.5221343 72.4833984,59.75 C72.3603509,59.9915377 72.2555343,60.1123047 72.1689453,60.1123047 C72.1051429,60.1123047 72.0458987,60.0963543 71.9912109,60.0644531 C71.9365232,60.0325519 71.8658858,60.0029298 71.7792969,59.9755859 C71.5833324,59.9072262 71.4147142,59.8730469 71.2734375,59.8730469 C71.0318998,59.8730469 70.8006196,59.9835601 70.5795898,60.2045898 C70.3585601,60.4256196 70.2024744,60.6796861 70.1113281,60.9667969 C70.0201818,61.2539077 69.9746094,61.5250638 69.9746094,61.7802734 L69.9746094,64.6650391 C69.9746094,64.8108731 69.9472659,64.9042967 69.8925781,64.9453125 C69.8606769,64.9726564 69.8037113,64.9977212 69.7216797,65.0205078 C69.639648,65.0432944 69.518881,65.0546875 69.359375,65.0546875 Z M74.0214844,65.0546875 C73.8802076,65.0546875 73.7696944,65.045573 73.6899414,65.0273438 C73.6101884,65.0091145 73.5566408,64.9863283 73.5292969,64.9589844 C73.4746091,64.9179685 73.4472656,64.824545 73.4472656,64.6787109 L73.4472656,59.3740234 C73.4472656,59.2828771 73.4541015,59.2111005 73.4677734,59.1586914 C73.4814454,59.1062823 73.5065102,59.0618491 73.5429688,59.0253906 C73.5930992,58.9661455 73.7526028,58.90918 74.0214844,58.8544922 C74.1582038,58.8271483 74.2652991,58.8134766 74.3427734,58.8134766 C74.4567063,58.8134766 74.5273436,58.8271483 74.5546875,58.8544922 C74.6093753,58.895508 74.6367188,58.9843743 74.6367188,59.1210938 L74.6367188,64.6650391 C74.6367188,64.8108731 74.6093753,64.9042967 74.5546875,64.9453125 C74.5227863,64.9726564 74.4658207,64.9977212 74.3837891,65.0205078 C74.3017574,65.0432944 74.1809904,65.0546875 74.0214844,65.0546875 Z M74.0351562,57.3984375 C73.8893222,57.3984375 73.7514655,57.352865 73.621582,57.2617188 C73.4916986,57.1705725 73.4062502,57.0725917 73.3652344,56.9677734 C73.3242185,56.8629552 73.3037109,56.7581385 73.3037109,56.6533203 C73.3037109,56.5166009 73.3424475,56.3833014 73.4199219,56.253418 C73.4973962,56.1235345 73.5919591,56.0323896 73.7036133,55.9799805 C73.8152675,55.9275714 73.9257807,55.9013672 74.0351562,55.9013672 C74.1627611,55.9013672 74.2903639,55.9401038 74.4179688,56.0175781 C74.5455736,56.0950525 74.6367185,56.1941726 74.6914062,56.3149414 C74.746094,56.4357102 74.7734375,56.5485021 74.7734375,56.6533203 C74.7734375,56.7991544 74.731283,56.9370111 74.6469727,57.0668945 C74.5626623,57.196778 74.4646815,57.284505 74.3530273,57.3300781 C74.2413731,57.3756513 74.1354172,57.3984375 74.0351562,57.3984375 Z M78.8681641,65.1367188 C78.4306619,65.1367188 78.0330422,65.0603849 77.675293,64.9077148 C77.3175438,64.7550448 77.0122083,64.5385756 76.7592773,64.2583008 C76.5063464,63.9780259 76.3115241,63.6407897 76.1748047,63.246582 C76.0380853,62.8523743 75.9697266,62.4137394 75.9697266,61.9306641 C75.9697266,61.452146 76.0358066,61.0180684 76.1679688,60.628418 C76.3001309,60.2387676 76.4881173,59.9049493 76.7319336,59.6269531 C76.9757499,59.3489569 77.2674137,59.1347664 77.6069336,58.984375 C77.9464535,58.8339836 78.3235656,58.7587891 78.7382812,58.7587891 C79.3763053,58.7587891 79.9060851,58.9182927 80.3276367,59.2373047 C80.7491883,59.5563167 81.0351555,59.9573544 81.1855469,60.4404297 C81.3359383,60.923505 81.4111328,61.4065731 81.4111328,61.8896484 C81.4111328,62.0491544 81.3701176,62.1562497 81.2880859,62.2109375 C81.2060543,62.2792972 81.0419934,62.3134766 80.7958984,62.3134766 L77.1865234,62.3134766 C77.2184246,62.5641289 77.2810868,62.7954091 77.3745117,63.0073242 C77.4679367,63.2192393 77.5887037,63.4015292 77.7368164,63.5541992 C77.8849291,63.7068693 78.0569652,63.8253577 78.2529297,63.909668 C78.4488942,63.9939783 78.6630848,64.0361328 78.8955078,64.0361328 C79.1370455,64.0361328 79.3341464,64.0190431 79.4868164,63.9848633 C79.6394864,63.9506834 79.8001294,63.901693 79.96875,63.8378906 C80.0826829,63.7968748 80.1863602,63.7490237 80.2797852,63.6943359 C80.3732101,63.6396482 80.4609371,63.6123047 80.5429688,63.6123047 C80.6432297,63.6123047 80.7195635,63.6442054 80.7719727,63.7080078 C80.8243818,63.7718102 80.8756508,63.851562 80.9257812,63.9472656 C81.0260422,64.1477875 81.0761719,64.2753904 81.0761719,64.3300781 C81.0761719,64.3938805 81.0499677,64.4554033 80.9975586,64.5146484 C80.9451495,64.5738935 80.8414721,64.6422522 80.6865234,64.7197266 C80.4586577,64.8291021 80.2604175,64.9111325 80.0917969,64.9658203 C79.9231762,65.0205081 79.7306326,65.0626626 79.5141602,65.0922852 C79.2976877,65.1219077 79.0823578,65.1367188 78.8681641,65.1367188 Z M77.2275391,61.3291016 L80.1669922,61.3291016 C80.1533202,60.9781883 80.0712898,60.6717135 79.9208984,60.409668 C79.7705071,60.1476224 79.5870779,59.9676112 79.3706055,59.8696289 C79.154133,59.7716466 78.9388032,59.7226562 78.7246094,59.7226562 C78.2916645,59.7226562 77.953289,59.8662095 77.7094727,60.1533203 C77.4656563,60.4404311 77.3050134,60.8323543 77.2275391,61.3291016 Z M83.2773438,65.0546875 C83.136067,65.0546875 83.0255538,65.045573 82.9458008,65.0273438 C82.8660478,65.0091145 82.8125001,64.9863283 82.7851562,64.9589844 C82.7304685,64.9179685 82.703125,64.824545 82.703125,64.6787109 L82.703125,59.3740234 C82.703125,59.2828771 82.7099609,59.2111005 82.7236328,59.1586914 C82.7373048,59.1062823 82.7623696,59.0618491 82.7988281,59.0253906 C82.8489586,58.9661455 83.0084622,58.90918 83.2773438,58.8544922 C83.4140632,58.8271483 83.5211585,58.8134766 83.5986328,58.8134766 C83.7125657,58.8134766 83.783203,58.8271483 83.8105469,58.8544922 C83.8652346,58.895508 83.8925781,58.9843743 83.8925781,59.1210938 L83.8925781,59.6542969 C84.0384122,59.4583324 84.2138662,59.2931322 84.4189453,59.1586914 C84.6240245,59.0242506 84.8461902,58.9239912 85.0854492,58.8579102 C85.3247082,58.7918291 85.5514312,58.7587891 85.765625,58.7587891 C86.3216174,58.7587891 86.7716454,58.8806954 87.1157227,59.1245117 C87.4597999,59.368328 87.6876622,59.6691063 87.7993164,60.0268555 C87.9109706,60.3846047 87.9667969,60.7320947 87.9667969,61.0693359 L87.9667969,64.6650391 C87.9667969,64.8108731 87.9394534,64.9042967 87.8847656,64.9453125 C87.8528644,64.9726564 87.7958988,64.9977212 87.7138672,65.0205078 C87.6318355,65.0432944 87.5110685,65.0546875 87.3515625,65.0546875 C87.2102858,65.0546875 87.0997725,65.045573 87.0200195,65.0273438 C86.9402665,65.0091145 86.8867189,64.9863283 86.859375,64.9589844 C86.8046872,64.9179685 86.7773438,64.824545 86.7773438,64.6787109 L86.7773438,61.2060547 C86.7773438,60.7275367 86.6668305,60.3720715 86.4458008,60.1396484 C86.224771,59.9072254 85.9000672,59.7910156 85.4716797,59.7910156 C85.2574859,59.7910156 85.0546885,59.8354488 84.8632812,59.9243164 C84.671874,60.013184 84.5043952,60.1328117 84.3608398,60.2832031 C84.2172844,60.4335945 84.1033533,60.6067699 84.019043,60.8027344 C83.9347327,60.9986989 83.8925781,61.203775 83.8925781,61.4179688 L83.8925781,64.6650391 C83.8925781,64.8108731 83.8652346,64.9042967 83.8105469,64.9453125 C83.7786457,64.9726564 83.7216801,64.9977212 83.6396484,65.0205078 C83.5576168,65.0432944 83.4368498,65.0546875 83.2773438,65.0546875 Z M91.8769531,65.1367188 C91.4804668,65.1367188 91.1215836,65.0615242 90.800293,64.9111328 C90.4790023,64.7607414 90.2032889,64.5488295 89.9731445,64.2753906 C89.7430002,64.0019518 89.5664069,63.6704121 89.4433594,63.2807617 C89.3203119,62.8911113 89.2587891,62.4570336 89.2587891,61.9785156 C89.2587891,61.4999976 89.3203119,61.0636413 89.4433594,60.6694336 C89.5664069,60.2752259 89.7430002,59.9368504 89.9731445,59.6542969 C90.2032889,59.3717434 90.4846989,59.1518563 90.8173828,58.9946289 C91.1500668,58.8374016 91.5260396,58.7587891 91.9453125,58.7587891 C92.1731782,58.7587891 92.377115,58.780436 92.5571289,58.8237305 C92.7371428,58.867025 92.9000644,58.9274085 93.0458984,59.0048828 C93.1917325,59.0823572 93.3204747,59.1735021 93.4321289,59.2783203 C93.5437831,59.3831385 93.6451818,59.4947911 93.7363281,59.6132812 L93.7363281,56.1269531 C93.7363281,55.9492179 93.7682288,55.8307295 93.8320312,55.7714844 C93.886719,55.7259112 94.0371081,55.6757815 94.2832031,55.6210938 C94.4746103,55.5846352 94.5908201,55.5664062 94.6318359,55.5664062 C94.7275395,55.5664062 94.7981769,55.580078 94.84375,55.6074219 C94.8984378,55.6484377 94.9257812,55.737304 94.9257812,55.8740234 L94.9257812,64.6787109 C94.9257812,64.824545 94.8984378,64.9179685 94.84375,64.9589844 C94.8164061,64.9863283 94.7696943,65.0091145 94.7036133,65.0273438 C94.6375322,65.045573 94.5338549,65.0546875 94.3925781,65.0546875 C94.2376294,65.0546875 94.1248376,65.0432944 94.0541992,65.0205078 C93.9835608,64.9977212 93.9345704,64.9726564 93.9072266,64.9453125 C93.8479815,64.9042967 93.8183594,64.8108731 93.8183594,64.6650391 L93.8183594,64.3027344 C93.6406241,64.5032562 93.4560556,64.6650384 93.2646484,64.7880859 C93.0732412,64.9111334 92.8556327,64.9999997 92.6118164,65.0546875 C92.3680001,65.1093753 92.1230481,65.1367188 91.8769531,65.1367188 Z M92.1708984,64.0908203 C92.5719421,64.0908203 92.9000638,63.9734712 93.1552734,63.7387695 C93.410483,63.5040678 93.5825191,63.215822 93.6713867,62.8740234 C93.7602544,62.5322249 93.8046875,62.2041031 93.8046875,61.8896484 C93.8046875,61.4886048 93.7272143,61.1160499 93.5722656,60.7719727 C93.4173169,60.4278954 93.2133802,60.1829434 92.9604492,60.0371094 C92.7075183,59.8912753 92.4443373,59.8183594 92.1708984,59.8183594 C91.7470682,59.8183594 91.4041354,59.9368478 91.1420898,60.1738281 C90.8800443,60.4108085 90.7080082,60.6956364 90.6259766,61.0283203 C90.5439449,61.3610043 90.5029297,61.6731756 90.5029297,61.9648438 C90.5029297,62.2747411 90.537109,62.559569 90.6054688,62.8193359 C90.6738285,63.0791029 90.7763665,63.3024079 90.9130859,63.4892578 C91.0498054,63.6761077 91.2229807,63.8230789 91.4326172,63.9301758 C91.6422537,64.0372727 91.8883449,64.0908203 92.1708984,64.0908203 Z M97.1542969,65.0546875 C97.0130201,65.0546875 96.9025069,65.045573 96.8227539,65.0273438 C96.7430009,65.0091145 96.6894533,64.9863283 96.6621094,64.9589844 C96.6074216,64.9179685 96.5800781,64.824545 96.5800781,64.6787109 L96.5800781,56.1269531 C96.5800781,55.9492179 96.6119788,55.8307295 96.6757812,55.7714844 C96.730469,55.7167966 96.8899726,55.6621096 97.1542969,55.6074219 C97.2910163,55.580078 97.3981116,55.5664062 97.4755859,55.5664062 C97.5849615,55.5664062 97.6555988,55.5755207 97.6875,55.59375 C97.7421878,55.6347658 97.7695312,55.7281894 97.7695312,55.8740234 L97.7695312,64.6650391 C97.7695312,64.8108731 97.7421878,64.9042967 97.6875,64.9453125 C97.6555988,64.9726564 97.5986332,64.9977212 97.5166016,65.0205078 C97.4345699,65.0432944 97.3138029,65.0546875 97.1542969,65.0546875 Z M100.415039,67.7753906 C100.219075,67.7753906 100.078939,67.7514651 99.9946289,67.7036133 C99.9103186,67.6557615 99.8681641,67.5999352 99.8681641,67.5361328 C99.8681641,67.4768877 99.9069007,67.3652352 99.984375,67.2011719 L101.214844,64.4257812 L98.7949219,59.4150391 C98.7265622,59.2737623 98.6923828,59.1712243 98.6923828,59.1074219 C98.6923828,59.0572914 98.7140297,59.0128583 98.7573242,58.9741211 C98.8006187,58.9353839 98.8735346,58.9034832 98.9760742,58.878418 C99.0786138,58.8533527 99.1936843,58.8408203 99.3212891,58.8408203 C99.5126963,58.8408203 99.6573888,58.85791 99.7553711,58.8920898 C99.8533534,58.9262697 99.92513,58.9934891 99.9707031,59.09375 L101.830078,63.0380859 L103.552734,59.1484375 C103.602865,59.02539 103.675781,58.9433596 103.771484,58.9023438 C103.867188,58.8613279 104.022134,58.8408203 104.236328,58.8408203 C104.459637,58.8408203 104.606608,58.8636065 104.677246,58.9091797 C104.747884,58.9547528 104.783203,59.0071612 104.783203,59.0664062 C104.783203,59.1438806 104.746745,59.2600904 104.673828,59.4150391 L101.105469,67.4609375 C101.050781,67.583985 100.976726,67.6671547 100.883301,67.7104492 C100.789876,67.7537437 100.63379,67.7753906 100.415039,67.7753906 Z" id="Small-&amp;-Friendly" fill="#092A5E"></path>
        </g>
    </g>
</svg>