<svg id="Layer_1" data-name="Layer 1" xmlns="http://www.w3.org/2000/svg" width="240" height="106" viewBox="0 0 240 106"><defs><style>.cls-1{fill:#d40e14;}</style></defs><title>Artboard 1</title><path class="cls-1" d="M239.07,91.1a1.79,1.79,0,0,0,.51-.65,2.86,2.86,0,0,0,.16-1.09V53.68a3,3,0,0,0-.16-1.11,1.55,1.55,0,0,0-.51-.62q-.81-.62-3.76-.62t-3.82.62a1.55,1.55,0,0,0-.51.62,3,3,0,0,0-.13,1.11V89.38a2.14,2.14,0,0,0,.62,1.73q.81.62,3.82.62T239.07,91.1Zm-26.62.2a13.6,13.6,0,0,0,5-2.92A11.26,11.26,0,0,0,220.37,84a16.28,16.28,0,0,0,.92-5.55V53.68a2.09,2.09,0,0,0-.62-1.75q-.88-.62-3.76-.62t-3.82.62a1.38,1.38,0,0,0-.52.62,3.24,3.24,0,0,0-.2,1.13V78.34a9.43,9.43,0,0,1-.51,3,4.69,4.69,0,0,1-2.23,2.54,9,9,0,0,1-4.55,1,10.52,10.52,0,0,1-3.34-.47,5.81,5.81,0,0,1-2.26-1.33A5.18,5.18,0,0,1,198.18,81a8.3,8.3,0,0,1-.41-2.67V53.68a2.09,2.09,0,0,0-.62-1.75q-.88-.62-3.76-.62t-3.82.62a1.38,1.38,0,0,0-.52.62,3.24,3.24,0,0,0-.12,1.13V78.44a16.29,16.29,0,0,0,.92,5.55,11.26,11.26,0,0,0,2.88,4.42,13.6,13.6,0,0,0,5,2.88,26.25,26.25,0,0,0,14.7,0Zm-43.62-.2a1.65,1.65,0,0,0,.49-.65,3.08,3.08,0,0,0,.15-1.09V58.91h8.9a5.55,5.55,0,0,0,1.6-.19,1.63,1.63,0,0,0,.95-.83,7.32,7.32,0,0,0,.62-2.19,15.27,15.27,0,0,0,.22-2.24,3.7,3.7,0,0,0-.12-1.07,1.12,1.12,0,0,0-.47-.62,1.85,1.85,0,0,0-.62-.22,7.09,7.09,0,0,0-1.17-.07H151.67a5.55,5.55,0,0,0-1.6.19,1.64,1.64,0,0,0-1,.83,6.29,6.29,0,0,0-.62,1.92,13.78,13.78,0,0,0-.22,2.47A3.82,3.82,0,0,0,148.4,58a1.08,1.08,0,0,0,.49.62,3.7,3.7,0,0,0,1.78.29h9.91V89.34a2,2,0,0,0,.67,1.75q.81.62,3.82.62t3.75-.6Z"/><path class="cls-1" d="M6.46,29.64H37.65c3.08,0,5.36,1,6.26,5.31,1,4.83.62,8.19-4.84,8.57l-9.8.7c7.22,45.5,49.32,60.34,72.25,11.31,3.8-8.11,5-9.59,9.19-8.56,5.63,1.4,6.4,4.32,3.7,12.47C94.62,119.88,28,125.94,14.93,45.25L7,45.82c-6.47.46-6.73-5-6.73-8C.25,31.79,2.48,29.64,6.46,29.64Z"/><circle class="cls-1" cx="119.8" cy="11.99" r="11.56"/></svg>