<?xml version="1.0" encoding="utf-8"?>
<!-- Generator: Adobe Illustrator 21.0.0, SVG Export Plug-In . SVG Version: 6.00 Build 0)  -->
<svg version="1.1" id="Layer_1" xmlns="http://www.w3.org/2000/svg" xmlns:xlink="http://www.w3.org/1999/xlink" x="0px" y="0px"
	 viewBox="0 0 120 120" style="enable-background:new 0 0 120 120;" xml:space="preserve">
<style type="text/css">
	.st0{fill:#092A5E;}
</style>
<g>
	<path class="st0" d="M22.9,65.6c-0.2,0-0.4,0-0.5-0.1c-0.1,0-0.1-0.1-0.2-0.2l-3-8.5c0-0.1,0-0.1,0-0.2c0,0,0-0.1,0.1-0.1
		c0,0,0.1,0,0.2-0.1c0.1,0,0.2,0,0.4,0c0.4,0,0.6,0.1,0.7,0.4l2.4,6.8l2.4-6.8c0-0.1,0.1-0.2,0.1-0.3c0,0,0.1-0.1,0.2-0.1
		s0.2,0,0.4,0c0.2,0,0.3,0,0.4,0s0.1,0,0.2,0.1v0.1c0,0,0,0.1-0.1,0.3l-2.9,8.4c0,0.1-0.1,0.2-0.2,0.2
		C23.2,65.6,23.1,65.6,22.9,65.6z"/>
	<path class="st0" d="M28,58.2c-0.1,0-0.3,0-0.4-0.1s-0.2-0.2-0.2-0.3s-0.1-0.2-0.1-0.3s0-0.3,0.1-0.4c0.1-0.1,0.2-0.2,0.3-0.3
		c0.1-0.1,0.2-0.1,0.3-0.1c0.1,0,0.2,0,0.4,0.1c0.1,0.1,0.2,0.2,0.3,0.3c0.1,0.1,0.1,0.2,0.1,0.3s0,0.3-0.1,0.4
		c-0.1,0.1-0.2,0.2-0.3,0.3C28.2,58.2,28.1,58.2,28,58.2z M28,65.6c-0.1,0-0.2,0-0.3,0c-0.1,0-0.1,0-0.2-0.1c-0.1,0-0.1-0.1-0.1-0.3
		v-5.1c0-0.1,0-0.2,0-0.2c0-0.1,0-0.1,0.1-0.1c0-0.1,0.2-0.1,0.5-0.2c0.1,0,0.2,0,0.3,0c0.1,0,0.2,0,0.2,0c0.1,0,0.1,0.1,0.1,0.3
		v5.3c0,0.1,0,0.2-0.1,0.3c0,0-0.1,0.1-0.2,0.1C28.3,65.6,28.1,65.6,28,65.6z"/>
	<path class="st0" d="M30.8,65.6c-0.1,0-0.2,0-0.3,0c-0.1,0-0.1,0-0.2-0.1c-0.1,0-0.1-0.1-0.1-0.3V57c0-0.2,0-0.3,0.1-0.3
		c0.1-0.1,0.2-0.1,0.5-0.2c0.1,0,0.2,0,0.3,0c0.1,0,0.2,0,0.2,0c0.1,0,0.1,0.1,0.1,0.3v8.5c0,0.1,0,0.2-0.1,0.3c0,0-0.1,0.1-0.2,0.1
		S31,65.6,30.8,65.6z"/>
	<path class="st0" d="M33.7,65.6c-0.1,0-0.2,0-0.3,0s-0.1,0-0.2-0.1c-0.1,0-0.1-0.1-0.1-0.3V57c0-0.2,0-0.3,0.1-0.3
		c0.1-0.1,0.2-0.1,0.5-0.2c0.1,0,0.2,0,0.3,0s0.2,0,0.2,0c0.1,0,0.1,0.1,0.1,0.3v8.5c0,0.1,0,0.2-0.1,0.3c0,0-0.1,0.1-0.2,0.1
		S33.8,65.6,33.7,65.6z"/>
	<path class="st0" d="M37.3,65.7c-0.2,0-0.5,0-0.7-0.1s-0.4-0.2-0.6-0.3c-0.2-0.1-0.3-0.3-0.4-0.6c-0.1-0.2-0.2-0.5-0.2-0.8
		c0-0.5,0.1-0.9,0.3-1.2s0.5-0.5,0.9-0.6s0.7-0.2,1-0.2l1.5-0.1v-0.1c0-0.2-0.1-0.5-0.2-0.6c-0.1-0.2-0.3-0.3-0.5-0.4
		c-0.2-0.1-0.4-0.1-0.6-0.1c-0.3,0-0.5,0-0.7,0.1s-0.5,0.2-0.8,0.3c-0.1,0-0.2,0.1-0.3,0.1s-0.1,0-0.2-0.1c-0.1-0.1-0.1-0.1-0.1-0.2
		c-0.1-0.1-0.1-0.2-0.1-0.3s0-0.1,0.1-0.2c0.1-0.1,0.1-0.1,0.3-0.2c0.2-0.1,0.4-0.2,0.6-0.3c0.2-0.1,0.4-0.1,0.6-0.1
		c0.2,0,0.4,0,0.7,0c0.4,0,0.7,0.1,1,0.2c0.3,0.1,0.5,0.3,0.8,0.5c0.2,0.2,0.3,0.4,0.4,0.7c0.1,0.3,0.1,0.6,0.1,1.1v2.4
		c0,0.2,0,0.3,0,0.4s0.1,0.2,0.1,0.2c0.1,0.1,0.1,0.2,0.1,0.2c0,0.1-0.1,0.2-0.3,0.3c-0.2,0.1-0.4,0.1-0.5,0.1s-0.1,0-0.1,0
		l-0.1-0.1c-0.1-0.1-0.2-0.3-0.2-0.6c-0.3,0.3-0.6,0.5-0.9,0.6S37.7,65.7,37.3,65.7z M37.5,64.7c0.2,0,0.4,0,0.6-0.1
		s0.4-0.2,0.6-0.3c0.2-0.1,0.3-0.3,0.4-0.5c0.1-0.2,0.1-0.5,0.1-0.7v-0.4l-1.5,0.1c-0.4,0-0.6,0.1-0.8,0.3s-0.3,0.4-0.3,0.7
		c0,0.2,0,0.3,0.1,0.4s0.1,0.2,0.2,0.3c0.1,0.1,0.2,0.1,0.3,0.2C37.2,64.7,37.3,64.7,37.5,64.7z"/>
	<path class="st0" d="M43.8,65.7c-0.3,0-0.5,0-0.7,0s-0.4-0.1-0.6-0.1c-0.2,0-0.3-0.1-0.4-0.1c-0.1-0.1-0.2-0.1-0.3-0.1
		c-0.1-0.1-0.2-0.1-0.3-0.2c0-0.1-0.1-0.1-0.1-0.2s0.1-0.3,0.2-0.4c0.1-0.1,0.1-0.2,0.2-0.2c0.1,0,0.1,0,0.2,0c0.1,0,0.2,0,0.3,0.1
		s0.2,0.1,0.2,0.1c0.2,0.1,0.4,0.2,0.7,0.2c0.2,0.1,0.5,0.1,0.7,0.1c0.3,0,0.5,0,0.7-0.1s0.3-0.2,0.4-0.3c0.1-0.1,0.1-0.3,0.1-0.4
		c0-0.2-0.1-0.4-0.3-0.5s-0.5-0.2-0.9-0.3L43.3,63c-0.2,0-0.5-0.1-0.7-0.2c-0.2-0.1-0.4-0.2-0.6-0.3c-0.2-0.1-0.3-0.3-0.4-0.5
		s-0.2-0.4-0.2-0.7c0-0.4,0.1-0.8,0.4-1c0.2-0.3,0.5-0.5,0.9-0.6c0.3-0.1,0.7-0.2,1-0.2s0.6,0,0.8,0.1c0.3,0,0.5,0.1,0.8,0.2
		c0.2,0.1,0.3,0.1,0.3,0.2c0.1,0.1,0.1,0.1,0.1,0.2c0,0.1,0,0.2-0.1,0.4s-0.2,0.3-0.3,0.3s-0.2,0-0.3-0.1c-0.1,0-0.2-0.1-0.3-0.1
		c-0.2,0-0.3-0.1-0.5-0.1s-0.4-0.1-0.6-0.1c-0.3,0-0.6,0.1-0.8,0.2c-0.2,0.1-0.3,0.3-0.3,0.5s0.1,0.4,0.3,0.5s0.5,0.2,0.8,0.3
		l0.6,0.1c0.3,0,0.5,0.1,0.7,0.2c0.2,0.1,0.4,0.2,0.6,0.3c0.2,0.1,0.3,0.3,0.4,0.5c0.1,0.2,0.1,0.5,0.1,0.7c0,0.4-0.1,0.8-0.4,1.1
		c-0.3,0.3-0.6,0.5-0.9,0.6C44.4,65.6,44.1,65.7,43.8,65.7z"/>
	<path class="st0" d="M54.4,65.7c-0.5,0-1.1-0.1-1.5-0.3c-0.5-0.2-0.9-0.5-1.2-0.9c-0.4-0.4-0.6-0.9-0.8-1.5s-0.3-1.2-0.3-2
		s0.1-1.4,0.3-2s0.5-1.1,0.8-1.5c0.4-0.4,0.8-0.7,1.3-0.9s1-0.3,1.5-0.3c0.6,0,1,0,1.3,0.1s0.6,0.2,0.8,0.3s0.3,0.1,0.3,0.2
		C57,57,57,57,57,57.1c0,0,0,0.1,0,0.2c0,0.1-0.1,0.2-0.1,0.3c-0.1,0.2-0.2,0.3-0.2,0.3C56.6,58,56.6,58,56.5,58c0,0-0.1,0-0.2-0.1
		c0,0-0.1,0-0.2-0.1c-0.1,0-0.2-0.1-0.3-0.2c-0.1-0.1-0.3-0.1-0.5-0.1s-0.5-0.1-0.8-0.1c-0.4,0-0.8,0.1-1.1,0.2
		c-0.3,0.2-0.6,0.4-0.8,0.7s-0.4,0.7-0.5,1.1c-0.1,0.4-0.2,1-0.2,1.5c0,0.6,0.1,1.1,0.2,1.5c0.1,0.4,0.3,0.8,0.6,1.1
		c0.2,0.3,0.5,0.5,0.8,0.7s0.7,0.2,1,0.2s0.6,0,0.9-0.1c0.3-0.1,0.5-0.1,0.6-0.2s0.2-0.1,0.3-0.1c0.1-0.1,0.2-0.1,0.3-0.1
		c0,0,0.1,0,0.2,0.1c0.1,0,0.1,0.1,0.2,0.2c0.1,0.2,0.2,0.4,0.2,0.5s-0.1,0.2-0.4,0.3c-0.1,0.1-0.3,0.2-0.6,0.2
		c-0.2,0.1-0.5,0.1-0.8,0.2C55,65.7,54.7,65.7,54.4,65.7z"/>
	<path class="st0" d="M60.6,65.7c-0.4,0-0.8-0.1-1.1-0.2s-0.6-0.4-0.9-0.6c-0.3-0.3-0.5-0.6-0.6-1s-0.2-0.8-0.2-1.3s0.1-0.9,0.2-1.3
		c0.1-0.4,0.3-0.7,0.6-1s0.5-0.5,0.9-0.6c0.3-0.1,0.7-0.2,1.1-0.2c0.6,0,1.1,0.2,1.6,0.5s0.8,0.7,1,1.2s0.3,0.9,0.3,1.4
		s-0.1,0.9-0.2,1.3c-0.1,0.4-0.3,0.7-0.6,1s-0.6,0.5-0.9,0.6C61.4,65.6,61,65.7,60.6,65.7z M60.6,64.7c0.4,0,0.7-0.1,1-0.3
		c0.3-0.2,0.5-0.5,0.5-0.8c0.1-0.3,0.1-0.6,0.1-0.9c0-0.4-0.1-0.8-0.2-1.2c-0.2-0.3-0.4-0.6-0.6-0.7s-0.5-0.2-0.8-0.2
		s-0.5,0.1-0.7,0.2c-0.2,0.1-0.4,0.3-0.5,0.4c-0.1,0.2-0.2,0.4-0.3,0.7C59,62,59,62.3,59,62.6s0,0.6,0.1,0.8
		c0.1,0.3,0.2,0.5,0.3,0.7c0.1,0.2,0.3,0.3,0.5,0.4S60.4,64.7,60.6,64.7z"/>
	<path class="st0" d="M65.4,65.6c-0.1,0-0.2,0-0.3,0c-0.1,0-0.1,0-0.2-0.1c-0.1,0-0.1-0.1-0.1-0.3V57c0-0.2,0-0.3,0.1-0.3
		c0.1-0.1,0.2-0.1,0.5-0.2c0.1,0,0.2,0,0.3,0c0.1,0,0.2,0,0.2,0c0.1,0,0.1,0.1,0.1,0.3v8.5c0,0.1,0,0.2-0.1,0.3c0,0-0.1,0.1-0.2,0.1
		C65.7,65.6,65.5,65.6,65.4,65.6z"/>
	<path class="st0" d="M68.2,65.6c-0.1,0-0.2,0-0.3,0c-0.1,0-0.1,0-0.2-0.1c-0.1,0-0.1-0.1-0.1-0.3V57c0-0.2,0-0.3,0.1-0.3
		c0.1-0.1,0.2-0.1,0.5-0.2c0.1,0,0.2,0,0.3,0c0.1,0,0.2,0,0.2,0c0.1,0,0.1,0.1,0.1,0.3v8.5c0,0.1,0,0.2-0.1,0.3c0,0-0.1,0.1-0.2,0.1
		C68.5,65.6,68.4,65.6,68.2,65.6z"/>
	<path class="st0" d="M73,65.7c-0.4,0-0.8-0.1-1.1-0.2c-0.3-0.1-0.6-0.4-0.9-0.6c-0.2-0.3-0.4-0.6-0.6-1c-0.1-0.4-0.2-0.8-0.2-1.3
		s0.1-0.9,0.2-1.3c0.1-0.4,0.3-0.7,0.5-1s0.5-0.5,0.8-0.6s0.7-0.2,1.1-0.2c0.6,0,1.1,0.2,1.5,0.5s0.7,0.7,0.8,1.2
		c0.1,0.5,0.2,0.9,0.2,1.4c0,0.2,0,0.3-0.1,0.3C75.1,63,75,63,74.7,63h-3.5c0,0.2,0.1,0.5,0.2,0.7s0.2,0.4,0.3,0.5
		c0.1,0.1,0.3,0.3,0.5,0.3c0.2,0.1,0.4,0.1,0.6,0.1s0.4,0,0.6,0c0.1,0,0.3-0.1,0.5-0.1c0.1,0,0.2-0.1,0.3-0.1
		c0.1-0.1,0.2-0.1,0.3-0.1c0.1,0,0.2,0,0.2,0.1c0.1,0.1,0.1,0.1,0.1,0.2c0.1,0.2,0.1,0.3,0.1,0.4s0,0.1-0.1,0.2s-0.2,0.1-0.3,0.2
		c-0.2,0.1-0.4,0.2-0.6,0.2c-0.2,0.1-0.3,0.1-0.6,0.1C73.4,65.6,73.2,65.7,73,65.7z M71.4,62h2.8c0-0.3-0.1-0.6-0.2-0.9
		c-0.1-0.3-0.3-0.4-0.5-0.5s-0.4-0.1-0.6-0.1c-0.4,0-0.7,0.1-1,0.4C71.6,61.1,71.5,61.5,71.4,62z"/>
	<path class="st0" d="M79.1,65.7c-0.4,0-0.7-0.1-1-0.2s-0.6-0.3-0.8-0.6s-0.4-0.6-0.6-1c-0.1-0.4-0.2-0.8-0.2-1.4
		c0-0.4,0.1-0.9,0.2-1.2c0.1-0.4,0.3-0.7,0.6-1c0.2-0.3,0.5-0.5,0.9-0.6c0.3-0.2,0.7-0.2,1.1-0.2c0.2,0,0.5,0,0.7,0.1
		s0.4,0.1,0.6,0.2c0.2,0.1,0.3,0.2,0.4,0.2c0.1,0.1,0.1,0.1,0.1,0.2c0,0.1,0,0.2-0.1,0.4s-0.2,0.3-0.3,0.3c0,0-0.2-0.1-0.5-0.2
		c-0.1-0.1-0.3-0.1-0.4-0.2c-0.1,0-0.3-0.1-0.5-0.1s-0.4,0.1-0.6,0.2c-0.2,0.1-0.3,0.2-0.5,0.4c-0.1,0.2-0.2,0.4-0.3,0.6
		c-0.1,0.2-0.1,0.5-0.1,0.8s0,0.6,0.1,0.8s0.2,0.5,0.3,0.6c0.1,0.2,0.3,0.3,0.5,0.4s0.4,0.1,0.6,0.1s0.3,0,0.5,0
		c0.1,0,0.2-0.1,0.4-0.1s0.2-0.1,0.3-0.2c0.1-0.1,0.2-0.1,0.3-0.1c0.1,0,0.2,0.1,0.4,0.3c0.1,0.2,0.1,0.3,0.1,0.4s0,0.1-0.1,0.2
		S81,64.9,80.9,65c-0.2,0.1-0.4,0.2-0.7,0.3C79.7,65.6,79.4,65.7,79.1,65.7z"/>
	<path class="st0" d="M84.1,65.7c-0.3,0-0.5,0-0.7-0.1s-0.4-0.2-0.5-0.3c-0.2-0.1-0.3-0.3-0.4-0.6c-0.1-0.2-0.1-0.5-0.1-0.9v-3.2
		h-0.8c-0.1,0-0.2,0-0.2,0s-0.1,0-0.1-0.1c0,0,0-0.1,0-0.2c0-0.2,0-0.4,0.1-0.5c0-0.1,0.1-0.1,0.1-0.1s0.1,0,0.2,0h0.6v-1.4
		c0-0.2,0-0.3,0.1-0.3c0.1-0.1,0.2-0.1,0.5-0.2c0.1,0,0.2,0,0.3,0c0.1,0,0.2,0,0.2,0c0.1,0,0.1,0.1,0.1,0.3v1.6H85
		c0.1,0,0.2,0,0.2,0s0,0.1,0,0.2c0,0.1,0,0.2,0,0.3s0,0.2-0.1,0.2c-0.1,0.1-0.2,0.2-0.4,0.2h-1.3V64c0,0.2,0.1,0.4,0.1,0.6
		c0.1,0.1,0.3,0.2,0.5,0.2s0.4-0.1,0.6-0.2c0.1,0,0.1-0.1,0.1-0.1s0.1,0,0.2,0s0.2,0.1,0.3,0.3c0.1,0.1,0.1,0.2,0.1,0.3
		c0,0.1,0,0.1-0.1,0.2S85,65.4,85,65.5c-0.1,0.1-0.3,0.1-0.4,0.2C84.6,65.6,84.3,65.7,84.1,65.7z"/>
	<path class="st0" d="M87,58.2c-0.1,0-0.3,0-0.4-0.1s-0.2-0.2-0.2-0.3s-0.1-0.2-0.1-0.3s0-0.3,0.1-0.4c0.1-0.1,0.2-0.2,0.3-0.3
		c0.1-0.1,0.2-0.1,0.3-0.1c0.1,0,0.2,0,0.4,0.1c0.1,0.1,0.2,0.2,0.3,0.3c0.1,0.1,0.1,0.2,0.1,0.3s0,0.3-0.1,0.4
		c-0.1,0.1-0.2,0.2-0.3,0.3C87.2,58.2,87.1,58.2,87,58.2z M87,65.6c-0.1,0-0.2,0-0.3,0c-0.1,0-0.1,0-0.2-0.1c-0.1,0-0.1-0.1-0.1-0.3
		v-5.1c0-0.1,0-0.2,0-0.2c0-0.1,0-0.1,0.1-0.1c0-0.1,0.2-0.1,0.5-0.2c0.1,0,0.2,0,0.3,0c0.1,0,0.2,0,0.2,0c0.1,0,0.1,0.1,0.1,0.3
		v5.3c0,0.1,0,0.2-0.1,0.3c0,0-0.1,0.1-0.2,0.1C87.3,65.6,87.2,65.6,87,65.6z"/>
	<path class="st0" d="M91.8,65.7c-0.4,0-0.8-0.1-1.1-0.2c-0.3-0.1-0.6-0.4-0.9-0.6c-0.3-0.3-0.5-0.6-0.6-1S89,63.1,89,62.6
		s0.1-0.9,0.2-1.3c0.1-0.4,0.3-0.7,0.6-1c0.3-0.3,0.6-0.5,0.9-0.6s0.7-0.2,1.1-0.2c0.6,0,1.1,0.2,1.6,0.5s0.8,0.7,1,1.2
		s0.3,0.9,0.3,1.4s-0.1,0.9-0.2,1.3s-0.3,0.7-0.6,1c-0.3,0.3-0.6,0.5-0.9,0.6C92.6,65.6,92.2,65.7,91.8,65.7z M91.8,64.7
		c0.4,0,0.7-0.1,1-0.3c0.3-0.2,0.5-0.5,0.5-0.8c0.1-0.3,0.1-0.6,0.1-0.9c0-0.4-0.1-0.8-0.2-1.2c-0.2-0.3-0.4-0.6-0.6-0.7
		s-0.5-0.2-0.8-0.2s-0.5,0.1-0.7,0.2c-0.2,0.1-0.4,0.3-0.5,0.4c-0.1,0.2-0.2,0.4-0.3,0.7c-0.1,0.3-0.1,0.5-0.1,0.8s0,0.6,0.1,0.8
		c0.1,0.3,0.2,0.5,0.3,0.7c0.1,0.2,0.3,0.3,0.5,0.4C91.3,64.6,91.5,64.7,91.8,64.7z"/>
	<path class="st0" d="M96.5,65.6c-0.1,0-0.2,0-0.3,0c-0.1,0-0.1,0-0.2-0.1c-0.1,0-0.1-0.1-0.1-0.3v-5.1c0-0.1,0-0.2,0-0.2
		c0-0.1,0-0.1,0.1-0.1c0-0.1,0.2-0.1,0.5-0.2c0.1,0,0.2,0,0.3,0c0.1,0,0.2,0,0.2,0c0.1,0,0.1,0.1,0.1,0.3v0.5
		c0.1-0.2,0.3-0.3,0.5-0.5c0.2-0.1,0.4-0.2,0.6-0.3s0.4-0.1,0.7-0.1c0.5,0,1,0.1,1.3,0.4c0.3,0.2,0.6,0.5,0.7,0.9
		c0.1,0.3,0.2,0.7,0.2,1v3.5c0,0.1,0,0.2-0.1,0.3c0,0-0.1,0.1-0.2,0.1s-0.2,0-0.3,0c-0.1,0-0.2,0-0.3,0c-0.1,0-0.1,0-0.2-0.1
		c-0.1,0-0.1-0.1-0.1-0.3V62c0-0.5-0.1-0.8-0.3-1c-0.2-0.2-0.5-0.3-0.9-0.3c-0.2,0-0.4,0-0.6,0.1s-0.3,0.2-0.5,0.3
		c-0.1,0.1-0.2,0.3-0.3,0.5s-0.1,0.4-0.1,0.6v3.1c0,0.1,0,0.2-0.1,0.3c0,0-0.1,0.1-0.2,0.1C96.8,65.6,96.7,65.6,96.5,65.6z"/>
</g>
</svg>
