<?xml version="1.0" encoding="utf-8"?>
<!-- Generator: Adobe Illustrator 21.0.0, SVG Export Plug-In . SVG Version: 6.00 Build 0)  -->
<svg version="1.1" id="Layer_1" xmlns="http://www.w3.org/2000/svg" xmlns:xlink="http://www.w3.org/1999/xlink" x="0px" y="0px"
	 width="120px" height="120px" viewBox="0 0 120 120" style="enable-background:new 0 0 120 120;" xml:space="preserve">
<style type="text/css">
	.st0{fill:#FFFFFF;}
</style>
<g>
	<path class="st0" d="M41.8,61.5c0,0.2-0.2,0.3-0.6,0.3c-0.5,0-0.6-0.1-0.6-0.3l-1.5-5.3l-1.4,5.3c0,0.2-0.2,0.3-0.6,0.3
		c-0.5,0-0.6-0.1-0.6-0.3l-2.4-8.4c0-0.1,0-0.1,0-0.2c0-0.1,0-0.1,0.1-0.1c0.1-0.1,0.2-0.1,0.6-0.1c0.3,0,0.5,0.1,0.5,0.1
		c0.1,0.1,0.1,0.1,0.1,0.3l1.8,6.7l1.5-5.5l-0.3-1.2c0-0.1,0-0.1,0-0.2c0-0.1,0-0.1,0.1-0.1c0.1-0.1,0.2-0.1,0.6-0.1
		c0.3,0,0.5,0.1,0.5,0.1c0.1,0.1,0.1,0.1,0.1,0.3l1.7,6.7l1.8-6.7c0-0.2,0.1-0.2,0.1-0.3c0.1-0.1,0.2-0.1,0.5-0.1
		c0.3,0,0.5,0.1,0.6,0.1c0.1,0.1,0.1,0.1,0,0.3L41.8,61.5z"/>
	<path class="st0" d="M49.3,59c-0.1,0.1-0.2,0.1-0.5,0.1h-3.4c0.1,1,0.7,1.6,1.6,1.6c0.6,0,0.8-0.1,1-0.2c0.2-0.1,0.4-0.2,0.5-0.2
		c0.2,0,0.3,0.1,0.4,0.3c0.1,0.1,0.1,0.3,0.1,0.4c0,0.1-0.1,0.2-0.4,0.4c-0.4,0.2-0.9,0.4-1.7,0.4c-1.7,0-2.7-1.2-2.7-3
		c0-1.8,1-3,2.6-3c1.6,0,2.5,1.1,2.5,3C49.4,58.9,49.4,58.9,49.3,59z M46.9,56.6c-0.8,0-1.3,0.6-1.4,1.5h2.8
		C48.2,57.3,47.7,56.6,46.9,56.6z"/>
	<path class="st0" d="M55.9,61.6c-0.1,0.1-0.2,0.1-0.4,0.1c-0.3,0-0.4-0.1-0.5-0.1c-0.1-0.1-0.1-0.1-0.1-0.3V61
		c-0.4,0.4-0.9,0.8-1.8,0.8c-1.5,0-2.5-1.2-2.5-3c0-1.8,1-3,2.5-3c0.9,0,1.3,0.4,1.7,0.8v-3.3c0-0.2,0-0.3,0.1-0.3
		c0.1-0.1,0.2-0.1,0.4-0.1c0.2,0,0.3-0.1,0.3-0.1c0.1,0,0.2,0,0.2,0C56,52.8,56,52.9,56,53v8.3C56,61.5,56,61.5,55.9,61.6z
		 M53.4,56.7c-1.1,0-1.6,0.9-1.6,2c0,1.2,0.5,2,1.6,2c1,0,1.5-0.9,1.5-2.1C54.9,57.7,54.4,56.7,53.4,56.7z"/>
	<path class="st0" d="M62.8,61.6c-0.1,0.1-0.2,0.1-0.4,0.1c-0.3,0-0.4-0.1-0.5-0.1c-0.1-0.1-0.1-0.1-0.1-0.3V61
		c-0.4,0.4-0.9,0.8-1.8,0.8c-1.5,0-2.5-1.2-2.5-3c0-1.8,1-3,2.5-3c0.9,0,1.3,0.4,1.7,0.8v-3.3c0-0.2,0-0.3,0.1-0.3
		c0.1-0.1,0.2-0.1,0.4-0.1c0.2,0,0.3-0.1,0.3-0.1c0.1,0,0.2,0,0.2,0c0.1,0.1,0.1,0.1,0.1,0.3v8.3C62.8,61.5,62.8,61.5,62.8,61.6z
		 M60.2,56.7c-1.1,0-1.6,0.9-1.6,2c0,1.2,0.5,2,1.6,2c1,0,1.5-0.9,1.5-2.1C61.8,57.7,61.3,56.7,60.2,56.7z"/>
	<path class="st0" d="M65.2,54.4c-0.4,0-0.7-0.3-0.7-0.7c0-0.4,0.3-0.7,0.7-0.7c0.4,0,0.7,0.3,0.7,0.7
		C65.9,54.1,65.6,54.4,65.2,54.4z M65.7,61.6c-0.1,0.1-0.2,0.1-0.5,0.1c-0.3,0-0.4,0-0.5-0.1c-0.1-0.1-0.1-0.1-0.1-0.3v-5
		c0-0.2,0-0.3,0.1-0.3c0.1-0.1,0.2-0.1,0.4-0.2c0.1,0,0.2,0,0.3,0c0.1,0,0.2,0,0.2,0c0.1,0.1,0.1,0.1,0.1,0.3v5.2
		C65.8,61.5,65.8,61.5,65.7,61.6z"/>
	<path class="st0" d="M72.5,61.6c-0.1,0.1-0.2,0.1-0.5,0.1c-0.3,0-0.4,0-0.5-0.1c-0.1-0.1-0.1-0.1-0.1-0.3V58c0-0.9-0.4-1.3-1.2-1.3
		c-0.8,0-1.5,0.7-1.5,1.5v3.1c0,0.2,0,0.2-0.1,0.3c-0.1,0.1-0.2,0.1-0.5,0.1c-0.3,0-0.4,0-0.5-0.1c-0.1-0.1-0.1-0.1-0.1-0.3v-5
		c0-0.2,0-0.3,0.1-0.3c0.1-0.1,0.2-0.1,0.4-0.2c0.1,0,0.2,0,0.3,0c0.1,0,0.2,0,0.2,0c0.1,0.1,0.1,0.1,0.1,0.3v0.5
		c0.3-0.5,1-0.8,1.8-0.8c1.4,0,2.1,0.9,2.1,2.2v3.4C72.6,61.5,72.6,61.5,72.5,61.6z"/>
	<path class="st0" d="M79.4,56.1c-0.1,0.1-0.3,0.1-0.4,0.2c-0.1,0.1-0.3,0.2-0.4,0.3c0.2,0.3,0.3,0.7,0.3,1.2c0,1.1-0.9,1.9-2.3,1.9
		c-0.2,0-0.5,0-0.7-0.1c-0.2,0.1-0.3,0.2-0.3,0.4c0,0.3,0.2,0.4,1,0.5l0.6,0.1c1.5,0.2,2.2,0.7,2.2,1.8c0,1.2-1.2,1.9-2.8,1.9
		c-1.7,0-2.6-0.7-2.6-1.7c0-0.8,0.5-1.2,1.1-1.5c-0.4-0.2-0.5-0.5-0.5-0.8c0-0.3,0.2-0.7,0.6-0.9c-0.5-0.3-0.9-0.8-0.9-1.6
		c0-1.1,0.8-1.9,2.4-1.9c0.6,0,1,0.1,1.4,0.3c0.3-0.4,0.6-0.6,0.8-0.7c0.1-0.1,0.2-0.1,0.3-0.1c0.1,0,0.2,0,0.3,0.2
		c0.1,0.2,0.1,0.3,0.1,0.4C79.5,56,79.4,56.1,79.4,56.1z M77.2,61.7L76,61.5c-0.1,0-0.2,0-0.3-0.1c-0.4,0.2-0.7,0.5-0.7,1
		c0,0.7,0.7,1,1.6,1c0.9,0,1.5-0.3,1.5-0.9C78.2,62,77.8,61.8,77.2,61.7z M76.5,56.6c-0.8,0-1.3,0.4-1.3,1.1c0,0.7,0.5,1.1,1.3,1.1
		c0.8,0,1.3-0.4,1.3-1.1C77.8,57,77.3,56.6,76.5,56.6z"/>
	<path class="st0" d="M82.2,61.8c-1.1,0-1.7-0.3-2-0.4c-0.3-0.1-0.3-0.2-0.3-0.3c0-0.1,0.1-0.3,0.2-0.4c0.1-0.2,0.2-0.2,0.3-0.2
		c0.1,0,0.4,0.1,0.5,0.2c0.2,0.1,0.8,0.3,1.3,0.3c0.6,0,1.2-0.2,1.2-0.8c0-0.5-0.3-0.7-1.1-0.8l-0.4-0.1C80.9,59,80,58.5,80,57.5
		c0-1.1,0.9-1.7,2.2-1.7c0.6,0,1,0.1,1.6,0.3c0.3,0.1,0.4,0.2,0.4,0.3c0,0.1,0,0.2-0.1,0.4C84,56.8,83.9,57,83.7,57
		c-0.2,0-0.3-0.1-0.5-0.2c-0.3-0.1-0.7-0.2-1.1-0.2c-0.6,0-1,0.3-1,0.7c0,0.4,0.4,0.6,1.1,0.8l0.6,0.1c1,0.2,1.8,0.5,1.8,1.7
		C84.5,61.1,83.5,61.8,82.2,61.8z"/>
</g>
</svg>
