<svg id="Layer_1" data-name="Layer 1" xmlns="http://www.w3.org/2000/svg" width="120" height="120" viewBox="0 0 120 120"><defs><style>.cls-1{fill:#fff;}</style></defs><title>Premiere</title><g id="Product_Name" data-name="Product Name"><path class="cls-1" d="M102.53,65.56a.67.67,0,1,0,1.33,0v-5.1c0-4.45,2.63-6.65,5.56-6.92a.72.72,0,0,0,.71-.73h0a.71.71,0,0,0-.69-.73h0a6.59,6.59,0,0,0-5.56,4.15V52.86a.67.67,0,1,0-1.33,0ZM97.92,64.2a.65.65,0,0,0,.22-.46.64.64,0,0,0-.65-.62.59.59,0,0,0-.43.19,6.12,6.12,0,0,1-4.48,1.9,5.49,5.49,0,0,1-5.43-5.45H98a.68.68,0,0,0,.65-.62c0-4-2.47-7.16-6.35-7.16s-6.57,3.2-6.57,7.22v0a6.88,6.88,0,0,0,6.53,7.21h.25a7,7,0,0,0,5.4-2.25M87.14,58.58c.24-3.07,2.36-5.37,5.1-5.37,3.17,0,4.77,2.58,5,5.37Zm-7,7a.66.66,0,0,0,.64.68h0a.63.63,0,0,0,.65-.68V52.86a.67.67,0,1,0-1.33,0h0ZM80,48a.8.8,0,0,0,.79.81h0a.82.82,0,0,0,.84-.8h0v-.46a.82.82,0,0,0-.83-.81h0a.8.8,0,0,0-.81.79s0,0,0,0ZM54.13,65.56a.66.66,0,0,0,.64.68h0a.63.63,0,0,0,.65-.68v-7.4a4.73,4.73,0,0,1,4.42-5c2.42,0,4,1.76,4,4.64v7.73a.66.66,0,0,0,.64.68h0a.63.63,0,0,0,.65-.68V58.07c0-3.09,2-4.88,4.37-4.88,2.55,0,4.1,1.74,4.1,4.72v7.65a.66.66,0,0,0,.64.68h0a.63.63,0,0,0,.65-.68V57.75C75,54.28,73,52,69.69,52a5.5,5.5,0,0,0-5,3A5,5,0,0,0,60,52a5.1,5.1,0,0,0-4.61,2.79v-1.9a.67.67,0,1,0-1.33,0h0Zm-4.62-1.35a.65.65,0,0,0,.22-.46.64.64,0,0,0-.65-.62.59.59,0,0,0-.43.19,6.12,6.12,0,0,1-4.48,1.9,5.49,5.49,0,0,1-5.43-5.45H49.6a.68.68,0,0,0,.65-.62c0-4-2.47-7.16-6.35-7.16s-6.59,3.18-6.59,7.2v0a6.88,6.88,0,0,0,6.53,7.21h.25a7,7,0,0,0,5.4-2.25M38.74,58.56c.24-3.07,2.36-5.37,5.1-5.37,3.17,0,4.78,2.58,5,5.37Zm-10.63,7a.67.67,0,0,0,1.33,0v-5.1c0-4.45,2.63-6.65,5.56-6.92a.72.72,0,0,0,.7-.73.71.71,0,0,0-.69-.73h0a6.59,6.59,0,0,0-5.56,4.15V52.86a.67.67,0,1,0-1.33,0h0ZM11.7,57.75V48.44h5.37c3.42,0,5.75,1.57,5.75,4.59v0c0,2.82-2.39,4.67-5.91,4.67Zm-1.39,7.78a.71.71,0,1,0,1.41,0V59h5.13c4,0,7.41-2.06,7.41-6v0c0-3.66-2.88-5.81-7-5.81H11a.72.72,0,0,0-.71.71Z"/></g></svg>