<svg id="Layer_1" data-name="Layer 1" xmlns="http://www.w3.org/2000/svg" xmlns:xlink="http://www.w3.org/1999/xlink" width="120" height="120" viewBox="0 0 120 120"><defs><style>.cls-1{fill:none;}.cls-2{clip-path:url(#clip-path);}.cls-3{fill:#003c6a;}.cls-4{fill:#fff;}</style><clipPath id="clip-path"><rect class="cls-1" x="10.81" y="42.17" width="99.55" height="31.33"/></clipPath></defs><title>Splash World</title><g class="cls-2"><path class="cls-3" d="M83.81,55.07c-.82-.41-.4-.82-.82-1.15s-.82.11-.53.72S84,55.15,83.81,55.07Zm-1-1.12c.22,0,.35.3.35.42a1.27,1.27,0,0,0,.16.39c-.34-.3-.82-.28-.82-.47a.32.32,0,0,1,.31-.33h0Z"/><path class="cls-3" d="M94.88,70.46c-.49-.12-.41.69-.12,1.17.17.28.82.67,1,.14a1.07,1.07,0,0,0-.78-1.29Zm.82,1.24c-.16.46-.25-.15-.35-.49s-.82-.77-.4-.66a.94.94,0,0,1,.76,1.09l0,.07Z"/><path class="cls-3" d="M86.79,61.66c.55-.2-3.74-.48-4.67,1.07s.75,2.47,1.88,1.84C85.43,63.77,84,62.69,86.79,61.66Zm-3.12,1.18c-.53.67-.61.82-1.05.82s-.68-.92.39-1.45a3.78,3.78,0,0,1,1.86-.3C84.89,62.08,84.19,62.19,83.67,62.85Z"/><path class="cls-3" d="M92.15,50.56c.18-.07.07-.21.27-.27s.35.07.53,0c.42-.24.3-.82-.35-.82a1,1,0,0,0-.93.86.37.37,0,0,0,.47.24Zm.16-1a.73.73,0,0,1,.69,0c.06,0,.23.16,0,.29s-.56-.07-.82.11a2.66,2.66,0,0,0-.38.24A1.78,1.78,0,0,1,92.31,49.59Z"/><path class="cls-3" d="M84.23,57.42c1.15,0,.34-1,2.51-.82.42,0-2.51-1.26-3.46-.67S83.34,57.46,84.23,57.42ZM84,55.89a3.55,3.55,0,0,1,1.35.34c0,.08-.51,0-1,.16s-.58.29-.9.17-.28-.67.57-.67Z"/><path class="cls-3" d="M103.82,45.88a1.86,1.86,0,0,0,1.52-2.6c-.73-1.48-2.34-1.52-3.52.14C101,44.62,102.55,45.88,103.82,45.88Zm-.64-3.14a1.23,1.23,0,0,1,1.34.12c.51.42.53.77.52.82s-.47-.11-.65-.39-.53-.58-.82-.53S103,42.85,103.18,42.74Z"/><path class="cls-3" d="M94.57,50.46c.33-1.69,1-.91,1.27-1.79.24-.68-.32-1.6-1-1S94.52,50.78,94.57,50.46Zm0-2.21c.2-.65.67-.57.69-.31s0,.31-.35.66-.3.76-.37.74a2.53,2.53,0,0,1,0-1.09Z"/><path class="cls-3" d="M108.36,52.33c.35-.12.94-.77.44-1.23s-1.27-.23-1.65.59C106.88,52.28,107.76,52.52,108.36,52.33Zm-1.06-.63c.33-.72,1-.92,1.44-.52s-.23.27-.63.26c-.58,0-1,.78-.81.26Z"/><path class="cls-3" d="M104.72,51.75c-1.12-.07-3.29,1.44-4,2.54-.38.62.3.52.44.47,2.3-.77,1.52.07,3-.58C105.43,53.64,106.31,51.84,104.72,51.75Zm.36.68c-.26.15-.35.1-.82,0a6.17,6.17,0,0,0-.94,0,3.34,3.34,0,0,1,1.19-.5c.75-.16.83.35.55.5Z"/><path class="cls-3" d="M87.13,64.39c-1,.1-1.86.63-1.92,1.12s1,.2,1.4,0C87.29,65.05,87.86,64.32,87.13,64.39Zm-1.71,1.06c0-.44.82-.9,1.65-1,.64-.06-.45.12-.92.56C85.85,65.34,85.37,65.88,85.42,65.45Z"/><path class="cls-3" d="M106,62.67c-.26.36.22.75.61.75a.57.57,0,0,0,.46-.82C106.83,62.18,106.33,62.17,106,62.67Zm.61,0c-.33-.15-.75.32-.53,0a.53.53,0,0,1,.94,0c.2.43-.18.13-.41,0Z"/><path class="cls-3" d="M103.42,64.45a.53.53,0,0,0-.65.77c.21.43.53.3.73.77.09.2-.15.66.13,1.09.67,1,2.12,1.25,2.11-.07S103.83,64.53,103.42,64.45Zm2,1.88c.42.74,0,1.17-.29,1s-.23-.31-.3-.91-.43-.95-.36-1,.78.57,1,.92Z"/><path class="cls-3" d="M110.2,60.34c-.54-.82-2.83-.52-2.53-.43,1.55.46.82,1.09,1.57,1.47S110.73,61.16,110.2,60.34Zm-.24.53c-.24,0-.28-.07-.58-.42s-.68-.38-.67-.44a2,2,0,0,1,1,.1c.58.24.48.77.25.78Z"/><path class="cls-3" d="M101.77,69.57c-1.42-1.19-2.12-3.77-2.24-5.18S101,63.24,101,63.24c.64,0,.62.72,1.48.44s-.52-1.58-.4-1.95,1.12.19,2.09,1,1.37-.56,1-1.3-2-.86-2.63-1.65-.49-1.92.77-1.65,4,1.51,5.13-.56-.66-3.68-2.24-2.13a5.54,5.54,0,0,1-4.94,1.23,5.76,5.76,0,0,1-1.06-.34c-.44-.21-.39-.53,0-.92s-.13-.69-1-.63S99,53.53,99,53.53a14.29,14.29,0,0,1,2.11-2.62c1.42-1.57,1-2.62.63-3.37-.82-1.59-2.9-.21-3,1s-1.18,4.7-2.81,5.69-2,.16-2-1.58-1.23-1.7-1.65-1.05.54,1.85.54,3.29-1.65,2.9-2.86-.16-3.24-4-4.35-2.62.62,3.34,2.47,3.34a2.65,2.65,0,0,1,2.78,2.2c.23,1.23-2,1.05-2.78,0s-2.41-.37-2,1.42,4.33-.16,4.85,1.3-1,1.88-2.24,2.53-.35,1.95.69,1.18,1.78-1.11,2.18-.4-.43.71-1.32,2.53S86.56,68,86.45,70.12s2.61,2.78,3.29,1.55S89.65,69,91,66.41s2.75-1.36,2.75-1.36c1.14.56-1.06,1.3-.95,3.83,0,1.18,2,.86,2,0s-1.32-3.09,2.06-4,2.47,4,2.41,6.3A2.2,2.2,0,0,0,102.88,73C103.84,72,103.23,70.77,101.77,69.57Zm2.47-8.47c.19.07.82.27.89.71s0,.6-.37.6a.38.38,0,0,1-.42-.33v0c0-.12,0-.7-.16-.82S103.83,60.94,104.24,61.1Zm1.19-4.63c.9-.68,1.27-1.37,2.17-1.37a1,1,0,0,1,1,1.12c0,.44-.4.59-1.23.36-1.07-.29-3.55.82-4,.95a8.1,8.1,0,0,0,2-1.06Zm-4.11,6c.39,0,1.18.18,1.26.69s-.3.28-.39.2-.14-.34-.37-.49-.76-.4-.51-.4Zm-12-8.09a2.32,2.32,0,0,0-1.6-1.18c-1.46-.16-2.47-1.33-1-1.46.73-.07,1.65.56,2.32,1.83s.87,1.7.91,1.79a9.19,9.19,0,0,0-.65-1Zm-2.24,4.21c-.22,0-.71-.1-.71-.51s.51-.69.82-.69.39.16.6.47.42.32.42.56-.91.14-1.14.16Zm2.3,4.86a.68.68,0,0,1-.61.69c-.38,0-.58-.15-.58-.53s1-.94,1.34-1c.57-.17-.16.58-.16.87Zm.38,6.81a1.41,1.41,0,0,1-1.14,1.56,1.09,1.09,0,0,1-1.24-1.09c0-.55.82-1,1.38-1.18s.75-.76.91-.67S89.75,69.08,89.75,70.29ZM93.63,67a2.56,2.56,0,0,0,.29,1.65.49.49,0,0,1-.44.82c-.5,0-.63-.39-.61-.82a5.13,5.13,0,0,1,.63-1.88c.3-.43.82-1.31.72-1.52s-.82-.31-.63-.53,1,.13,1,.44S93.67,66.34,93.63,67Zm2.24-12.14c-.31.22-.53.53-1.1.53s-1.13-.82-1.18-1.39,0-.91-.48-1.31-.76-1.21-.16-1.21c.35,0,.67.53.67.93A11,11,0,0,0,93.7,54c.07.38.48,1.74,2.11.76C95.82,54.74,96.18,54.64,95.87,54.86Zm2.07-2.58a10.84,10.84,0,0,0,1-2.76c.06-.82.49-2.32,1.49-2.32a1.17,1.17,0,0,1,1.23,1.29c0,.53-.82.92-1.37,1s-1.31.91-1.53,1.33A13,13,0,0,1,97.93,52.28Zm1.37,2.85c.18-.08.58-.19.72,0s-.08.2-.14.18-.13-.12-.27-.14S99.17,55.19,99.31,55.14ZM101.63,73c-1.31,0-.49-2.32-.55-2.89s.07-.43.57,0c.24.2,1.3,1,1.3,1.79S102,73,101.62,73Z"/></g><path class="cls-4" d="M13.67,63.52A.64.64,0,0,1,14,62.36a.63.63,0,0,1,.4.12,3.39,3.39,0,0,0,2.19.82c.82,0,1.38-.4,1.38-1h0c0-.56-.31-.82-1.77-1.19-1.65-.4-2.6-.9-2.6-2.34h0a2.39,2.39,0,0,1,2.67-2.27,4.3,4.3,0,0,1,2.47.72.62.62,0,0,1,.3.55.64.64,0,0,1-.65.63h0a.67.67,0,0,1-.35-.1,3.29,3.29,0,0,0-1.8-.59c-.82,0-1.28.41-1.28.93h0c0,.6.35.87,1.87,1.23s2.47,1,2.47,2.29h0c0,1.46-1.15,2.34-2.79,2.34A4.87,4.87,0,0,1,13.67,63.52Z"/><path class="cls-4" d="M20.32,59.1a.67.67,0,0,1,.65-.68h0a.67.67,0,0,1,.68.67s0,0,0,0v.41a2.36,2.36,0,0,1,2-1.1,2.82,2.82,0,0,1,2.75,2.89q0,.08,0,.17h0a2.82,2.82,0,0,1-2.57,3.05h-.17a2.41,2.41,0,0,1-2-1v2.09a.67.67,0,0,1-1.35,0ZM25,61.45h0a1.74,1.74,0,0,0-1.6-1.88h0a1.78,1.78,0,0,0-1.72,1.83v.05h0a1.78,1.78,0,0,0,1.67,1.88h.05A1.73,1.73,0,0,0,25,61.51v-.06Z"/><path class="cls-4" d="M27.32,56.85a.67.67,0,0,1,.67-.67h0a.67.67,0,0,1,.68.67h0v6.93a.67.67,0,0,1-1.35,0Z"/><path class="cls-4" d="M29.5,62.69h0c0-1.28,1-1.9,2.47-1.9a4.94,4.94,0,0,1,1.59.25v-.15c0-.82-.51-1.28-1.46-1.28a3.5,3.5,0,0,0-1.31.24.77.77,0,0,1-.21,0,.56.56,0,0,1-.57-.55h0a.59.59,0,0,1,.37-.53,5.05,5.05,0,0,1,1.9-.35,2.64,2.64,0,0,1,2,.66,2.47,2.47,0,0,1,.63,1.82v2.91a.64.64,0,0,1-.63.65h0a.61.61,0,0,1-.66-.56h0v-.25a2.39,2.39,0,0,1-1.93.82,1.88,1.88,0,0,1-2.11-1.63S29.51,62.73,29.5,62.69Zm4-.43v-.4a3.74,3.74,0,0,0-1.34-.24c-.87,0-1.38.37-1.38,1h0c0,.57.5.9,1.15.9A1.36,1.36,0,0,0,33.54,62.26Z"/><path class="cls-4" d="M35.67,63.79a.52.52,0,0,1-.26-.47A.54.54,0,0,1,36,62.8a.59.59,0,0,1,.29.08,3.11,3.11,0,0,0,1.69.57c.58,0,.91-.25.91-.63h0c0-.46-.63-.62-1.32-.82-.87-.25-1.84-.6-1.84-1.73h0a1.88,1.88,0,0,1,2-1.81h.15a4.06,4.06,0,0,1,1.85.48.58.58,0,0,1,.32.51.54.54,0,0,1-.53.55h0a.53.53,0,0,1-.27-.07,3.22,3.22,0,0,0-1.38-.4c-.53,0-.82.25-.82.58h0c0,.44.63.62,1.33.82s1.83.66,1.83,1.72h0c0,1.24-1,1.85-2.19,1.85A4,4,0,0,1,35.67,63.79Z"/><path class="cls-4" d="M40.95,56.85a.67.67,0,0,1,.67-.67.67.67,0,0,1,.68.67h0V59.4a2.14,2.14,0,0,1,1.88-1,2,2,0,0,1,2.1,2.25v3.15a.66.66,0,0,1-.65.67h0a.67.67,0,0,1-.68-.65V61c0-.91-.46-1.44-1.26-1.44a1.31,1.31,0,0,0-1.33,1.46v2.72a.67.67,0,0,1-1.35,0Z"/><path class="cls-4" d="M47,57.45a.72.72,0,0,1-.06-.27.68.68,0,0,1,.7-.67h0a.7.7,0,0,1,.64.53l1.8,5.37L51.89,57a.72.72,0,0,1,.69-.55h.1a.72.72,0,0,1,.69.55l1.76,5.35L56.94,57a.7.7,0,0,1,.67-.49.67.67,0,0,1,.68.66.82.82,0,0,1-.07.28L55.91,64a.77.77,0,0,1-.72.57h-.13a.74.74,0,0,1-.71-.57l-1.74-5.1L50.87,64a.75.75,0,0,1-.72.57H50a.77.77,0,0,1-.72-.57Z"/><path class="cls-4" d="M58.17,61.47h0a3.14,3.14,0,0,1,6.29,0h0a3.09,3.09,0,0,1-3.1,3.07h-.06a3.05,3.05,0,0,1-3.13-3S58.17,61.5,58.17,61.47Zm4.94,0h0a1.83,1.83,0,0,0-1.69-2h-.14a1.77,1.77,0,0,0-1.78,1.76s0,.08,0,.12h0a1.82,1.82,0,0,0,1.75,1.88h.05a1.77,1.77,0,0,0,1.8-1.74S63.11,61.49,63.1,61.47Z"/><path class="cls-4" d="M65.25,59.1a.67.67,0,0,1,.65-.68h0a.67.67,0,0,1,.68.67s0,0,0,0v.6a1.88,1.88,0,0,1,1.49-1.29.63.63,0,0,1,.67.67.63.63,0,0,1-.53.65A2,2,0,0,0,66.58,62v1.74a.67.67,0,0,1-.68.67h0a.67.67,0,0,1-.67-.67Z"/><path class="cls-4" d="M69.38,56.85a.67.67,0,0,1,.67-.67.67.67,0,0,1,.68.67h0v6.93a.67.67,0,0,1-1.35,0Z"/><path class="cls-4" d="M77.75,63.78a.67.67,0,0,1-1.35,0V63.4a2.36,2.36,0,0,1-2,1.1,2.83,2.83,0,0,1-2.75-2.91q0-.08,0-.15h0a2.81,2.81,0,0,1,2.56-3.05h.18a2.41,2.41,0,0,1,2,1V56.85a.67.67,0,0,1,1.35,0ZM73,61.43h0a1.75,1.75,0,0,0,1.62,1.88h.08a1.78,1.78,0,0,0,1.71-1.84v0h0a1.77,1.77,0,0,0-1.61-1.91h-.07A1.73,1.73,0,0,0,73,61.43Z"/></svg>