<svg id="Layer_1" data-name="Layer 1" xmlns="http://www.w3.org/2000/svg" width="120" height="120" viewBox="0 0 120 120"><defs><style>.cls-1{fill:#fff;}.cls-2{fill:#ffd400;}</style></defs><title>Suneo Club</title><path class="cls-1" d="M14.92,65.08c2.36,0,4-1.24,4-3.35v0c0-1.86-1.24-2.71-3.6-3.29-2.17-.51-2.69-.9-2.69-1.76v0c0-.74.67-1.33,1.86-1.33a4.69,4.69,0,0,1,2.59.85,1,1,0,0,0,.51.14.92.92,0,0,0,.93-.9v0a.89.89,0,0,0-.43-.79,6.19,6.19,0,0,0-3.57-1c-2.23,0-3.84,1.33-3.84,3.26v0c0,2.07,1.35,2.78,3.75,3.35,2.09.48,2.54.92,2.54,1.71v0c0,.84-.77,1.41-2,1.41a4.89,4.89,0,0,1-3.17-1.14.95.95,0,0,0-1.14,1.5h0a7,7,0,0,0,4.24,1.4"/><path class="cls-1" d="M28.53,57.32a1,1,0,0,0-1-1,1,1,0,0,0-1,1s0,0,0,0V61.2a1.87,1.87,0,0,1-1.91,2.09c-1.13,0-1.82-.74-1.82-2.05V57.32a1,1,0,1,0-1.94,0h0v4.49c0,2,1.11,3.26,3,3.26a3.06,3.06,0,0,0,2.65-1.49V64a1,1,0,0,0,2,0Z"/><path class="cls-1" d="M30.46,64a1,1,0,0,0,1.94,0v-3.9A1.89,1.89,0,0,1,34.31,58c1.13,0,1.82.76,1.82,2.07V64a1,1,0,0,0,1,1h0a1,1,0,0,0,1-.93s0,0,0,0V59.51a2.91,2.91,0,0,0-3-3.24,3.09,3.09,0,0,0-2.65,1.48v-.41a1,1,0,0,0-1-1h0a1,1,0,0,0-1,1s0,0,0,0Z"/><path class="cls-1" d="M42,60.08a2.29,2.29,0,0,1,2.2-2.23,2.2,2.2,0,0,1,2.15,2.23ZM47.44,64a.85.85,0,0,0,.26-.62.77.77,0,0,0-.75-.79h0a.72.72,0,0,0-.5.18,3.06,3.06,0,0,1-2,.74,2.37,2.37,0,0,1-2.48-2.15h5.32a.91.91,0,0,0,.92-.9s0,0,0,0a4,4,0,0,0-3.85-4.16h-.15A4.21,4.21,0,0,0,40,60.66v0a4.23,4.23,0,0,0,4.06,4.4h.27A4.36,4.36,0,0,0,47.42,64"/><path class="cls-1" d="M54.25,65.11a4.44,4.44,0,0,0,4.55-4.32s0-.06,0-.09v0a4.53,4.53,0,0,0-9.05,0v0a4.39,4.39,0,0,0,4.39,4.38h.11m0-1.7a2.61,2.61,0,0,1-2.59-2.63s0-.05,0-.08v0A2.54,2.54,0,0,1,54.08,58h.17a2.62,2.62,0,0,1,2.61,2.64s0,.06,0,.09v0a2.54,2.54,0,0,1-2.4,2.68h-.17"/><path class="cls-2" d="M66.06,65.11a5.76,5.76,0,0,0,4.08-1.51A.92.92,0,0,0,69.53,62a.9.9,0,0,0-.62.22,4,4,0,0,1-2.82,1.08,3.79,3.79,0,0,1-3.72-3.86s0-.08,0-.12v0a3.79,3.79,0,0,1,3.6-4h.11a4.09,4.09,0,0,1,2.69,1A1,1,0,1,0,70,54.76a5.91,5.91,0,0,0-3.86-1.24,5.69,5.69,0,0,0-5.81,5.58q0,.12,0,.23h0a5.66,5.66,0,0,0,5.53,5.78H66"/><path class="cls-2" d="M72.41,64a1,1,0,0,0,1.94,0v-10a1,1,0,0,0-1-1h0a1,1,0,0,0-1,1s0,0,0,0Z"/><path class="cls-2" d="M83.95,57.32a1,1,0,0,0-1-1,1,1,0,0,0-1,1s0,0,0,0V61.2a1.87,1.87,0,0,1-1.91,2.09c-1.13,0-1.82-.74-1.82-2.05V57.32a1,1,0,1,0-1.94,0h0v4.49c0,2,1.11,3.26,3,3.26A3.06,3.06,0,0,0,82,63.58V64a1,1,0,0,0,2,0Z"/><path class="cls-2" d="M85.89,64a1,1,0,0,0,1.94,0V63.6a3.47,3.47,0,0,0,2.9,1.49,4.06,4.06,0,0,0,3.94-4.4v0a4.06,4.06,0,0,0-3.94-4.4,3.4,3.4,0,0,0-2.9,1.59V54.08a1,1,0,0,0-1-1h0a1,1,0,0,0-1,.93s0,0,0,0Zm4.38-.62a2.56,2.56,0,0,1-2.48-2.63v-.11A2.56,2.56,0,0,1,90.19,58h.08a2.51,2.51,0,0,1,2.43,2.59s0,.08,0,.12v0a2.48,2.48,0,0,1-2.43,2.71"/><path class="cls-2" d="M98.06,54.85c-.4.4.39,2.21.39,2.21l1.86-1.83s-1.82-.79-2.22-.39"/><path class="cls-2" d="M107.69,64.11c-.4.4-2.22-.39-2.22-.39l1.86-1.83s.79,1.81.39,2.21"/><path class="cls-2" d="M96.19,59.61c0,.56,1.86,1.29,1.86,1.29V58.31s-1.86.73-1.86,1.29"/><path class="cls-2" d="M109.56,59.34c0,.56-1.86,1.29-1.86,1.29V58.06s1.86.73,1.86,1.29"/><path class="cls-2" d="M98.24,64.29c.4.4,2.22-.39,2.22-.39L98.6,62.08s-.75,1.81-.36,2.22"/><path class="cls-2" d="M107.51,54.67c.4.4-.39,2.21-.39,2.21l-1.86-1.83s1.82-.79,2.22-.39"/><path class="cls-2" d="M103,66.15c.56,0,1.29-1.86,1.29-1.86h-2.59s.73,1.86,1.29,1.86"/><path class="cls-2" d="M102.74,52.81c.56,0,1.29,1.86,1.29,1.86h-2.59s.73-1.86,1.29-1.86"/><path class="cls-2" d="M105.76,62.36a4.08,4.08,0,1,0-5.77,0,4.08,4.08,0,0,0,5.77,0l0,0"/></svg>