<?xml version="1.0" encoding="utf-8"?>
<!-- Generator: Adobe Illustrator 20.1.0, SVG Export Plug-In . SVG Version: 6.00 Build 0)  -->
<svg version="1.1" id="Layer_1" xmlns="http://www.w3.org/2000/svg" xmlns:xlink="http://www.w3.org/1999/xlink" x="0px" y="0px"
	 width="120px" height="120px" viewBox="0 0 120 120" style="enable-background:new 0 0 120 120;" xml:space="preserve">
<style type="text/css">
	.st0{enable-background:new    ;}
	.st1{fill:#9A9999;}
</style>
<g class="st0">
	<path class="st1" d="M30.7,69.2c-1.5,0-2.8-0.3-4-0.8s-2.2-1.2-3.1-2.2s-1.5-2.1-2-3.6s-0.7-3-0.7-4.8s0.2-3.4,0.7-4.8
		c0.5-1.4,1.2-2.6,2.1-3.6c0.9-1,1.9-1.7,3.1-2.2s2.5-0.8,3.9-0.8c1.5,0,2.6,0.1,3.3,0.3c0.8,0.2,1.5,0.4,2.1,0.7
		c0.4,0.2,0.7,0.4,0.8,0.5c0.1,0.1,0.2,0.2,0.2,0.3c0,0.1,0,0.3-0.1,0.4c0,0.2-0.1,0.4-0.3,0.7c-0.2,0.4-0.4,0.6-0.5,0.8
		s-0.3,0.2-0.4,0.2c-0.1,0-0.3-0.1-0.5-0.2c-0.4-0.2-0.8-0.4-1.4-0.6c-0.3-0.1-0.7-0.2-1.2-0.3c-0.5-0.1-1.2-0.1-2-0.1
		c-1.1,0-2,0.2-2.9,0.6s-1.5,1-2.1,1.7c-0.6,0.7-1,1.7-1.3,2.7c-0.3,1.1-0.4,2.3-0.4,3.7c0,1.4,0.2,2.6,0.5,3.7s0.8,2,1.4,2.7
		c0.6,0.7,1.3,1.3,2.2,1.7s1.7,0.6,2.7,0.6c1,0,1.8-0.1,2.4-0.2c0.6-0.1,1.1-0.3,1.6-0.4v-5.9h-4.2c-0.3,0-0.4,0-0.5-0.1
		c-0.1-0.1-0.1-0.3-0.1-0.5c0-0.3,0-0.6,0.1-0.9c0-0.3,0.1-0.5,0.2-0.7c0.1-0.1,0.2-0.2,0.3-0.3c0.1,0,0.3-0.1,0.6-0.1h5.1
		c0.6,0,1,0.1,1.2,0.2c0.2,0.2,0.2,0.4,0.2,0.7v8.4c0,0.3-0.1,0.6-0.2,0.7c-0.1,0.2-0.4,0.4-0.9,0.6c-0.4,0.2-0.9,0.4-1.4,0.5
		c-0.5,0.1-1.2,0.3-2,0.4S31.5,69.2,30.7,69.2z"/>
	<path class="st1" d="M50.4,69.2c-1.4,0-2.7-0.3-3.8-0.8c-1.2-0.5-2.2-1.2-3-2.2s-1.5-2.1-1.9-3.6s-0.7-3-0.7-4.8s0.2-3.4,0.7-4.8
		c0.5-1.4,1.1-2.6,1.9-3.6s1.8-1.7,3-2.2c1.2-0.5,2.4-0.8,3.8-0.8c1.4,0,2.6,0.3,3.8,0.8c1.2,0.5,2.1,1.2,3,2.2s1.5,2.2,1.9,3.6
		c0.5,1.4,0.7,3,0.7,4.8s-0.2,3.4-0.7,4.8s-1.1,2.6-1.9,3.6s-1.8,1.7-3,2.2C53.1,69,51.8,69.2,50.4,69.2z M50.4,66.6
		c1,0,1.9-0.2,2.6-0.6c0.8-0.4,1.4-1,2-1.7c0.5-0.7,0.9-1.7,1.2-2.7c0.3-1.1,0.4-2.3,0.4-3.7c0-1.4-0.1-2.6-0.4-3.7
		c-0.3-1.1-0.7-2-1.2-2.8s-1.2-1.3-2-1.7c-0.8-0.4-1.6-0.6-2.6-0.6c-1,0-1.9,0.2-2.7,0.6c-0.8,0.4-1.4,1-2,1.7
		c-0.5,0.8-0.9,1.7-1.2,2.8s-0.4,2.3-0.4,3.7c0,1.4,0.1,2.6,0.4,3.7s0.7,2,1.2,2.7c0.5,0.7,1.2,1.3,2,1.7
		C48.5,66.4,49.4,66.6,50.4,66.6z"/>
	<path class="st1" d="M65.1,68.8c-0.4,0-0.7,0-0.9-0.1c-0.2-0.1-0.3-0.1-0.3-0.2c-0.1-0.1-0.2-0.4-0.2-0.7V47.8c0-0.3,0-0.5,0.1-0.6
		c0.1-0.1,0.2-0.2,0.4-0.3c0.2-0.1,0.5-0.1,0.9-0.1c0.6,0,0.9,0,1.1,0.1s0.3,0.2,0.3,0.3c0,0.1,0,0.3,0,0.5v18.4H76
		c0.2,0,0.3,0,0.4,0c0.1,0,0.1,0.1,0.2,0.1c0.1,0.1,0.1,0.3,0.1,0.5c0,0.3,0,0.6-0.1,0.9c0,0.3-0.1,0.5-0.2,0.7
		c-0.1,0.1-0.2,0.2-0.3,0.3s-0.3,0.1-0.6,0.1H65.1z"/>
</g>
<g class="st0">
	<path class="st1" d="M83.4,68.8c-0.4,0-0.7,0-0.9-0.1c-0.2-0.1-0.3-0.1-0.3-0.2c-0.1-0.1-0.2-0.4-0.2-0.7V47.9
		c0-0.3,0.1-0.6,0.2-0.7s0.6-0.2,1.2-0.2h6c1.5,0,2.8,0.2,4,0.7s2.2,1.2,3,2.1c0.8,0.9,1.5,2.1,2,3.4c0.5,1.3,0.7,2.9,0.7,4.6
		s-0.2,3.3-0.7,4.6c-0.5,1.4-1.1,2.5-2,3.4s-1.9,1.7-3.1,2.1s-2.5,0.7-4,0.7H83.4z M85,66.2h4.5c1.1,0,2-0.2,2.8-0.6
		c0.8-0.4,1.5-0.9,2-1.7s0.9-1.6,1.2-2.6c0.3-1,0.4-2.2,0.4-3.6s-0.1-2.5-0.4-3.5s-0.7-1.9-1.2-2.6c-0.6-0.7-1.3-1.2-2.1-1.6
		c-0.8-0.4-1.8-0.5-2.9-0.5H85V66.2z"/>
</g>
</svg>
