<svg id="Layer_1" data-name="Layer 1" xmlns="http://www.w3.org/2000/svg" width="120" height="120" viewBox="0 0 120 120"><defs><style>.cls-1{fill:#fff;}</style></defs><title>Holiday Village</title><path class="cls-1" d="M9.73,56.78a.76.76,0,0,1,1.53,0v2.92h4.15V56.78a.76.76,0,0,1,1.53,0v7.32a.76.76,0,0,1-1.53,0v-3H11.26v3a.76.76,0,0,1-1.53,0Z"/><path class="cls-1" d="M18.64,61.56h0a3.5,3.5,0,0,1,7,0h0A3.43,3.43,0,0,1,22.19,65h-.07a3.39,3.39,0,0,1-3.48-3.3S18.64,61.6,18.64,61.56Zm5.49,0h0a2,2,0,0,0-1.93-2.11h-.08a2,2,0,0,0-2,2s0,.08,0,.12h0a2,2,0,0,0,1.94,2.1h.06a2,2,0,0,0,2-1.94S24.13,61.61,24.13,61.56Z"/><path class="cls-1" d="M27.24,56.42a.74.74,0,0,1,.73-.75h0a.75.75,0,0,1,.76.75h0v7.7a.75.75,0,0,1-1.51,0Z"/><path class="cls-1" d="M30.69,56.48a.87.87,0,0,1,1.71,0v.07a.87.87,0,0,1-1.71,0Zm.11,2.45a.74.74,0,0,1,.72-.76h0a.75.75,0,0,1,.76.75s0,0,0,0v5.19a.75.75,0,0,1-1.51,0Z"/><path class="cls-1" d="M40.71,64.12a.75.75,0,0,1-1.51,0v-.41A2.62,2.62,0,0,1,37,64.94a3.14,3.14,0,0,1-3-3.41h0a3.13,3.13,0,0,1,3-3.41,2.68,2.68,0,0,1,2.23,1.15V56.42a.75.75,0,1,1,1.51,0h0Zm-5.27-2.61h0a2,2,0,0,0,1.8,2.09h.08a2,2,0,0,0,1.91-2h0a2,2,0,0,0-1.83-2.09h-.07a1.92,1.92,0,0,0-1.9,1.95s0,.07,0,.1Z"/><path class="cls-1" d="M42.16,62.92h0c0-1.42,1.11-2.11,2.71-2.11a5.48,5.48,0,0,1,1.79.27v-.16c0-.93-.6-1.43-1.62-1.43a3.9,3.9,0,0,0-1.45.26.83.83,0,0,1-.24,0,.6.6,0,0,1-.63-.56s0,0,0,0a.66.66,0,0,1,.41-.6,5.62,5.62,0,0,1,2.11-.38,2.94,2.94,0,0,1,2.17.73,2.72,2.72,0,0,1,.71,2v3.23a.72.72,0,0,1-.71.72h0a.68.68,0,0,1-.73-.62h0V64a2.66,2.66,0,0,1-2.14,1A2.19,2.19,0,0,1,42.16,62.92Zm4.5-.47V62a4.18,4.18,0,0,0-1.49-.26c-1,0-1.54.41-1.54,1.09h0c0,.63.56,1,1.28,1C45.9,63.85,46.66,63.28,46.66,62.45Z"/><path class="cls-1" d="M49.87,66.64a.64.64,0,0,1-.47-.6.6.6,0,0,1,.6-.6.77.77,0,0,1,.27,0,1.69,1.69,0,0,0,.52.09c.45,0,.68-.19.93-.69l0-.14-2.44-5.44a1,1,0,0,1-.09-.36.72.72,0,0,1,.71-.74h0a.75.75,0,0,1,.73.6l1.79,4.36,1.64-4.36a.77.77,0,0,1,.72-.6.71.71,0,0,1,.72.7h0a1.36,1.36,0,0,1-.06.36L53.15,65c-.61,1.3-1.21,1.79-2.23,1.79A2.65,2.65,0,0,1,49.87,66.64Z"/><path class="cls-1" d="M59.71,64.31l-3-7.17a.85.85,0,0,1-.09-.36.75.75,0,0,1,.74-.73.8.8,0,0,1,.78.55l2.51,6.27,2.57-6.33a.79.79,0,0,1,.73-.5.74.74,0,0,1,.75.73h0a.88.88,0,0,1-.07.32l-3.06,7.2a.91.91,0,0,1-.88.6h-.09A.91.91,0,0,1,59.71,64.31Z"/><path class="cls-1" d="M65.85,56.48a.87.87,0,0,1,1.71,0v.07a.87.87,0,0,1-1.71,0ZM66,58.93a.74.74,0,0,1,.72-.76h0a.75.75,0,0,1,.77.73s0,0,0,0v5.19a.75.75,0,0,1-1.51,0Z"/><path class="cls-1" d="M69.51,56.42a.74.74,0,0,1,.73-.75h0a.75.75,0,0,1,.76.75h0v7.7a.75.75,0,0,1-1.51,0Z"/><path class="cls-1" d="M73.07,56.42a.74.74,0,0,1,.73-.75h0a.75.75,0,0,1,.76.75h0v7.7a.75.75,0,0,1-1.51,0Z"/><path class="cls-1" d="M76.09,62.92h0a1.89,1.89,0,0,1,1.25-1.86,3.89,3.89,0,0,1,1.45-.25,5.48,5.48,0,0,1,1.79.27v-.16c0-.93-.6-1.43-1.62-1.43a3.9,3.9,0,0,0-1.45.26.83.83,0,0,1-.23,0,.6.6,0,0,1-.63-.56s0,0,0,0a.66.66,0,0,1,.41-.6,5.62,5.62,0,0,1,2.11-.38,2.94,2.94,0,0,1,2.17.73,2.72,2.72,0,0,1,.71,2V64.2a.72.72,0,0,1-.71.72h0a.68.68,0,0,1-.73-.62h0V64a2.66,2.66,0,0,1-2.14,1A2.18,2.18,0,0,1,76.09,62.92Zm4.5-.47V62a4.18,4.18,0,0,0-1.49-.26c-1,0-1.54.41-1.54,1.09h0c0,.63.56,1,1.28,1C79.83,63.85,80.59,63.28,80.59,62.45Z"/><path class="cls-1" d="M84.21,66.24a.6.6,0,0,1-.42-.6.63.63,0,0,1,.63-.6.6.6,0,0,1,.27.06,4,4,0,0,0,2,.52,1.83,1.83,0,0,0,2.07-2V63.1a2.75,2.75,0,0,1-2.31,1.19,3,3,0,0,1-3-2.9q0-.09,0-.17h0a3,3,0,0,1,2.89-3.08h.1a2.83,2.83,0,0,1,2.3,1.12v-.31a.75.75,0,0,1,1.51,0h0v4.53A3.36,3.36,0,0,1,89.44,66a3.69,3.69,0,0,1-2.69.88A5.67,5.67,0,0,1,84.21,66.24Zm4.58-5h0a1.83,1.83,0,0,0-1.87-1.79h-.05A1.79,1.79,0,0,0,85,61.13s0,0,0,.07h0A1.79,1.79,0,0,0,86.79,63h.07a1.83,1.83,0,0,0,1.92-1.74Z"/><path class="cls-1" d="M95.16,65a3.27,3.27,0,0,1-3.37-3.17q0-.11,0-.22h0a3.26,3.26,0,0,1,3.09-3.41H95a3.1,3.1,0,0,1,3.12,3.08q0,.08,0,.15a.7.7,0,0,1-.69.72H93.29a1.83,1.83,0,0,0,1.89,1.67,2.39,2.39,0,0,0,1.55-.6.56.56,0,0,1,.38-.14.6.6,0,0,1,.6.6.66.66,0,0,1-.2.46A3.37,3.37,0,0,1,95.16,65Zm1.49-3.89A1.7,1.7,0,0,0,95,59.34a1.79,1.79,0,0,0-1.7,1.73Z"/><path class="cls-1" d="M99.41,64.14A.6.6,0,0,1,99.72,63a.66.66,0,0,1,.32.09,3.46,3.46,0,0,0,1.89.63c.65,0,1-.27,1-.7h0c0-.51-.69-.68-1.46-.92-1-.27-2-.67-2-1.92h0a2.09,2.09,0,0,1,2.34-2,4.51,4.51,0,0,1,2.06.53.64.64,0,0,1,.36.6.61.61,0,0,1-.9.53,3.58,3.58,0,0,0-1.54-.45c-.6,0-.92.27-.92.65h0c0,.48.71.68,1.48.93,1,.3,2,.73,2,1.91h0c0,1.38-1.07,2.06-2.44,2.06A4.48,4.48,0,0,1,99.41,64.14Z"/><path class="cls-1" d="M100.87,51.27a9.19,9.19,0,0,0-2.77-.45c1.67-1.7,2.86-.77,3.52.11.82-2.07,3-1.06,3.55-.81a9.43,9.43,0,0,0-3,1.09c2.21-.9,2.62,1,2.68,1.66,0,0-.33-.6-2.68-1.28a9.86,9.86,0,0,1,.57,6.7,2,2,0,0,1,.45.08,4.58,4.58,0,0,1,.56.16,7.49,7.49,0,0,1,3-4.18c-1.86-.52-2.34-.24-2.34-.24a1.39,1.39,0,0,1,2.49,0,7.72,7.72,0,0,0-1.59-2c.47,0,2.39.27,2.1,2,.79-.33,2-.46,2.44,1.38a7.39,7.39,0,0,0-2.07-.84,2.43,2.43,0,0,1,1.47,3.1q0,.11-.09.22c-.75-1.46-.38-1.57-1.92-3.26h0c1.57,2.26,0,3.41-.75,3.58a6.92,6.92,0,0,0,.44-3.72A10.16,10.16,0,0,0,104.66,59c-.35,1-.72,1.11-1,.89a6.65,6.65,0,0,0-3.44-.54,2,2,0,0,1,1.36-.94,12.8,12.8,0,0,0,.29-6.63,9.06,9.06,0,0,0-1.88,4.33c-.69-.68-1.68-3,1.46-4.38h0C98.68,52.52,99,52.9,97.27,54A3,3,0,0,1,100.87,51.27Z"/></svg>