<?xml version="1.0" encoding="utf-8"?>
<!-- Generator: Adobe Illustrator 20.0.0, SVG Export Plug-In . SVG Version: 6.00 Build 0)  -->
<svg version="1.1" id="Layer_1" xmlns="http://www.w3.org/2000/svg" xmlns:xlink="http://www.w3.org/1999/xlink" x="0px" y="0px"
	 width="54.4px" height="54.9px" viewBox="0 0 54.4 54.9" style="enable-background:new 0 0 54.4 54.9;" xml:space="preserve">
<style type="text/css">
	.st0{fill:none;stroke:#F2E3C9;stroke-width:0.482;stroke-miterlimit:10;}
	.st1{fill:#FFFFFF;}
	.st2{fill:none;}
</style>
<path class="st0" d="M34.2,13.9c-2.4,0.3-5.4,1.7-7.1,3c4.1,1.3,6.8-0.9,8.3-1.8c0.2,0.1,0,0.3,0,0.4c0,0.1-0.1,0.4-0.2,0.6
	c-0.1,0.2,0,0.2-0.1,0.3c-1.1,0.8-3.1,1.8-4.6,2.2c0,0.1-0.1,0.3,0.1,0.2c0.1,0.2-0.3,0.3-0.5,0.4c0.9,0.2,2.7,0.7,2.4,1.7
	c3.4,0.3,4.8,1,4.8,2.9c-0.5,2-15.5,10.4-21,3.6c-0.4-0.6-1.4-2-0.4-3.7c1.5-2.1,5.2-3.3,7.9-4.1c-3.9-0.7-4.7-2.7-4.5-3.9
	c0.1-1,1.6-3.1,7.4-3.9c-1.2-0.7-1.9-1.5-2.1-2.2c-0.1-0.5,0.1-1.2,0.4-1.5c2.3-2.5,7.9-2.3,10.5-1.9c0.3,0.8,0.1,1.8-0.5,2.2
	c-0.6,0-0.9,0.3-1.4,0.5c-1.2,0.6-2.2,1.4-3.3,1.9c0.4,0.2,0.7,0.6,0.5,0.8c2.9,0.3,5.4,0.8,6.2,1.8c0.4,0.4-0.1,1-0.2,1.1
	c-0.1,0.1-0.3,0.1-0.4,0.2c-0.2,0.1-0.4,0.1-0.4,0C36.2,14.5,36.4,13.6,34.2,13.9 M27.2,24.7c1,0.1,3.3-0.4,4.3-1.2
	C30.4,22.7,28.5,23.5,27.2,24.7"/>
<path class="st1" d="M12.7,41.7c0.2-0.1,0.4-0.2,0.6-0.3c0.2-0.1,0.3-0.3,0.4-0.5c0.1-0.2,0.1-0.4,0.1-0.7c0-0.2,0-0.4-0.1-0.6
	c-0.1-0.2-0.2-0.3-0.4-0.5c-0.2-0.1-0.5-0.2-0.8-0.3l-0.4-0.1c-0.2,0-0.3-0.1-0.4-0.1c-0.1,0-0.2-0.1-0.3-0.2
	c-0.1-0.1-0.2-0.1-0.2-0.2c0-0.1-0.1-0.2-0.1-0.3c0-0.1,0-0.2,0.1-0.3c0-0.1,0.1-0.2,0.2-0.3c0.1-0.1,0.2-0.1,0.3-0.2
	c0.1,0,0.3-0.1,0.4-0.1c0.2,0,0.4,0,0.6,0.1c0.1,0,0.1,0,0.2,0c0,0,0.1,0,0.2,0.1c0.1,0,0.1,0.1,0.2,0.1c0,0,0.1,0,0.1,0
	c0,0,0.1,0,0.1,0c0,0,0-0.1,0.1-0.1c0-0.1,0.1-0.1,0.1-0.2c0-0.1,0-0.1,0-0.1c0,0,0,0,0-0.1c0,0-0.1-0.1-0.2-0.1c0,0-0.1,0-0.2-0.1
	c-0.1,0-0.2-0.1-0.4-0.1c-0.2,0-0.4-0.1-0.6-0.1c-0.3,0-0.5,0-0.7,0.1c-0.2,0.1-0.4,0.2-0.5,0.3c-0.1,0.1-0.3,0.3-0.3,0.4
	c-0.1,0.2-0.1,0.4-0.1,0.6c0,0.2,0,0.4,0.1,0.5c0.1,0.1,0.2,0.3,0.3,0.4c0.1,0.1,0.3,0.2,0.4,0.3c0.2,0.1,0.4,0.1,0.5,0.2l0.3,0.1
	c0.2,0.1,0.4,0.1,0.6,0.2c0.2,0.1,0.3,0.2,0.4,0.3C13,40,13,40.2,13,40.3c0,0.1,0,0.3-0.1,0.4c-0.1,0.1-0.2,0.2-0.4,0.3
	c-0.2,0.1-0.4,0.1-0.7,0.1c-0.1,0-0.2,0-0.4,0c-0.1,0-0.2,0-0.4-0.1c-0.1,0-0.2-0.1-0.3-0.1c0,0-0.1,0-0.1-0.1c0,0-0.1,0-0.1-0.1
	c0,0-0.1-0.1-0.1-0.1c0,0-0.1,0-0.1,0.1c0,0-0.1,0.1-0.1,0.2c0,0.1-0.1,0.1-0.1,0.2c0,0,0,0.1,0,0.1c0,0,0.1,0.1,0.2,0.1
	c0.1,0,0.1,0.1,0.2,0.1c0.1,0,0.2,0.1,0.3,0.1c0.1,0,0.3,0.1,0.4,0.1c0.2,0,0.3,0,0.6,0C12.2,41.8,12.4,41.7,12.7,41.7 M17.4,41.7
	c0.1,0,0.1,0,0.1,0c0,0,0.1,0,0.1-0.1c0,0,0-0.1,0-0.2c0-0.1,0-0.1,0-0.2c0-0.1,0-0.1,0-0.1c0,0-0.1,0-0.1,0h-2.3v-1.8H17
	c0.1,0,0.1,0,0.1,0c0,0,0.1,0,0.1-0.1c0,0,0-0.1,0-0.1c0-0.1,0-0.1,0-0.2c0-0.1,0-0.1,0-0.1c0,0,0,0,0,0c0,0,0,0-0.1,0h-1.9v-1.4
	h2.1c0.1,0,0.1,0,0.1,0c0,0,0.1,0,0.1-0.1c0,0,0-0.1,0-0.1c0-0.1,0-0.1,0-0.2c0-0.1,0-0.1,0-0.1c0,0,0,0,0,0c0,0,0,0-0.1,0h-2.6
	c-0.2,0-0.2,0-0.3,0.1c0,0-0.1,0.1-0.1,0.2v4.6c0,0.1,0,0.1,0,0.2c0,0,0,0,0.1,0c0,0,0.1,0,0.2,0H17.4z M18.9,41.7
	C18.9,41.7,18.9,41.6,18.9,41.7c0.1-0.1,0.1-0.1,0.1-0.2v-3.4l2.2,3.5c0,0,0,0,0.1,0.1c0,0,0,0,0.1,0c0,0,0.1,0,0.2,0
	c0.1,0,0.1,0,0.2,0c0,0,0.1,0,0.1-0.1c0,0,0-0.1,0-0.1v-4.6c0,0,0-0.1,0-0.1c0,0,0-0.1-0.1-0.1c0,0-0.1,0-0.3,0c-0.1,0-0.1,0-0.2,0
	c0,0-0.1,0-0.1,0.1c0,0,0,0.1,0,0.1v3.5l-2.2-3.6c0,0,0-0.1-0.1-0.1c0,0,0,0,0,0c0,0,0,0,0,0c0,0,0,0-0.1,0c-0.1,0-0.1,0-0.2,0
	c-0.1,0-0.2,0-0.3,0c-0.1,0-0.1,0-0.1,0c0,0,0,0,0,0.1c0,0,0,0.1,0,0.1l0.2,0.3v4.3c0,0.1,0,0.1,0,0.2c0,0,0,0,0.1,0
	c0,0,0.1,0,0.2,0C18.8,41.7,18.8,41.7,18.9,41.7 M25.1,41.7c0.2-0.1,0.4-0.2,0.6-0.3c0.2-0.1,0.3-0.3,0.4-0.5
	c0.1-0.2,0.1-0.4,0.1-0.7c0-0.2,0-0.4-0.1-0.6s-0.2-0.3-0.4-0.5c-0.2-0.1-0.5-0.2-0.8-0.3l-0.4-0.1c-0.2,0-0.3-0.1-0.4-0.1
	c-0.1,0-0.2-0.1-0.3-0.2c-0.1-0.1-0.2-0.1-0.2-0.2c0-0.1-0.1-0.2-0.1-0.3c0-0.1,0-0.2,0.1-0.3c0-0.1,0.1-0.2,0.2-0.3
	c0.1-0.1,0.2-0.1,0.3-0.2c0.1,0,0.3-0.1,0.4-0.1c0.2,0,0.4,0,0.6,0.1c0.1,0,0.1,0,0.2,0c0,0,0.1,0,0.2,0.1c0.1,0,0.1,0.1,0.2,0.1
	c0,0,0.1,0,0.1,0c0,0,0.1,0,0.1,0c0,0,0-0.1,0.1-0.1c0-0.1,0.1-0.1,0.1-0.2c0-0.1,0-0.1,0-0.1c0,0,0,0,0-0.1c0,0-0.1-0.1-0.2-0.1
	c0,0-0.1,0-0.2-0.1c-0.1,0-0.2-0.1-0.4-0.1c-0.2,0-0.4-0.1-0.6-0.1c-0.3,0-0.5,0-0.7,0.1c-0.2,0.1-0.4,0.2-0.5,0.3
	c-0.1,0.1-0.3,0.3-0.3,0.4c-0.1,0.2-0.1,0.4-0.1,0.6c0,0.2,0,0.4,0.1,0.5c0.1,0.1,0.2,0.3,0.3,0.4c0.1,0.1,0.3,0.2,0.4,0.3
	c0.2,0.1,0.3,0.1,0.5,0.2l0.3,0.1c0.2,0.1,0.4,0.1,0.6,0.2c0.2,0.1,0.3,0.2,0.4,0.3c0.1,0.1,0.1,0.2,0.1,0.4c0,0.1,0,0.3-0.1,0.4
	c-0.1,0.1-0.2,0.2-0.4,0.3c-0.2,0.1-0.4,0.1-0.7,0.1c-0.1,0-0.2,0-0.4,0c-0.1,0-0.2,0-0.4-0.1c-0.1,0-0.2-0.1-0.3-0.1
	c0,0-0.1,0-0.1-0.1c0,0-0.1,0-0.1-0.1c0,0-0.1-0.1-0.1-0.1c0,0-0.1,0-0.1,0.1c0,0-0.1,0.1-0.1,0.2c0,0.1-0.1,0.1-0.1,0.2
	c0,0,0,0.1,0,0.1c0,0,0.1,0.1,0.2,0.1c0.1,0,0.1,0.1,0.2,0.1c0.1,0,0.2,0.1,0.3,0.1c0.1,0,0.3,0.1,0.4,0.1c0.2,0,0.3,0,0.6,0
	C24.6,41.8,24.9,41.7,25.1,41.7 M27,41.7C27,41.7,27,41.6,27,41.7c0.1-0.1,0.1-0.1,0.2-0.2l0.4-1.2h1.9l0.4,1.2
	c0,0.1,0.1,0.1,0.1,0.2c0,0,0,0,0.1,0c0,0,0.1,0,0.2,0c0.1,0,0.2,0,0.2,0c0,0,0.1,0,0.1,0c0,0,0-0.1,0-0.1c0,0,0-0.1,0-0.1l-1.6-4.7
	c0,0,0-0.1-0.1-0.1s-0.1,0-0.3,0c-0.1,0-0.2,0-0.3,0s-0.1,0.1-0.1,0.1l-1.6,4.6c0,0.1,0,0.1,0,0.2c0,0,0,0.1,0,0.1c0,0,0,0,0.1,0
	c0,0,0.1,0,0.2,0C26.8,41.7,26.9,41.7,27,41.7 M28.5,37.4l0.8,2.3h-1.5L28.5,37.4z M32.2,41.7C32.2,41.7,32.3,41.6,32.2,41.7
	c0.1-0.1,0.1-0.1,0.1-0.2v-4.2h1.3c0.1,0,0.1,0,0.1,0c0,0,0.1,0,0.1-0.1c0,0,0-0.1,0-0.1c0-0.1,0-0.1,0-0.2c0-0.1,0-0.1,0-0.1
	c0,0,0,0,0,0c0,0,0,0-0.1,0h-3.4c-0.1,0-0.1,0-0.1,0c0,0-0.1,0-0.1,0.1c0,0,0,0.1,0,0.2c0,0.1,0,0.1,0,0.2c0,0.1,0,0.1,0,0.1
	c0,0,0,0,0,0c0,0,0,0,0.1,0h1.5v4.2c0,0.1,0,0.1,0,0.2c0,0,0,0,0.1,0c0,0,0.1,0,0.2,0C32.1,41.7,32.1,41.7,32.2,41.7 M37,41.6
	c0.3-0.1,0.5-0.3,0.7-0.5c0.2-0.2,0.3-0.5,0.4-0.8c0.1-0.3,0.2-0.7,0.2-1.1c0-0.4-0.1-0.8-0.2-1.1c-0.1-0.3-0.3-0.6-0.4-0.8
	c-0.2-0.2-0.4-0.4-0.7-0.5c-0.3-0.1-0.6-0.2-0.9-0.2c-0.3,0-0.6,0.1-0.9,0.2c-0.3,0.1-0.5,0.3-0.7,0.5c-0.2,0.2-0.3,0.5-0.4,0.8
	C34,38.4,34,38.8,34,39.2c0,0.4,0.1,0.8,0.2,1.1c0.1,0.3,0.3,0.6,0.4,0.8c0.2,0.2,0.4,0.4,0.7,0.5c0.3,0.1,0.6,0.2,0.9,0.2
	C36.5,41.8,36.7,41.7,37,41.6 M35.5,41c-0.2-0.1-0.3-0.2-0.4-0.4c-0.1-0.2-0.2-0.4-0.3-0.6c-0.1-0.2-0.1-0.5-0.1-0.8
	c0-0.3,0-0.6,0.1-0.8c0.1-0.2,0.2-0.5,0.3-0.6c0.1-0.2,0.3-0.3,0.4-0.4c0.2-0.1,0.4-0.1,0.6-0.1c0.2,0,0.4,0,0.6,0.1
	c0.2,0.1,0.3,0.2,0.4,0.4c0.1,0.2,0.2,0.4,0.3,0.6c0.1,0.2,0.1,0.5,0.1,0.8c0,0.3,0,0.6-0.1,0.8c-0.1,0.2-0.2,0.5-0.3,0.6
	c-0.1,0.2-0.3,0.3-0.4,0.4c-0.2,0.1-0.4,0.1-0.6,0.1C35.9,41.2,35.7,41.1,35.5,41 M39.8,41.7C39.8,41.7,39.9,41.6,39.8,41.7
	c0.1-0.1,0.1-0.1,0.1-0.2v-1.9c0.3,0,0.6,0,0.7,0l1.4,2c0,0,0,0,0,0c0,0,0.1,0,0.1,0c0.1,0,0.1,0,0.2,0c0.2,0,0.3,0,0.3,0
	c0,0,0.1,0,0.1-0.1c0,0,0,0,0-0.1c0,0,0,0,0-0.1l-1.4-1.9c0.2-0.1,0.4-0.1,0.6-0.3c0.2-0.1,0.3-0.3,0.4-0.5c0.1-0.2,0.1-0.4,0.1-0.7
	c0-0.5-0.1-0.8-0.4-1c-0.3-0.2-0.7-0.3-1.3-0.3h-1.1c-0.2,0-0.2,0-0.3,0.1c0,0-0.1,0.1-0.1,0.2v4.6c0,0,0,0.1,0,0.1
	c0,0,0,0.1,0.1,0.1c0,0,0.1,0,0.2,0C39.7,41.7,39.7,41.7,39.8,41.7 M39.9,39v-1.7h0.8c0.2,0,0.4,0,0.6,0.1c0.2,0,0.3,0.1,0.4,0.3
	c0.1,0.1,0.1,0.3,0.1,0.5c0,0.1,0,0.3-0.1,0.4c0,0.1-0.1,0.2-0.2,0.3s-0.2,0.1-0.4,0.2C41,39,40.8,39,40.6,39
	C40.3,39,40.1,39,39.9,39 M44,41.7C44.1,41.7,44.1,41.6,44,41.7c0.1-0.1,0.1-0.1,0.1-0.2v-4.6c0-0.1,0-0.1,0-0.2c0,0-0.1,0-0.1,0
	c0,0-0.1,0-0.2,0c-0.1,0-0.2,0-0.2,0c-0.1,0-0.1,0-0.1,0.1c0,0,0,0.1,0,0.1v4.6c0,0,0,0.1,0,0.1c0,0,0,0.1,0.1,0.1c0,0,0.1,0,0.2,0
	C43.9,41.7,44,41.7,44,41.7"/>
<path class="st1" d="M20.8,49.2c-0.1,0-0.2,0-0.3,0c-0.1,0-0.2,0-0.2-0.1c-0.1,0-0.1-0.1-0.2-0.1c-0.1,0-0.1-0.1-0.1-0.1V49
	c0,0.1,0,0.1,0,0.1c0,0,0,0-0.1,0c0,0-0.1,0-0.2,0c-0.1,0-0.1,0-0.1,0c0,0-0.1,0-0.1,0c0,0,0-0.1,0-0.1v-3.8c0-0.1,0-0.1,0-0.2
	c0,0,0.1,0,0.2-0.1c0.1,0,0.1,0,0.2,0c0,0,0.1,0,0.1,0c0,0,0,0.1,0,0.1v1.7c0.1-0.1,0.1-0.2,0.2-0.2c0.1-0.1,0.2-0.1,0.3-0.1
	c0.1,0,0.2,0,0.3,0c0.3,0,0.5,0.1,0.7,0.2c0.2,0.1,0.3,0.3,0.4,0.5c0.1,0.2,0.1,0.4,0.1,0.6c0,0.2,0,0.4-0.1,0.6
	c-0.1,0.2-0.1,0.3-0.2,0.5c-0.1,0.1-0.2,0.2-0.4,0.3C21.1,49.2,21,49.2,20.8,49.2 M20.7,48.8c0.1,0,0.2,0,0.3-0.1
	c0.1-0.1,0.2-0.1,0.2-0.2c0.1-0.1,0.1-0.2,0.1-0.3c0-0.1,0-0.2,0-0.4c0-0.2,0-0.4-0.1-0.5c-0.1-0.1-0.2-0.2-0.3-0.3
	c-0.1-0.1-0.2-0.1-0.4-0.1c-0.1,0-0.2,0-0.3,0.1c-0.1,0.1-0.2,0.1-0.2,0.2c-0.1,0.1-0.1,0.2-0.1,0.3c0,0.1,0,0.2,0,0.3
	c0,0.1,0,0.3,0,0.4c0,0.1,0.1,0.2,0.1,0.3c0.1,0.1,0.1,0.2,0.2,0.2C20.4,48.7,20.6,48.8,20.7,48.8"/>
<path class="st1" d="M22.9,50.4c-0.1,0-0.2,0-0.2,0c0,0-0.1,0-0.1-0.1c0,0,0-0.1,0.1-0.2l0.6-1.2l-1.1-2.2c0-0.1,0-0.1,0-0.1
	c0,0,0,0,0-0.1c0,0,0.1,0,0.1,0c0,0,0.1,0,0.2,0c0.1,0,0.2,0,0.2,0c0,0,0.1,0,0.1,0.1l0.8,1.8l0.8-1.7c0-0.1,0.1-0.1,0.1-0.1
	c0,0,0.1,0,0.2,0c0.1,0,0.2,0,0.2,0c0,0,0,0,0,0.1c0,0,0,0.1,0,0.2l-1.6,3.6c0,0.1-0.1,0.1-0.1,0.1C23.1,50.4,23,50.4,22.9,50.4"/>
<path class="st1" d="M28.1,49.2c-0.1,0-0.1,0-0.2,0c0,0-0.1,0-0.1,0c0,0,0-0.1,0-0.1v-3.6h-1.2c0,0-0.1,0-0.1,0c0,0,0,0,0,0
	c0,0,0-0.1,0-0.1c0-0.1,0-0.1,0-0.2c0-0.1,0-0.1,0-0.1c0,0,0,0,0.1,0c0,0,0.1,0,0.1,0h2.9c0,0,0.1,0,0.1,0c0,0,0,0,0,0
	c0,0,0,0.1,0,0.1c0,0.1,0,0.1,0,0.2c0,0.1,0,0.1,0,0.1c0,0,0,0-0.1,0c0,0-0.1,0-0.1,0h-1.1V49c0,0.1,0,0.1,0,0.1c0,0,0,0-0.1,0
	C28.3,49.2,28.2,49.2,28.1,49.2"/>
<path class="st1" d="M31.8,49.3c-0.3,0-0.5,0-0.7-0.1c-0.2-0.1-0.4-0.2-0.5-0.3c-0.1-0.1-0.2-0.3-0.3-0.4c-0.1-0.2-0.1-0.4-0.1-0.6
	v-2.7c0-0.1,0-0.1,0-0.1c0,0,0,0,0.1,0c0,0,0.1,0,0.2,0c0.1,0,0.1,0,0.2,0c0,0,0.1,0,0.1,0c0,0,0,0.1,0,0.1v2.8c0,0.1,0,0.2,0.1,0.3
	c0,0.1,0.1,0.2,0.2,0.3c0.1,0.1,0.2,0.1,0.3,0.2c0.1,0,0.3,0.1,0.4,0.1c0.2,0,0.3,0,0.4-0.1c0.1,0,0.2-0.1,0.3-0.2
	c0.1-0.1,0.1-0.2,0.2-0.3c0-0.1,0.1-0.2,0.1-0.3v-2.8c0-0.1,0-0.1,0-0.1c0,0,0,0,0.1,0c0,0,0.1,0,0.2,0c0.1,0,0.2,0,0.2,0
	c0,0,0.1,0,0.1,0.1c0,0,0,0.1,0,0.1v2.7c0,0.2,0,0.4-0.1,0.6c-0.1,0.2-0.1,0.3-0.3,0.4c-0.1,0.1-0.3,0.2-0.5,0.3
	C32.3,49.2,32.1,49.3,31.8,49.3"/>
<path class="st1" d="M34.5,49.2c-0.1,0-0.2,0-0.2,0c0,0-0.1,0-0.1-0.1c0,0,0-0.1,0-0.1v-3.9c0-0.1,0-0.1,0-0.1c0,0,0,0,0.1,0
	c0,0,0.1,0,0.2,0c0.1,0,0.1,0,0.2,0c0,0,0.1,0,0.1,0c0,0,0,0.1,0,0.1V49c0,0.1,0,0.1,0,0.1c0,0,0,0-0.1,0
	C34.7,49.2,34.6,49.2,34.5,49.2"/>
<path class="st2" d="M-0.1,54.5"/>
</svg>
